<?xml version="1.0" encoding="UTF-8" standalone="no"?>
<svg
   width="103.947mm"
   height="130.16901mm"
   viewBox="0 0 103.947 130.16901"
   version="1.1"
   xmlns="http://www.w3.org/2000/svg">

  <g transform="translate(115.62292,-0.26458333)">

    <path
       d="M -12.055624,0.51458333 H -115.24313 C -118.37946,106.11381 -63.649379,130.16041 -63.649379,130.16041 c 0,0 54.7300846,-24.0466 51.593755,-129.64582667 z"
       fill="none"
       stroke="#c6c6c6"
       stroke-width="0.5" />

    <path
       d="m -106.91096,9.0041754 c 0,0 0.51061,1.0247156 14.830771,18.4340036 2.550704,3.100965 5.123505,6.198197 7.522367,9.43295 1.184624,1.597408 2.558995,3.206636 3.396447,5.061732 1.914753,4.241556 -0.993549,10.276103 -5.426415,12.696702 -2.452851,1.339394 -5.937251,0.71862 -5.00034,-2.698577 0.372928,-1.360168 1.523734,-2.38064 2.566487,-3.27618 -3.245886,-1.488784 -7.506804,0.935674 -9.274412,4.410592 -0.967511,1.902016 -1.1122,3.841744 -0.935815,5.773349 0.378245,4.141604 2.113594,7.948652 3.430172,11.701253 2.694753,7.680926 5.928894,15.418201 7.165764,23.725889 2.831265,-2.03042 3.441484,-6.712663 3.333944,-9.592023 -0.185423,-4.964501 -1.709276,-9.579439 -2.914621,-14.193973 -0.649905,-2.488132 -1.698963,-5.167891 -1.10151,-7.94594 l 2.579396,5.685386 4.691208,12.265481 1.901032,7.514382 c 5.738657,-6.782832 1.959292,-14.980177 -0.25121,-21.280776 -0.724755,-2.065772 -2.489966,-4.881046 -1.769546,-7.327386 3.410479,4.671014 6.227036,10.036171 8.769464,15.322767 0.981315,2.040507 1.53324,4.531728 2.665896,6.439309 2.202785,-2.60359 2.509294,-5.667424 1.91228,-8.596501 -0.850309,-4.171816 -2.870046,-7.900905 -4.724936,-11.540819 -0.940404,-1.845398 -2.727438,-4.316037 -2.151355,-6.704729 2.137475,1.899249 3.829345,4.532961 5.466081,6.897041 2.681688,3.873396 5.206712,7.836201 7.559083,11.958419 1.16579,2.042896 3.132464,6.425396 6.251866,5.625552 -1.3948,-2.236409 -2.01895,-5.163287 -2.907199,-7.695075 -1.857801,-5.295294 -3.646897,-10.719814 -6.510324,-15.424445 l -1.257239,2.171136 c -0.0423,-3.184706 -1.221652,-7.476657 -2.892945,-9.938384 l 0.08391,-0.09918 c 6.331962,5.357205 11.700285,11.989956 17.129361,18.285696 1.441524,1.671637 2.830331,3.419146 4.149702,5.199296 0.628409,0.847888 1.275553,2.179485 2.238057,2.66346 0.741321,0.372763 1.98328,0.06417 2.840743,0.06744 4.766334,0.01801 8.56653,0.225338 11.815812,0.762238 0.77831,0.128608 1.86699,0.562248 2.681479,0.25564 -3.545736,-1.585281 -6.595177,-4.11617 -9.630525,-6.427445 -9.334347,-7.107684 -22.10513,-20.581052 -22.103903,-20.581007 0.0013,-1.93e-4 15.402568,10.362752 23.95736,18.390274 2.782088,2.610611 5.783087,5.198759 7.933746,8.432953 0.167469,-0.854015 -0.440665,-1.855649 -0.696404,-2.601911 -1.067668,-3.11547 -1.901419,-6.829039 -2.708582,-11.526559 -0.145214,-0.84508 -0.04674,-2.120808 -0.537137,-2.790153 -0.636715,-0.869049 -2.056947,-1.286894 -2.9972,-1.76619 -1.974087,-1.006306 -3.927486,-2.086489 -5.814788,-3.23124 -7.107995,-4.311342 -14.538274,-8.506957 -20.870235,-13.864164 l 0.08391,-0.09918 c 2.704533,1.240482 7.132383,1.692868 10.280102,1.207111 l -1.932753,1.599285 c 5.113912,2.044661 10.759848,2.910583 16.289697,3.865688 2.643934,0.456654 5.633771,0.587399 8.070307,1.592532 0.272155,-3.20879 -4.375568,-4.422448 -6.583336,-5.233779 -4.454897,-1.63713 -8.781188,-3.470915 -13.045243,-5.474031 -2.602519,-1.222575 -5.48024,-2.454678 -7.70728,-4.248059 2.260278,-0.963751 4.992942,0.389197 6.968609,1.010971 3.896855,1.226404 7.908978,2.600592 12.164,2.748195 2.987497,0.103638 5.958261,-0.706107 8.161045,-3.309691 -2.068836,-0.801055 -4.617064,-0.932747 -6.791917,-1.562544 -5.634669,-1.631708 -11.392396,-3.520549 -16.563765,-6.11028 2.293225,-1.11564 5.361992,0.158888 7.519269,0.531488 6.579692,1.136425 15.289813,3.505857 21.028458,-3.276948 l -7.725447,-0.630189 -12.873078,-2.594906 -6.033912,-1.602301 c 2.640714,-1.04932 5.457229,-0.458617 8.018635,-0.229775 4.750433,0.424399 9.554035,1.162832 14.480667,0.523442 2.857403,-0.370836 7.37376,-1.747961 8.907193,-4.876395 -8.3978,0.156165 -16.5639,-1.751757 -24.58506,-3.137152 -3.91882,-0.6768526 -7.960717,-1.7576662 -12.107759,-1.4447235 -1.934142,0.1459609 -3.822966,0.6097349 -5.538454,1.8789135 -3.134135,2.318725 -4.819574,6.922545 -2.813737,9.87703 0.710458,-1.176677 1.526397,-2.48081 2.806008,-3.073856 3.214903,-1.489962 4.403969,1.843699 3.489339,4.484512 -1.652946,4.772538 -7.12247,8.640189 -11.622574,7.454388 -1.96818,-0.518627 -3.78265,-1.607678 -5.554206,-2.511361 -3.587387,-1.829963 -7.067969,-3.854231 -10.548573,-5.856111 z"
       fill="#c6c6c6" />
  </g>
</svg>