<?xml version="1.0" encoding="UTF-8" standalone="no"?>
<!-- Created with Inkscape (http://www.inkscape.org/) -->

<svg
   width="75.666mm"
   height="75.222mm"
   viewBox="0 0 75.666001 75.221999"
   version="1.1"
   id="svg1"
   xml:space="preserve"
   inkscape:version="1.4.2 (f4327f4, 2025-05-13)"
   sodipodi:docname="nate.svg"
   xmlns:inkscape="http://www.inkscape.org/namespaces/inkscape"
   xmlns:sodipodi="http://sodipodi.sourceforge.net/DTD/sodipodi-0.dtd"
   xmlns="http://www.w3.org/2000/svg"
   xmlns:svg="http://www.w3.org/2000/svg"><sodipodi:namedview
     id="namedview1"
     pagecolor="#ffffff"
     bordercolor="#000000"
     borderopacity="0.25"
     inkscape:showpageshadow="2"
     inkscape:pageopacity="0.0"
     inkscape:pagecheckerboard="true"
     inkscape:deskcolor="#d1d1d1"
     inkscape:document-units="mm"
     inkscape:zoom="1.1396485"
     inkscape:cx="512.4387"
     inkscape:cy="511.99997"
     inkscape:window-width="2560"
     inkscape:window-height="1369"
     inkscape:window-x="2552"
     inkscape:window-y="-7"
     inkscape:window-maximized="1"
     inkscape:current-layer="svg1" /><defs
     id="defs1" /><g
     id="group-R5"
     transform="matrix(0.26458333,0,0,0.26458333,0,-0.0010611)"><path
       id="path2"
       d="m 1935.4,1685.75 13.56,-20.89 -56.06,-97.25 c -3.8,-6.46 -8.01,-12.57 -12.63,-18.34 -4.63,-5.79 -9.8,-11.44 -15.55,-17.02 l 2.77,-4.25 c 8.23,6.67 15.53,12.46 21.98,17.41 6.47,4.89 11.77,8.69 15.87,11.35 l 80.04,52 10.08,-15.52 -144.81,-94.03 -9.65,14.85 68.63,116.74 c 2.66,4.63 6.08,9.46 10.21,14.5 4.13,5.07 9.02,10.33 14.59,15.78 l -2.44,3.81 c -6.4,-5.16 -12.57,-9.94 -18.39,-14.35 -5.89,-4.37 -11.34,-8.19 -16.31,-11.41 l -96.72,-62.82 -10,15.39 144.83,94.05"
       style="fill:#4c3997;fill-opacity:1;fill-rule:evenodd;stroke:none"
       transform="matrix(0.13333333,0,0,-0.13333333,0,284.30667)" /><path
       id="path3"
       d="m 1684.02,1766.25 10.08,-8.49 -16,-19.09 c -10.35,1 -19.28,2.95 -26.87,5.78 -7.59,2.87 -14.59,6.93 -20.91,12.25 -14.91,12.51 -21.34,28.35 -19.38,47.54 1.98,19.18 12.24,39.75 30.74,61.8 18.05,21.49 36.45,34.64 55.23,39.41 18.8,4.81 35.9,0.76 51.23,-12.13 5.4,-4.55 10.15,-10.21 14.14,-16.97 3.94,-6.76 7.43,-15.08 10.36,-24.98 l -15.45,-18.41 -10.06,8.46 c 2.52,9.21 3.04,17.03 1.5,23.41 -1.55,6.43 -5.3,12.1 -11.23,17.08 -10.61,8.91 -22.85,10.71 -36.8,5.36 -13.93,-5.34 -28.97,-17.68 -45.21,-37 -14.8,-17.66 -23.38,-33.63 -25.63,-47.84 -2.29,-14.23 1.88,-25.75 12.41,-34.63 6.19,-5.19 12.73,-7.91 19.62,-8.17 6.83,-0.25 14.27,1.94 22.23,6.62"
       style="fill:#4c3997;fill-opacity:1;fill-rule:evenodd;stroke:none"
       transform="matrix(0.13333333,0,0,-0.13333333,0,284.30667)" /><path
       id="path4"
       d="m 1530.96,1840.96 22.9,-14.3 -6.85,-10.95 -62.41,39 6.84,10.96 22.88,-14.3 77.79,124.53 -22.89,14.28 6.88,10.96 62.39,-38.97 -6.85,-10.98 -22.88,14.3 -77.8,-124.53"
       style="fill:#4c3997;fill-opacity:1;fill-rule:evenodd;stroke:none"
       transform="matrix(0.13333333,0,0,-0.13333333,0,284.30667)" /><path
       id="path5"
       d="m 1306.8,1927.25 -89.21,22.76 42.65,167.32 85.87,-21.91 -3.64,-14.24 -66.83,17.04 -14.46,-56.71 63.33,-16.14 -3.88,-15.15 -63.28,16.13 -16.91,-66.29 70.19,-17.89 -3.83,-14.92"
       style="fill:#4c3997;fill-opacity:1;fill-rule:evenodd;stroke:none"
       transform="matrix(0.13333333,0,0,-0.13333333,0,284.30667)" /><path
       id="path6"
       d="m 1072.6,2132.27 24.28,-1.79 17.03,-97.29 c 1.27,-7.58 2.48,-15.67 3.6,-24.23 1.09,-8.57 2.19,-17.69 3.12,-27.33 l 3.58,-0.26 c 1.77,10.41 3.56,19.9 5.28,28.46 1.77,8.57 3.51,16.2 5.2,22.89 l 23.14,93.29 23.67,-1.73 -5.71,-172.41 -13.93,1.03 3.42,103.29 c 0.08,1.97 0.4,6.67 1.05,14.15 0.64,7.42 1.84,21.23 3.56,41.36 l -3.15,0.22 -39.31,-156.48 -11.76,0.86 -29.23,161.52 -2.9,0.23 c 0.56,-7.9 0.94,-15.82 1.09,-23.81 0.15,-7.99 0.03,-17.2 -0.29,-27.59 l -0.19,-5.27 -3.4,-102.52 -13.86,1.02 5.71,172.39"
       style="fill:#4c3997;fill-opacity:1;fill-rule:evenodd;stroke:none"
       transform="matrix(0.13333333,0,0,-0.13333333,0,284.30667)" /><path
       id="path7"
       d="m 596.996,2010.12 17.539,8.86 32.926,-65.12 63.48,32.13 -32.921,65.11 17.402,8.79 77.937,-154.08 -17.402,-8.79 -37.613,74.33 -63.481,-32.11 37.614,-74.33 -17.539,-8.87 -77.942,154.08"
       style="fill:#4c3997;fill-opacity:1;fill-rule:evenodd;stroke:none"
       transform="matrix(0.13333333,0,0,-0.13333333,0,284.30667)" /><path
       id="path8"
       d="m 600.156,1817.4 -16.992,-9.82 -78.723,136.34 -39.836,-23 -7.636,13.21 95.761,55.26 7.622,-13.19 -38.903,-22.47 78.707,-136.33"
       style="fill:#4c3997;fill-opacity:1;fill-rule:evenodd;stroke:none"
       transform="matrix(0.13333333,0,0,-0.13333333,0,284.30667)" /><path
       id="path9"
       d="m 139.418,1573.19 13.121,21.19 111.832,-9.09 c 7.481,-0.68 14.809,-1.86 21.984,-3.59 7.223,-1.67 14.543,-3.94 22.063,-6.74 l 2.633,4.3 c -9.547,4.57 -17.887,8.72 -25.11,12.44 -7.214,3.75 -12.921,6.93 -17.054,9.49 l -81.25,50.13 9.73,15.71 146.942,-90.68 -9.321,-15.1 -134.871,12.13 c -5.336,0.44 -11.129,1.47 -17.48,3.04 -6.352,1.61 -13.188,3.74 -20.512,6.44 l -2.375,-3.85 c 7.402,-3.55 14.359,-7.05 20.82,-10.47 6.465,-3.45 12.25,-6.74 17.289,-9.85 l 98.121,-60.59 -9.625,-15.6 -146.937,90.69"
       style="fill:#4c3997;fill-opacity:1;fill-rule:evenodd;stroke:none"
       transform="matrix(0.13333333,0,0,-0.13333333,0,284.30667)" /><path
       id="path10"
       d="m 2144.87,1109.73 -0.18,-92.06 -172.69,0.37 0.19,88.6 14.73,-0.04 -0.15,-68.94 58.52,-0.16 0.11,65.35 15.64,-0.05 -0.11,-65.3 68.43,-0.14 0.15,72.42 15.36,-0.05"
       style="fill:#4c3997;fill-opacity:1;fill-rule:evenodd;stroke:none"
       transform="matrix(0.13333333,0,0,-0.13333333,0,284.30667)" /><path
       id="path11"
       d="m 2097.29,941.84 2.04,12.988 24.61,-3.816 c 4.47,-9.364 7.45,-18.051 8.95,-26.012 1.47,-7.969 1.57,-16.078 0.29,-24.238 -3,-19.223 -13.27,-32.922 -30.7,-41.121 -17.47,-8.231 -40.35,-10.059 -68.82,-5.61 -27.69,4.34 -48.46,13.321 -62.25,26.957 -13.83,13.614 -19.17,30.332 -16.09,50.121 1.1,7 3.54,13.95 7.25,20.86 3.77,6.89 9.1,14.179 16.05,21.801 l 23.7,-3.75 -1.98,-13.008 c -9.21,-2.551 -16.2,-6.16 -20.86,-10.75 -4.69,-4.66 -7.62,-10.821 -8.83,-18.422 -2.13,-13.699 2.66,-25.129 14.43,-34.301 11.72,-9.207 30.11,-15.699 55.02,-19.609 22.81,-3.571 40.86,-2.68 54.19,2.73 13.38,5.422 21.12,14.879 23.26,28.531 1.24,7.957 0.22,14.989 -3.11,21.008 -3.35,6.012 -9.03,11.192 -17.15,15.641"
       style="fill:#4c3997;fill-opacity:1;fill-rule:evenodd;stroke:none"
       transform="matrix(0.13333333,0,0,-0.13333333,0,284.30667)" /><path
       id="path12"
       d="m 1906.69,740.059 9.62,23.011 111.88,8.52 c 7.51,0.531 14.92,0.492 22.28,-0.078 7.37,-0.512 14.99,-1.641 22.81,-3.223 l 1.96,4.66 c -10.15,3.012 -19.06,5.789 -26.75,8.34 -7.72,2.563 -13.84,4.801 -18.34,6.691 l -88.05,36.79 7.1,17.07 159.34,-66.559 -6.85,-16.34 -135.09,-9.222 c -5.35,-0.379 -11.25,-0.258 -17.74,0.312 -6.52,0.59 -13.62,1.641 -21.26,3.141 l -1.78,-4.16 c 7.89,-2.364 15.29,-4.742 22.24,-7.114 6.92,-2.398 13.13,-4.726 18.6,-6.988 l 106.44,-44.48 -7.07,-16.91 -159.34,66.539"
       style="fill:#4c3997;fill-opacity:1;fill-rule:evenodd;stroke:none"
       transform="matrix(0.13333333,0,0,-0.13333333,0,284.30667)" /><path
       id="path13"
       d="m 2044.92,618.449 -42.02,-81.969 -153.62,78.821 40.39,78.801 13.07,-6.68 -31.45,-61.344 52.09,-26.726 29.79,58.16 13.92,-7.16 -29.81,-58.122 60.91,-31.23 33.04,64.441 13.69,-6.992"
       style="fill:#4c3997;fill-opacity:1;fill-rule:evenodd;stroke:none"
       transform="matrix(0.13333333,0,0,-0.13333333,0,284.30667)" /><path
       id="path14"
       d="m 1958.4,462.91 -48.74,-64.64 -137.83,104.019 11.82,15.723 125.56,-94.782 36.94,48.93 12.25,-9.25"
       style="fill:#4c3997;fill-opacity:1;fill-rule:evenodd;stroke:none"
       transform="matrix(0.13333333,0,0,-0.13333333,0,284.30667)" /><path
       id="path15"
       d="m 1860.55,343.039 -57.28,-57.269 -122.06,122.128 13.91,13.911 111.19,-111.239 43.38,43.282 10.86,-10.813"
       style="fill:#4c3997;fill-opacity:1;fill-rule:evenodd;stroke:none"
       transform="matrix(0.13333333,0,0,-0.13333333,0,284.30667)" /><path
       id="path16"
       d="m 1732.06,224.051 -74.48,-54.102 -101.51,139.711 71.7,52.051 8.64,-11.922 -55.79,-40.5 34.42,-47.359 52.84,38.402 9.17,-12.633 -52.84,-38.39 40.24,-55.387 58.59,42.598 9.02,-12.469"
       style="fill:#4c3997;fill-opacity:1;fill-rule:evenodd;stroke:none"
       transform="matrix(0.13333333,0,0,-0.13333333,0,284.30667)" /><path
       id="path17"
       d="m 1560.66,156.859 11.72,5.93 11.31,-22.238 c -4.96,-9.051 -10.26,-16.531 -15.87,-22.403 -5.58,-5.886 -12.09,-10.699 -19.46,-14.468 -17.32,-8.7503 -34.45,-8.4886 -51.32,0.879 -16.88,9.312 -31.77,26.82 -44.8,52.441 -12.71,25.039 -17.59,47.141 -14.58,66.301 2.93,19.168 13.38,33.301 31.26,42.39 6.28,3.2 13.35,5.258 21.12,6.321 7.78,0.976 16.81,0.898 27.06,-0.262 l 10.86,-21.418 -11.72,-5.98 c -7.48,5.98 -14.47,9.519 -20.94,10.589 -6.49,1.129 -13.22,-0.113 -20.1,-3.589 -12.37,-6.282 -18.83,-16.84 -19.36,-31.801 -0.6,-14.879 4.89,-33.59 16.27,-56.063 10.46,-20.609 21.77,-34.738 33.98,-42.367 12.18,-7.66 24.44,-8.383 36.71,-2.141 7.19,3.649 12.29,8.61 15.23,14.809 2.9,6.242 3.79,13.902 2.63,23.07"
       style="fill:#4c3997;fill-opacity:1;fill-rule:evenodd;stroke:none"
       transform="matrix(0.13333333,0,0,-0.13333333,0,284.30667)" /><path
       id="path18"
       d="m 1348.55,122.52 -64.9,69.89 21.83,6.231 31.12,-34.45 c 4.25,-4.703 8.13,-9.582 11.77,-14.703 3.57,-5.117 6.98,-10.398 10.22,-15.929 l 4.32,1.242 c -0.03,7.59 0.11,14.429 0.48,20.48 0.38,6.09 0.83,11.348 1.44,15.93 l 6.58,46.391 20.37,5.82 -17.53,-93.551 66.11,-72.1522 -20.59,-5.918 -35.81,39.5976 c -5.35,5.7618 -9.4,10.5626 -12.26,14.4996 -2.78,3.911 -5.33,8.09 -7.59,12.493 l -4.32,-1.282 c 0.38,-5.711 0.45,-11.507 0.27,-17.3004 -0.24,-5.8672 -0.72,-12.0195 -1.54,-18.5195 l -6.44,-48.8985 -21.35,-6.1211 17.82,96.2505"
       style="fill:#4c3997;fill-opacity:1;fill-rule:evenodd;stroke:none"
       transform="matrix(0.13333333,0,0,-0.13333333,0,284.30667)" /><path
       id="path19"
       d="M 1260.51,11.1992 1169.11,0 l -21.01,171.371 87.91,10.828 1.79,-14.578 -68.42,-8.422 7.13,-58.109 64.84,7.969 1.87,-15.5199 -64.83,-7.961 8.34,-67.9062 71.9,8.8164 1.88,-15.2891"
       style="fill:#4c3997;fill-opacity:1;fill-rule:evenodd;stroke:none"
       transform="matrix(0.13333333,0,0,-0.13333333,0,284.30667)" /><path
       id="path20"
       d="m 861.25,192.449 24.691,-3.5 36.602,-106.0506 c 2.379,-7.1367 4.254,-14.3164 5.539,-21.6093 1.348,-7.25 2.207,-14.9102 2.66,-22.8672 l 4.988,-0.6836 c 0.379,10.5508 0.797,19.8828 1.317,27.9414 0.582,8.1289 1.176,14.6406 1.844,19.4805 l 13.3,94.5198 18.313,-2.598 L 946.449,6.08203 928.895,8.57031 885.836,136.941 c -1.773,5.071 -3.164,10.829 -4.242,17.219 -1.098,6.461 -1.848,13.59 -2.332,21.418 l -4.477,0.594 c -0.297,-8.184 -0.719,-15.961 -1.234,-23.25 -0.563,-7.332 -1.285,-13.942 -2.113,-19.781 L 855.398,18.9414 837.203,21.4609 861.25,192.449"
       style="fill:#4c3997;fill-opacity:1;fill-rule:evenodd;stroke:none"
       transform="matrix(0.13333333,0,0,-0.13333333,0,284.30667)" /><path
       id="path21"
       d="m 584.668,126.078 24.426,-11.379 -5.446,-11.719 -66.707,31.102 5.446,11.738 24.472,-11.429 62.043,133.07 -24.472,11.398 5.492,11.719 66.703,-31.129 -5.492,-11.719 -24.422,11.418 -62.043,-133.07"
       style="fill:#4c3997;fill-opacity:1;fill-rule:evenodd;stroke:none"
       transform="matrix(0.13333333,0,0,-0.13333333,0,284.30667)" /><path
       id="path22"
       d="m 481.313,219.629 11.171,-6.988 -13.187,-21.129 c -10.344,-0.461 -19.469,0.238 -27.399,1.988 -7.933,1.762 -15.406,4.852 -22.402,9.211 -16.488,10.301 -25.098,25.098 -25.812,44.379 -0.715,19.281 6.574,41.07 21.836,65.469 14.835,23.781 31.261,39.382 49.222,46.711 17.934,7.402 35.41,5.75 52.438,-4.891 5.961,-3.758 11.418,-8.719 16.3,-14.797 4.856,-6.16 9.469,-13.91 13.754,-23.301 l -12.73,-20.371 -11.18,6.942 c 1.254,9.468 0.692,17.296 -1.746,23.429 -2.383,6.117 -6.922,11.239 -13.457,15.321 -11.769,7.359 -24.18,7.41 -37.215,0.16 -13.031,-7.192 -26.265,-21.512 -39.605,-42.922 -12.219,-19.551 -18.492,-36.531 -18.75,-50.918 -0.266,-14.402 5.445,-25.25 17.137,-32.582 6.835,-4.262 13.71,-6.051 20.515,-5.379 6.844,0.711 13.867,3.961 21.11,9.668"
       style="fill:#4c3997;fill-opacity:1;fill-rule:evenodd;stroke:none"
       transform="matrix(0.13333333,0,0,-0.13333333,0,284.30667)" /><path
       id="path23"
       d="m 307.363,335.59 17.852,-20.219 -9.731,-8.57 -48.593,55.25 9.691,8.551 17.816,-20.27 110.219,97.027 -17.844,20.223 9.731,8.547 48.594,-55.231 -9.703,-8.578 -17.801,20.27 -110.231,-97"
       style="fill:#4c3997;fill-opacity:1;fill-rule:evenodd;stroke:none"
       transform="matrix(0.13333333,0,0,-0.13333333,0,284.30667)" /><path
       id="path24"
       d="m 300.523,598.281 15.114,-19.84 -48.629,-101.171 c -3.313,-6.68 -7.067,-13.122 -11.242,-19.239 -4.168,-6.09 -8.907,-12.109 -14.2,-18.121 l 3.082,-4.019 c 7.665,7.257 14.547,13.558 20.59,18.98 6.09,5.41 11.09,9.539 14.992,12.551 l 75.915,57.797 11.203,-14.688 -137.364,-104.621 -10.742,14.078 59.711,121.532 c 2.293,4.832 5.34,9.902 9.098,15.269 3.758,5.332 8.222,10.93 13.375,16.832 l -2.738,3.617 c -5.977,-5.636 -11.77,-10.906 -17.25,-15.718 -5.524,-4.801 -10.676,-9.008 -15.407,-12.59 l -91.773,-69.848 -11.082,14.578 137.347,104.621"
       style="fill:#4c3997;fill-opacity:1;fill-rule:evenodd;stroke:none"
       transform="matrix(0.13333333,0,0,-0.13333333,0,284.30667)" /><path
       id="path25"
       d="m 238.258,732.73 8.937,-17.511 -65.011,-33.18 32.355,-63.328 64.977,33.16 8.875,-17.371 -153.778,-78.539 -8.871,17.391 74.184,37.886 -32.321,63.371 -74.2222,-37.879 -8.9023,17.461 153.7775,78.539"
       style="fill:#4c3997;fill-opacity:1;fill-rule:evenodd;stroke:none"
       transform="matrix(0.13333333,0,0,-0.13333333,0,284.30667)" /><path
       id="path26"
       d="m 91.6563,738.23 3.1953,-12.75 -24.1641,-6.089 c -7.7383,6.839 -13.8672,13.648 -18.3789,20.398 -4.5078,6.781 -7.7383,14.141 -9.7695,22.18 -4.7383,18.871 -0.6758,35.492 12.1797,49.871 12.8164,14.39 33.1835,25.058 61.0622,32.09 27.211,6.879 49.867,6.718 67.871,-0.41 18.078,-7.129 29.536,-20.43 34.422,-39.84 1.735,-6.86 2.219,-14.211 1.504,-22.008 -0.789,-7.82 -2.816,-16.621 -6.242,-26.352 l -23.297,-5.859 -3.23,12.75 c 7.476,6 12.476,12.008 14.961,18.09 2.515,6.109 2.808,12.898 0.933,20.418 -3.379,13.422 -12.289,22.051 -26.719,25.89 -14.39,3.832 -33.82,2.68 -58.285,-3.5 C 95.3008,817.48 79.0273,809.551 68.8828,799.359 58.7031,789.18 55.3125,777.379 58.6602,764 c 1.9609,-7.809 5.6757,-13.828 11.0859,-18.07 5.4141,-4.239 12.6992,-6.809 21.9102,-7.7"
       style="fill:#4c3997;fill-opacity:1;fill-rule:evenodd;stroke:none"
       transform="matrix(0.13333333,0,0,-0.13333333,0,284.30667)" /><path
       id="path27"
       d="m 12.5898,883.82 -8.79683,91.641 171.89503,16.508 8.453,-88.199 -14.653,-1.399 -6.582,68.617 -58.25,-5.558 6.246,-65.008 -15.5582,-1.5 -6.2383,65.008 -68.1367,-6.539 6.9179,-72.082 -15.2969,-1.489"
       style="fill:#4c3997;fill-opacity:1;fill-rule:evenodd;stroke:none"
       transform="matrix(0.13333333,0,0,-0.13333333,0,284.30667)" /><path
       id="path28"
       d="m 0,1088.22 0.5625,19.64 157.3515,-4.37 1.316,45.95 15.211,-0.42 -3.078,-110.5 -15.215,0.42 1.235,44.93 L 0,1088.22"
       style="fill:#4c3997;fill-opacity:1;fill-rule:evenodd;stroke:none"
       transform="matrix(0.13333333,0,0,-0.13333333,0,284.30667)" /><path
       id="path29"
       d="m 1071.96,1896.59 c 457.09,0 827.78,-370.76 827.78,-827.96 0,-457.161 -370.69,-827.931 -827.78,-827.931 -457.112,0 -827.804,370.77 -827.804,827.931 0,457.2 370.692,827.96 827.804,827.96"
       style="fill:#4c3997;fill-opacity:1;fill-rule:evenodd;stroke:none"
       transform="matrix(0.13333333,0,0,-0.13333333,0,284.30667)" /><path
       id="path30"
       d="M 1466.78,1318.34 V 706.281 h 212.98 V 844.43 h -98.85 v 124.808 h 88.39 v 124.902 h -88.39 v 99.41 h 98.85 v 36.54 l 68.04,-39.74 v 86.2 l -68.04,39.79 v 2 h -3.46 L 1054.87,1681.6 444.645,1318.34 h -0.977 v -0.56 l -88.539,-52.72 v -86.23 l 88.539,52.68 V 706.281 h 108.5 V 990.988 L 657.504,706.281 h 97.281 V 1318.34 H 651.934 V 997.871 l -97.594,299.519 500.53,297.85 473.84,-276.9 z m -321.5,0 v -117.77 h 77.81 V 706.281 h 109.71 v 494.289 h 77.65 v 117.77 z M 800.793,706.281 918.648,1318.34 H 1028.6 l 117.86,-612.059 h -107.34 l -11.68,104.391 H 925.676 L 906.051,706.281 Z m 141.641,209.758 h 68.276 L 977.262,1113.53 H 974.68 L 942.434,916.039"
       style="fill:#fccf1e;fill-opacity:1;fill-rule:evenodd;stroke:none"
       transform="matrix(0.13333333,0,0,-0.13333333,0,284.30667)" /><path
       id="path31"
       d="m 2006.66,1382.19 c 26.45,0 47.91,-21.54 47.91,-48.1 0,-26.57 -21.46,-48.11 -47.91,-48.11 -26.46,0 -47.91,21.54 -47.91,48.11 0,26.56 21.45,48.1 47.91,48.1"
       style="fill:#4c3997;fill-opacity:1;fill-rule:evenodd;stroke:none"
       transform="matrix(0.13333333,0,0,-0.13333333,0,284.30667)" /><path
       id="path32"
       d="m 127.809,1381.09 c 26.461,0 47.914,-21.55 47.914,-48.08 0,-26.58 -21.453,-48.13 -47.914,-48.13 -26.454,0 -47.9106,21.55 -47.9106,48.13 0,26.53 21.4566,48.08 47.9106,48.08"
       style="fill:#4c3997;fill-opacity:1;fill-rule:evenodd;stroke:none"
       transform="matrix(0.13333333,0,0,-0.13333333,0,284.30667)" /><path
       id="path33"
       d="m 761.449,223.969 25.02,-9.797 L 765.957,36.7617 745.02,44.9492 750.094,90.1211 703.57,108.34 676.031,71.9609 656.52,79.6016 Z m -29.355,-71.731 -21.606,-30.09 43.516,-17.078 4.211,36.942 c 1.281,10.117 2.973,20.187 5.039,30.187 2.062,10.031 4.535,19.922 7.43,29.68 l -7.7,3 c -4.847,-10.027 -9.761,-19.379 -14.879,-28.141 -5.117,-8.718 -10.406,-16.91 -16.011,-24.5"
       style="fill:#4c3997;fill-opacity:1;fill-rule:evenodd;stroke:none"
       transform="matrix(0.13333333,0,0,-0.13333333,0,284.30667)" /><path
       id="path34"
       d="m 269.262,1767.5 c 13.718,15.23 29.648,21.74 47.832,19.47 18.187,-2.24 38.219,-13.18 60.015,-32.81 22.547,-20.3 35.926,-39.39 40.293,-57.32 4.321,-17.88 -0.453,-34.5 -14.289,-49.85 -13.75,-15.31 -29.867,-21.74 -48.363,-19.41 -18.445,2.43 -38.742,13.55 -60.766,33.44 -22.015,19.83 -35.136,38.67 -39.226,56.55 -4.172,17.95 0.672,34.57 14.504,49.93 z m 122.246,-110.43 c 9.316,10.32 11.914,21.98 7.851,35.12 -4.093,13.1 -14.691,27.4 -31.941,42.9 -20.445,18.41 -37.656,29.36 -51.559,32.86 -13.902,3.46 -25.668,-0.17 -35.363,-10.94 -9.437,-10.48 -11.879,-22.43 -7.359,-35.85 4.582,-13.38 16.117,-28.48 34.679,-45.16 18.793,-16.93 35.098,-26.93 48.856,-30.03 13.789,-3.1 25.398,0.59 34.836,11.1"
       style="fill:#4c3997;fill-opacity:1;fill-rule:evenodd;stroke:none"
       transform="matrix(0.13333333,0,0,-0.13333333,0,284.30667)" /><path
       id="path35"
       d="m 349.453,1843.92 31.492,27.17 c 13.91,11.98 27.399,18.11 40.442,18.43 13.109,0.32 24.574,-5.22 34.426,-16.65 7.167,-8.32 11.042,-17.57 11.558,-27.71 0.457,-10.13 -2.391,-20.71 -8.715,-31.74 l 89.739,-25.92 -17.805,-15.36 -79.402,24.44 -20.032,-17.28 45.969,-53.28 -14.898,-12.85 z m 71.481,-52.78 c 0.898,0.66 1.914,1.42 3.004,2.33 1.089,0.9 2.664,2.23 4.773,4.05 12.555,10.79 19.727,20.98 21.566,30.52 1.887,9.58 -1.464,19.34 -9.988,29.24 -7.934,9.2 -16.461,13.53 -25.633,13 -9.168,-0.53 -19.691,-5.9 -31.636,-16.2 -1.731,-1.46 -4.551,-4.12 -8.5,-8 l -0.559,-0.49 46.973,-54.45"
       style="fill:#4c3997;fill-opacity:1;fill-rule:evenodd;stroke:none"
       transform="matrix(0.13333333,0,0,-0.13333333,0,284.30667)" /><path
       id="path36"
       d="m 954.039,2124.91 26.836,1.57 55.685,-169.68 -22.43,-1.32 -14.275,43.14 -49.949,-2.98 -9.773,-44.52 -20.895,-1.24 z m 3.426,-77.45 -7.039,-36.37 46.676,2.77 -11.641,35.27 c -3.113,9.75 -5.789,19.6 -8.094,29.53 -2.312,9.96 -4.238,19.97 -5.664,30.07 l -8.273,-0.5 c -0.188,-11.14 -0.754,-21.73 -1.719,-31.78 -0.973,-10.08 -2.363,-19.74 -4.246,-28.99"
       style="fill:#4c3997;fill-opacity:1;fill-rule:evenodd;stroke:none"
       transform="matrix(0.13333333,0,0,-0.13333333,0,284.30667)" /><path
       id="path37"
       d="m 1404.59,2070.34 39.07,-14.19 c 17.27,-6.27 29.2,-15.03 35.87,-26.3 6.68,-11.26 7.43,-23.98 2.29,-38.15 -3.76,-10.35 -9.93,-18.22 -18.54,-23.59 -8.6,-5.42 -19.24,-8.05 -31.93,-7.95 l 21.24,-90.97 -22.12,8.04 -17.46,81.25 -24.88,9.02 -24.05,-66.14 -18.46,6.71 z m -11.12,-88.13 c 1.01,-0.49 2.17,-0.98 3.48,-1.48 1.32,-0.53 3.27,-1.28 5.9,-2.22 15.53,-5.63 27.94,-6.95 37.17,-3.9 9.25,3.07 16.13,10.72 20.59,23.05 4.15,11.38 3.77,20.94 -1.16,28.69 -4.93,7.74 -14.77,14.32 -29.61,19.69 -2.11,0.77 -5.78,1.94 -11.12,3.48 l -0.72,0.27 -24.53,-67.58"
       style="fill:#4c3997;fill-opacity:1;fill-rule:evenodd;stroke:none"
       transform="matrix(0.13333333,0,0,-0.13333333,0,284.30667)" /><path
       id="path38"
       d="m 1848.55,1786.94 17.62,-20.29 -100.37,-147.69 -14.76,17 25.42,37.64 -32.79,37.74 -41.26,-19.45 -13.72,15.79 z m -59.21,-49.96 -33.12,-16.65 30.67,-35.26 20.82,30.76 c 5.83,8.39 12.03,16.51 18.44,24.41 6.48,7.95 13.27,15.55 20.34,22.84 l -5.42,6.26 c -8.94,-6.65 -17.66,-12.66 -26.22,-18.04 -8.57,-5.37 -17.07,-10.16 -25.51,-14.32"
       style="fill:#4c3997;fill-opacity:1;fill-rule:evenodd;stroke:none"
       transform="matrix(0.13333333,0,0,-0.13333333,0,284.30667)" /><path
       id="path39"
       d="m 1886.77,176.922 c 40.26,0 73.05,-32.84 73.05,-73.051 0,-40.2499 -32.79,-73.039 -73.05,-73.039 -40.2,0 -73.01,32.7891 -73.01,73.039 0,40.211 32.81,73.051 73.01,73.051 z m 0,-10.442 c 34.5,0 62.65,-28.109 62.65,-62.609 0,-34.4921 -28.15,-62.6093 -62.65,-62.6093 -34.46,0 -62.61,28.1172 -62.61,62.6093 0,34.5 28.15,62.609 62.61,62.609"
       style="fill:#4c3997;fill-opacity:1;fill-rule:evenodd;stroke:none"
       transform="matrix(0.13333333,0,0,-0.13333333,0,284.30667)" /><path
       id="path40"
       d="M 1865.91,134.27 V 58.8516 h -9.39 V 142.5 h 26.09 c 5.71,0 10.32,-0.371 13.83,-1.121 3.49,-0.758 6.65,-2 9.47,-3.707 3.86,-2.34 6.94,-5.461 9.17,-9.363 2.24,-3.918 3.38,-8.047 3.38,-12.411 0,-6.468 -2.23,-12.027 -6.7,-16.7261 -4.47,-4.6914 -10.03,-7.211 -16.76,-7.6211 l 23.46,-32.6992 h -11.32 l -28.82,40.3203 h 9.2 c 6.13,0 11.12,1.5471 14.96,4.6681 3.83,3.07 5.79,7.101 5.79,11.949 0,2.973 -0.59,5.609 -1.77,8.051 -1.16,2.39 -2.93,4.5 -5.26,6.301 -1.87,1.468 -4.21,2.519 -6.86,3.191 -2.68,0.609 -7.49,0.938 -14.4,0.938 h -14.07"
       style="fill:#4c3997;fill-opacity:1;fill-rule:nonzero;stroke:none"
       transform="matrix(0.13333333,0,0,-0.13333333,0,284.30667)" /></g></svg>
