<?xml version="1.0" encoding="UTF-8" standalone="no"?>
<!-- Created with Inkscape (http://www.inkscape.org/) -->

<svg
   width="256mm"
   height="256mm"
   viewBox="0 0 256 255.99999"
   version="1.1"
   id="svg1"
   xml:space="preserve"
   xmlns:xlink="http://www.w3.org/1999/xlink"
   xmlns="http://www.w3.org/2000/svg"
   xmlns:svg="http://www.w3.org/2000/svg"><defs
     id="defs1"><linearGradient
       id="linearGradient3"><stop
         style="stop-color:#2a4397;stop-opacity:1;"
         offset="0"
         id="stop3" /><stop
         style="stop-color:#23aae1;stop-opacity:1;"
         offset="1"
         id="stop4" /></linearGradient><linearGradient
       id="linearGradient1"><stop
         style="stop-color:#f1552c;stop-opacity:1;"
         offset="0"
         id="stop1" /><stop
         style="stop-color:#ffc50c;stop-opacity:1;"
         offset="1"
         id="stop2" /></linearGradient><linearGradient
       xlink:href="#linearGradient1"
       id="linearGradient2"
       x1="67.421318"
       y1="197.55635"
       x2="67.421318"
       y2="62.713722"
       gradientUnits="userSpaceOnUse" /><linearGradient
       xlink:href="#linearGradient3"
       id="linearGradient4"
       x1="114.30397"
       y1="227.50627"
       x2="114.30397"
       y2="128.03621"
       gradientUnits="userSpaceOnUse" /></defs><g
     id="g4"
     transform="matrix(1.0973001,0,0,0.98359366,38,0)"
     style="stroke-width:0.962561"><path
       style="fill:url(#linearGradient2);fill-opacity:1;stroke-width:0.962561"
       d="m 133.78463,260.16868 c 0,-0.0558 0.23805,-0.16366 0.529,-0.23974 0.29095,-0.0761 0.52901,-0.0305 0.52901,0.1014 0,0.13186 -0.23806,0.23974 -0.52901,0.23974 -0.29095,0 -0.529,-0.0456 -0.529,-0.1014 z M 77.842439,258.13457 C 72.567973,256.98364 70.423887,256.44294 65.939844,255.133 63.257746,254.34948 55.587145,251.55591 53.375999,250.55736 43.951341,246.30121 38.121292,242.87394 32.072854,238.03402 17.140831,226.08548 5.2066959,206.44788 1.3014746,187.39975 c -1.07563326,-5.24648 -1.41722425,-9.33538 -1.26841381,-15.18256 0.15822045,-6.21671 0.23584068,-6.96938 1.14523341,-11.1045 0.8596925,-3.9092 2.1193362,-7.49372 3.7355209,-10.6301 1.2796737,-2.48335 4.2165122,-6.75543 4.4698329,-6.5021 0.0715,0.0715 -0.1472004,1.18122 -0.4860814,2.46599 -0.5289615,2.00549 -0.6163418,2.9721 -0.6176518,6.8325 -10e-4,3.93494 0.0764,4.76908 0.6225818,6.67868 0.343251,1.20018 0.713502,2.18214 0.822772,2.18214 0.109271,0 0.3825214,-0.62488 0.6072424,-1.38863 2.939838,-9.99205 7.147051,-16.79559 16.969769,-27.4421 0.603982,-0.65465 2.343447,-2.61763 3.865481,-4.3622 1.522025,-1.74456 3.140939,-3.58947 3.597591,-4.09978 3.66698,-4.09796 9.067099,-11.62384 10.724674,-14.94646 2.033146,-4.07544 3.933851,-9.48227 4.835104,-13.754107 0.245541,-1.163814 0.551502,-2.595908 0.679912,-3.182439 0.917843,-4.192233 0.994373,-16.708869 0.13318,-21.783874 -0.2318,-1.365994 -0.364851,-2.540227 -0.295661,-2.609417 0.271261,-0.271261 3.564341,3.934341 5.334176,6.81231 1.300143,2.114186 3.494799,6.640139 4.424922,9.125326 0.381121,1.018333 1.081373,3.33934 1.556114,5.157785 0.815943,3.125469 0.862323,3.55218 0.847983,7.802813 -0.0164,4.873733 -0.424312,7.166383 -2.188137,12.299353 -0.424891,1.23654 -0.852352,2.48632 -0.949902,2.77727 -0.455942,1.36 0.904982,-1.45378 2.554477,-5.28152 2.873058,-6.66714 5.954097,-14.783168 7.483882,-19.713932 0.383641,-1.236544 0.978723,-3.140959 1.322414,-4.232032 1.965675,-6.240248 4.290482,-17.303731 5.141224,-24.466441 0.155511,-1.309289 0.344981,-2.856634 0.421062,-3.438535 0.0761,-0.581902 0.20939,-3.617071 0.296261,-6.7448 0.13651,-4.915064 0.079,-6.314958 -0.423442,-10.31559 C 75.738203,30.985279 74.73367,26.279515 72.626454,19.440905 70.645068,13.010637 67.389658,5.6574854 64.956331,2.1160151 64.073069,0.83050141 63.725148,0 64.069879,0 c 0.0626,0 0.885262,0.35708004 1.828175,0.7935013 0.942903,0.4364313 1.775465,0.7935123 1.850145,0.7935123 0.358882,0 5.906558,3.3116396 7.992774,4.7712138 1.940305,1.357494 4.555863,3.3699698 5.143245,3.9573516 0.0727,0.0727 1.000812,0.938883 2.062396,1.924755 6.381128,5.926108 12.637786,14.550003 17.051602,23.503159 0.834424,1.692615 1.517154,3.151979 1.517154,3.243029 0,0.091 0.23048,0.670112 0.51216,1.286804 2.19146,4.797744 4.50679,12.310575 5.56251,18.049382 1.82174,9.902874 1.73163,22.761431 -0.24469,34.914286 -0.57064,3.509011 -2.26437,10.846236 -3.16376,13.705446 -2.60202,8.27187 -4.255804,12.86512 -6.541024,18.16706 -1.595004,3.70059 -3.43433,7.64801 -3.943891,8.46408 -0.227091,0.36369 -0.715162,1.31589 -1.084593,2.11601 -1.550075,3.3571 -5.588807,10.77719 -8.494105,15.60563 -2.082676,3.46126 -6.80908,10.38148 -13.548849,19.83766 -4.916965,6.89873 -8.033754,11.74347 -11.826335,18.38289 -1.333804,2.335 -3.455499,6.99141 -4.519532,9.91883 -4.428633,12.18424 -4.041241,23.25694 1.203674,34.40502 1.116643,2.37343 3.284428,6.17208 3.76235,6.59281 0.0826,0.0727 0.345631,0.43989 0.584441,0.8159 1.694145,2.66735 6.84244,8.11137 10.26591,10.85559 2.112576,1.69343 6.308218,4.46373 8.001173,5.28304 0.520836,0.25205 2.816354,1.40544 -0.19837,0.74761 z"
       id="path1-2" /><path
       style="fill:url(#linearGradient4);fill-opacity:1;stroke-width:0.962561"
       d="m 133.78462,260.16866 c 0,-0.0558 0.23806,-0.16366 0.52901,-0.23974 0.29095,-0.0761 0.52901,-0.0305 0.52901,0.1014 0,0.13186 -0.23806,0.23974 -0.52901,0.23974 -0.29095,0 -0.52901,-0.0456 -0.52901,-0.1014 z m -49.245187,-2.26322 c -0.191921,-0.31053 -1.432774,-1.39118 -2.757458,-2.40143 -2.354637,-1.79576 -3.338079,-2.7539 -5.567124,-5.4239 -4.469472,-5.35364 -7.941092,-11.88174 -9.842747,-18.50853 -2.019076,-7.03596 -2.350557,-14.48055 -0.953963,-21.42467 2.232076,-11.0982 6.395248,-17.24555 19.965334,-29.48082 2.832298,-2.55371 11.505612,-11.13981 13.905079,-13.76526 6.851836,-7.49718 11.749116,-13.53569 16.410266,-20.23442 7.1067,-10.21332 13.49641,-25.86738 15.56014,-38.12058 0.67019,-3.97918 1.20402,-10.065215 1.0294,-11.73586 -0.17771,-1.700215 -0.089,-1.856185 0.63663,-1.118863 3.98965,4.054151 10.34764,15.044823 13.03993,22.541333 3.69667,10.29312 5.20708,19.66644 4.92282,30.54999 -0.0836,3.20048 -0.21511,6.35466 -0.29227,7.00931 -0.31044,2.63368 -1.25589,8.86106 -1.37442,9.05285 -0.21132,0.34193 0.12451,0.23621 1.56662,-0.49315 2.97988,-1.5071 7.05603,-5.11735 9.11773,-8.0756 0.93109,-1.33599 2.4449,-4.37848 2.44524,-4.91452 1.1e-4,-0.18184 0.11923,-0.33063 0.26472,-0.33063 0.14547,0 0.2645,0.0684 0.2645,0.152 0,0.0836 0.25287,2.13679 0.56194,4.56266 0.44558,3.4974 0.56866,5.97155 0.59438,11.94898 0.0179,4.14607 -0.0515,8.431 -0.15403,9.52208 -0.31407,3.34126 -0.98845,8.78784 -1.26087,10.18332 -0.14201,0.72739 -0.31211,1.64726 -0.37801,2.04416 -0.0659,0.3969 -0.36273,1.7062 -0.65963,2.90952 -0.2969,1.20333 -0.66682,2.78301 -0.82205,3.51039 -0.44718,2.09546 -2.6276,8.75475 -3.7673,11.50584 -5.38912,13.0086 -13.29649,23.48057 -23.95585,31.72546 -8.91879,6.8986 -19.09842,11.91757 -31.39082,15.47698 -2.975908,0.86171 -4.056521,1.07595 -4.323561,0.85718 -0.606012,-0.49648 -3.094819,-3.91413 -4.468393,-6.13604 -1.864765,-3.01647 -3.841051,-7.53029 -4.738743,-10.82319 -3.066149,-11.24724 -1.824045,-22.97862 3.51691,-33.21641 l 1.172903,-2.24826 -1.001853,1.17387 c -0.551021,0.64563 -1.537464,1.79097 -2.192106,2.54517 -2.585187,2.97838 -6.007407,9.56122 -7.795422,14.99495 -3.875199,11.77664 -3.256099,22.75251 1.888935,33.4881 0.792003,1.65259 1.381974,3.06273 1.311054,3.13366 -0.0709,0.0709 -0.285971,-0.12513 -0.477911,-0.43567 z"
       id="path1" /></g></svg>
