<?xml version="1.0" encoding="UTF-8" standalone="no"?>
<!-- Created with Inkscape (http://www.inkscape.org/) -->

<svg
   width="328.08301mm"
   height="68.759003mm"
   viewBox="0 0 328.08301 68.759003"
   version="1.1"
   id="svg1"
   xml:space="preserve"
   xmlns="http://www.w3.org/2000/svg"
   xmlns:svg="http://www.w3.org/2000/svg"><defs
     id="defs1" /><path
     id="path40"
     style="fill:#ee2738;fill-opacity:1"
     d="m 320.4104,10.520847 c -4.64664,-1.3204104 -5.13931,-7.7909404 -0.76319,-10.02347043 1.80618,-0.92145 4.48084,-0.52686 6.02001,0.88811003 1.45149,1.33438 2.04984,4.20875 1.26592,6.08129 -0.48438,1.15704 -2.29567,2.7392304 -3.52745,3.0812704 -1.19462,0.33173 -1.74992,0.32669 -2.99529,-0.0272 z m 3.91358,-1.4559304 c 2.00954,-1.48849 2.56485,-4.28638 1.23821,-6.2387 -1.94304,-2.85944003 -6.11764,-2.46814003 -7.56047,0.70866 -0.65025,1.43172 -0.62582,2.44095 0.0936,3.86625 0.82727,1.63902 2.24122,2.428 4.11201,2.29451 0.85644,-0.0611 1.67829,-0.306 2.11667,-0.63072 z m -4.44274,-3.9516 v -2.5434 l 1.88092,0.10628 c 1.46293,0.0827 1.96272,0.21814 2.24896,0.6096 0.52477,0.71765 0.455,1.63812 -0.17166,2.26478 l -0.53969,0.53969 0.55771,0.78322 0.55771,0.78323 h -0.75472 c -0.558,0 -0.87694,-0.2069 -1.22361,-0.79375 -0.25788,-0.43656 -0.64074,-0.79375 -0.85079,-0.79375 -0.24796,0 -0.38192,0.2784 -0.38192,0.79375 0,0.67028 -0.10289,0.79375 -0.66146,0.79375 -0.65968,0 -0.66145,-0.007 -0.66145,-2.5434 z m 2.8703,-0.072 c 0.6577,-0.41681 0.23581,-1.21447 -0.68966,-1.30393 -0.79863,-0.0772 -0.85773,-0.0271 -0.85773,0.72761 0,0.66534 0.10663,0.80978 0.59531,0.80646 0.32743,-0.002 0.75586,-0.10579 0.95208,-0.23014 z" /><path
     id="path38"
     style="fill:#ee2738;fill-opacity:1"
     d="m 272.06341,39.737447 c 0.0567,-0.10914 5.31945,-8.74117 11.69513,-19.18229 L 295.35067,1.5712966 h 4.28804 4.28803 l 11.81371,19.0538504 c 6.49754,10.47961 11.8137,19.11164 11.8137,19.18229 0,0.0707 -2.2429,0.12845 -4.98421,0.12845 h -4.98422 l -1.94966,-3.30955 -1.94965,-3.30954 -14.29894,0.0684 -14.29894,0.0684 -1.71979,3.23481 -1.71979,3.2348 -4.84427,0.006 c -2.66434,0.003 -4.79791,-0.083 -4.74127,-0.19209 z m 36.70533,-14.26799 c 0,-0.31302 -9.3427,-15.16691 -9.53958,-15.16691 -0.19284,0 -8.80328,14.04362 -9.12497,14.88282 -0.16698,0.43562 0.37991,0.46302 9.24353,0.46302 5.18156,0 9.42102,-0.0805 9.42102,-0.17893 z" /><path
     style="fill:#ee2738;fill-opacity:1"
     d="M 210.07916,21.018177 V 2.1004666 h 5.41228 5.41228 l 11.03253,11.7078104 c 13.73796,14.57884 14.92206,15.80886 15.2188,15.80886 0.14101,0 0.21052,-5.66375 0.16887,-13.7584 l -0.0708,-13.7583904 4.16719,6e-5 4.16719,6e-5 v 18.9177104 18.91771 l -5.75469,-10e-4 -5.75469,-0.001 -12.69634,-13.49235 c -6.98299,-7.42079 -12.78729,-13.49234 -12.89844,-13.49234 -0.11115,0 -0.20209,6.07218 -0.20209,13.49375 v 13.49375 h -4.10104 -4.10104 z"
     id="path37" /><path
     id="path35"
     style="fill:#ee2738;fill-opacity:1"
     d="m 138.90624,39.822337 c 0,-0.0624 5.22932,-8.66471 11.6207,-19.11615 l 11.62071,-19.0026004 4.32461,-0.0723 4.32461,-0.0723 11.76979,18.9683204 c 6.47338,10.43257 11.80948,19.06736 11.85798,19.18841 0.0485,0.12105 -2.16607,0.22009 -4.92129,0.22009 h -5.00948 l -1.95788,-3.24115 -1.95788,-3.24115 -14.22384,-0.0684 -14.22384,-0.0685 -0.53191,0.8622 c -0.29255,0.47421 -1.0951,1.96298 -1.78345,3.30838 l -1.25154,2.44619 -4.82864,10e-4 c -2.65576,6.6e-4 -4.82865,-0.0499 -4.82865,-0.11234 z m 37.30625,-14.26751 c 0,-0.2826 -9.43628,-15.08857 -9.65739,-15.15291 -0.19814,-0.0577 -8.85614,13.86884 -9.34851,15.03719 -0.0485,0.1151 4.20798,0.20928 9.45885,0.20928 5.25088,0 9.54705,-0.0421 9.54705,-0.0936 z" /><path
     style="fill:#ee2738;fill-opacity:1"
     d="M 71.702081,21.018177 V 2.1004666 l 5.093229,0.01 5.093229,0.01 7.767843,13.7484104 c 4.272314,7.56163 7.799483,13.74842 7.838152,13.74842 0.03867,0 3.567826,-6.19045 7.842576,-13.75656 l 7.77226,-13.7565504 4.96094,-0.002 4.96094,-0.002 v 18.9177104 18.91771 l -3.77032,7e-5 -3.77031,7e-5 0.0713,-12.32698 c 0.0528,-9.11505 -0.007,-12.30085 -0.22936,-12.22674 -0.16538,0.0551 -3.40698,5.60224 -7.20354,12.32691 l -6.90284,12.22667 h -3.460132 -3.460162 l -7.266598,-12.17084 c -3.996629,-6.69396 -7.35608,-12.17083 -7.465446,-12.17083 -0.109366,0 -0.198847,5.47687 -0.198847,12.17083 v 12.17084 h -3.836458 -3.836458 z"
     id="path34" /><path
     id="path32"
     style="fill:#ee2738;fill-opacity:1"
     d="m 0.844899,38.924777 c 0.33567,-0.55611 5.610934,-9.18946 11.722809,-19.18522 l 11.112499,-18.1741104 4.339003,0.0691 4.339002,0.0691 2.701089,4.36563 c 1.485599,2.40109 6.817405,11.0033604 11.848457,19.1161504 l 9.147368,14.75052 -5.07496,-0.006 -5.07496,-0.006 -1.949227,-3.30391 -1.949228,-3.3039 -14.299184,0.0684 -14.299183,0.0684 -1.716586,3.24115 -1.716586,3.24115 H 5.104901 0.23459 Z m 36.196766,-13.51994 c 0,-0.34596 -9.261951,-15.10247 -9.478418,-15.1014 -0.181913,9.1e-4 -9.306998,14.88747 -9.306998,15.18333 0,0.0889 4.226719,0.16162 9.392708,0.16162 5.544514,0 9.392708,-0.0998 9.392708,-0.24355 z" /><path
     style="fill:#000000"
     d="m 301.62499,61.764447 v -6.48229 h 0.879 c 0.85157,0 0.97643,0.1529 4.00065,4.89889 1.7169,2.69439 3.22635,4.9636 3.35432,5.0427 0.13076,0.0808 0.23269,-2.06528 0.23269,-4.89889 v -5.0427 h 0.79375 0.79375 v 6.48229 6.48229 l -0.85989,-0.002 c -0.82468,-0.002 -0.98993,-0.2037 -4.0349,-4.91769 -1.74625,-2.70341 -3.2643,-4.97154 -3.37344,-5.0403 -0.10914,-0.0688 -0.19843,2.1442 -0.19843,4.91769 v 5.04269 h -0.79375 -0.79375 z"
     id="path31" /><path
     style="fill:#000000"
     d="m 293.95207,61.764447 v -6.48229 h 0.92604 0.92604 v 6.48229 6.48229 h -0.92604 -0.92604 z"
     id="path30" /><path
     style="fill:#000000"
     d="m 278.07707,61.764447 v -6.48229 h 0.89906 c 0.87803,0 0.97547,0.11909 4.16718,5.09323 l 3.26814,5.09323 0.0718,-5.09323 0.0719,-5.09323 h 0.78804 0.78804 v 6.48229 6.48229 l -0.8599,-0.0128 c -0.81996,-0.0122 -0.99507,-0.22354 -3.77031,-4.55017 -4.23571,-6.60354 -3.84494,-6.54859 -3.76869,-0.52997 l 0.0645,5.09352 -0.85989,-2.9e-4 -0.8599,-3e-4 z"
     id="path29" /><path
     style="fill:#000000"
     d="m 254.39686,61.764237 v -6.48227 l 0.8599,10e-5 0.85989,9e-5 v 6.48229 6.48229 l -0.85989,-1.1e-4 -0.8599,-1.2e-4 z"
     id="path28" /><path
     style="fill:#000000"
     d="m 243.68124,62.425907 v -5.82083 h -2.11667 c -2.08139,0 -2.11667,-0.011 -2.11667,-0.66146 v -0.66146 h 5.15938 5.15937 v 0.66146 c 0,0.65043 -0.0353,0.66146 -2.11666,0.66146 h -2.11667 v 5.82083 5.82083 h -0.92604 -0.92604 z"
     id="path27" /><path
     style="fill:#000000"
     d="m 233.09791,61.764447 v -6.48229 h 0.79375 0.79375 v 6.48229 6.48229 h -0.79375 -0.79375 z"
     id="path26" /><path
     id="path24"
     style="fill:#000000"
     d="m 217.22291,61.764447 v -6.53543 l 3.37343,0.10051 c 3.64368,0.10856 4.45817,0.35497 5.75462,1.74098 1.57986,1.68901 1.90775,5.9819 0.63302,8.28792 -0.34812,0.62976 -1.14905,1.5075 -1.77985,1.95052 -1.11161,0.78072 -1.25204,0.80835 -4.56406,0.89822 l -3.41716,0.0927 z m 6.51514,4.61431 c 1.5641,-0.75717 2.25516,-2.2216 2.24714,-4.7619 -0.0112,-3.53506 -1.24471,-4.76689 -4.96924,-4.96238 l -2.20554,-0.11576 v 5.19255 5.19256 h 1.90084 c 1.37856,0 2.2102,-0.14977 3.0268,-0.54507 z" /><path
     style="fill:#000000"
     d="m 201.34791,61.764447 v -6.48229 l 0.85989,7.3e-4 c 0.82798,7.1e-4 0.97775,0.18682 4.0349,5.01405 1.74625,2.75732 3.26429,5.01918 3.37343,5.02635 0.10915,0.007 0.19844,-2.24915 0.19844,-5.01405 v -5.02708 h 0.79375 0.79375 v 6.48229 6.48229 h -0.87004 c -0.83916,0 -0.98713,-0.1806 -4.16719,-5.08609 l -3.29714,-5.08608 -0.0719,5.08608 -0.0719,5.08609 h -0.78804 -0.78803 z"
     id="path23" /><path
     id="path21"
     style="fill:#000000"
     d="m 147.90207,61.764447 v -6.48229 l 2.97657,0.006 c 3.4631,0.007 4.9137,0.47582 5.60485,1.81234 0.85475,1.65292 0.37037,3.9416 -1.05379,4.97902 l -0.68928,0.50211 1.32607,2.83265 1.32607,2.83265 h -0.92733 c -0.91703,0 -0.94085,-0.0294 -2.14526,-2.64583 l -1.21794,-2.64583 h -1.80623 -1.80623 v 2.64583 2.64583 h -0.79375 -0.79375 z m 6.35807,-0.66577 c 0.27635,-0.1479 0.63487,-0.71345 0.79673,-1.25677 0.63568,-2.13389 -0.67245,-3.23683 -3.83901,-3.23683 h -1.72829 v 2.38125 2.38125 h 2.13406 c 1.17374,0 2.36017,-0.12101 2.63651,-0.2689 z" /><path
     style="fill:#000000"
     d="m 140.22916,61.764447 v -6.48229 h 0.92604 0.92604 v 6.48229 6.48229 h -0.92604 -0.92604 z"
     id="path20" /><path
     id="path18"
     style="fill:#000000"
     d="m 124.06838,67.651427 c 0.2919,-0.7546 4.52961,-11.58979 4.71381,-12.05251 0.0853,-0.21421 0.48315,-0.31436 1.05107,-0.26458 l 0.91384,0.0801 1.85273,4.7625 c 1.01899,2.61938 2.13509,5.50664 2.48021,6.41615 l 0.62749,1.65364 h -0.89104 c -0.84932,0 -0.92058,-0.0774 -1.52198,-1.65364 l -0.63095,-1.65365 -2.91226,-0.0743 -2.91225,-0.0743 -0.61003,1.72797 c -0.5876,1.66444 -0.64276,1.72797 -1.50048,1.72797 -0.81527,0 -0.87101,-0.0503 -0.66016,-0.59531 z m 7.82792,-4.89479 c -0.10307,-0.25466 -0.61028,-1.56994 -1.12714,-2.92284 -0.51686,-1.3529 -1.0262,-2.36493 -1.13186,-2.24896 -0.18027,0.19786 -2.10814,5.23554 -2.10814,5.50874 0,0.0693 1.02477,0.12608 2.27726,0.12608 2.06383,0 2.25971,-0.0434 2.08988,-0.46302 z" /><path
     style="fill:#000000"
     d="m 65.087498,61.764447 v -6.48229 h 0.88784 c 0.863193,0 0.974497,0.13615 4.009489,4.90436 1.716908,2.69739 3.22238,4.96661 3.345494,5.04269 0.123113,0.0761 0.223843,-2.13087 0.223843,-4.90435 v -5.0427 h 0.79375 0.79375 v 6.48229 6.48229 l -0.859896,-0.002 c -0.824679,-0.002 -0.989927,-0.2037 -4.034896,-4.91769 -1.74625,-2.70341 -3.264296,-4.97154 -3.373437,-5.0403 -0.109141,-0.0688 -0.198437,2.1442 -0.198437,4.91769 v 5.04269 h -0.79375 -0.79375 z"
     id="path17" /><path
     style="fill:#000000"
     d="m 56.885414,61.764447 v -6.48229 h 0.79375 0.79375 v 6.48229 6.48229 h -0.79375 -0.79375 z"
     id="path16" /><path
     style="fill:#000000"
     d="m 46.302081,62.425907 v -5.82083 h -2.116666 c -2.081389,0 -2.116667,-0.011 -2.116667,-0.66146 v -0.66146 h 5.159375 5.159375 v 0.66146 c 0,0.65043 -0.03528,0.66146 -2.116667,0.66146 h -2.116666 v 5.82083 5.82083 h -0.926042 -0.926042 z"
     id="path15" /><path
     id="path13"
     style="fill:#000000"
     d="m 28.310415,68.169287 c 0,-0.0426 1.108887,-2.92987 2.464193,-6.41615 l 2.464192,-6.33869 0.926256,-0.0792 0.926256,-0.0792 2.529652,6.50933 2.529651,6.50934 -0.947782,-0.0802 c -0.898737,-0.076 -0.980375,-0.16572 -1.577621,-1.73379 l -0.629838,-1.65401 h -2.863433 -2.863432 l -0.616785,1.71979 c -0.587697,1.63869 -0.65745,1.71979 -1.479047,1.71979 -0.474244,0 -0.862262,-0.0348 -0.862262,-0.0774 z m 7.049652,-7.85651 c -0.60309,-1.59879 -1.156058,-2.90778 -1.228819,-2.90888 -0.1361,-0.002 -2.121018,5.26175 -2.118225,5.61732 8.57e-4,0.10914 1.001011,0.19844 2.222565,0.19844 h 2.221005 z" /><path
     style="fill:#000000"
     d="m 15.874999,61.771007 v -6.48885 h 4.233333 4.233334 v 0.65355 0.65356 l -3.373438,0.074 -3.373437,0.074 -0.07728,2.05052 -0.07727,2.05052 h 3.335995 3.335996 l -0.08372,0.7276 -0.08372,0.72761 -3.241146,0.0743 -3.241146,0.0743 v 2.24081 2.24082 h 3.590277 c 3.571913,0 3.589844,0.003 3.505729,0.59531 -0.08322,0.58599 -0.151892,0.59645 -4.384027,0.66801 l -4.299479,0.0727 z"
     id="path12" /><path
     style="fill:#000000"
     d="m 0,61.764007 v -6.48229 h 0.926041 0.926042 v 2.77813 2.77812 h 3.307291 3.307292 v -2.77812 -2.77813 h 0.79375 0.79375 v 6.48229 6.48229 h -0.79375 -0.79375 v -2.91041 -2.91042 H 5.159374 1.852083 v 2.91042 2.91041 H 0.926041 0 Z"
     id="path11" /><path
     style="fill:#000000"
     d="m 321.12579,68.398537 c -2.36487,-0.63589 -3.88173,-2.76363 -4.09577,-5.74522 -0.35297,-4.91699 2.07141,-7.82966 6.31737,-7.58974 2.08612,0.11787 2.9494,0.61452 3.87168,2.22739 0.75591,1.32191 0.75237,1.34786 -0.20281,1.48805 -0.70039,0.1028 -0.85639,0.004 -1.2263,-0.77537 -0.91999,-1.93874 -3.81399,-2.25089 -5.52183,-0.59559 -1.14136,1.10625 -1.52139,2.25177 -1.50704,4.54275 0.0143,2.2903 0.81799,4.04817 2.17435,4.75603 1.14533,0.59773 3.08689,0.61962 4.50845,0.0508 l 1.07544,-0.43031 -0.0779,-1.62021 -0.0779,-1.62021 -1.65365,-0.0788 c -1.5575,-0.0742 -1.65364,-0.1165 -1.65364,-0.72761 0,-0.64319 0.0219,-0.64883 2.51354,-0.64883 h 2.51354 v 2.62782 c 0,2.59291 -0.0101,2.63501 -0.7613,3.16991 -0.78415,0.55836 -3.43162,1.35979 -4.38752,1.32816 -0.29685,-0.01 -1.11077,-0.1714 -1.80871,-0.35907 z"
     id="path10" /><path
     id="path8"
     style="fill:#000000"
     d="m 265.50936,68.385387 c -0.99502,-0.26653 -1.59305,-0.65245 -2.41281,-1.55704 -1.25061,-1.38002 -1.69388,-2.76741 -1.67662,-5.24765 0.0285,-4.10024 2.25182,-6.55194 5.94152,-6.55194 1.96922,0 3.46504,0.64286 4.54535,1.95347 1.03257,1.25268 1.40777,2.54038 1.40777,4.83149 0,3.49836 -1.39734,5.77674 -4.02068,6.55579 -1.62043,0.48121 -2.04076,0.48298 -3.78453,0.0159 z m 4.02423,-1.7172 c 1.37538,-0.83861 2.03536,-2.4188 2.04828,-4.90418 0.01,-1.83769 -0.0838,-2.27813 -0.70823,-3.34174 -1.16092,-1.97743 -3.25538,-2.57395 -5.39713,-1.53715 -1.61346,0.78107 -2.34212,2.35495 -2.32003,5.01118 0.0288,3.45917 1.48391,5.28969 4.20497,5.28969 0.84755,0 1.62806,-0.18606 2.17214,-0.5178 z" /><path
     id="path6"
     style="fill:#000000"
     d="m 188.71024,68.516437 c -2.802,-0.66461 -4.40972,-3.14154 -4.38285,-6.75243 0.0322,-4.32743 2.19159,-6.73525 6.04031,-6.73525 3.68318,0 5.95312,2.56589 5.95312,6.72928 0,4.79276 -3.35117,7.76869 -7.61058,6.7584 z m 3.63937,-1.81936 c 1.42172,-0.76248 2.11913,-2.33766 2.11913,-4.78633 0,-3.57488 -1.43458,-5.4384 -4.18659,-5.4384 -2.87134,0 -4.14779,1.66918 -4.14779,5.42395 0,2.57244 0.46518,3.68023 1.97167,4.69546 1.10844,0.74698 2.96138,0.79297 4.24358,0.10532 z" /><path
     style="fill:#000000"
     d="m 172.53888,68.393187 c -2.55311,-0.82896 -3.86926,-3.08761 -3.86367,-6.63042 0.006,-3.89437 1.91248,-6.43247 5.02523,-6.69061 2.01604,-0.16718 3.17916,0.11453 4.21012,1.01973 0.74487,0.65401 1.94874,2.81133 1.68644,3.02209 -0.0425,0.0341 -0.3924,0.13752 -0.77761,0.22977 -0.63108,0.15113 -0.76201,0.0435 -1.32292,-1.08726 -0.50275,-1.01351 -0.82856,-1.32621 -1.69336,-1.62522 -1.48151,-0.51222 -2.90852,-0.20124 -3.9763,0.86655 -2.05221,2.0522 -1.91745,6.88021 0.2477,8.87446 0.89967,0.82866 3.14784,1.06766 4.32361,0.45964 0.72704,-0.37597 1.66645,-1.80116 1.66645,-2.52821 0,-0.15991 0.37277,-0.29074 0.82837,-0.29074 0.80303,0 0.82365,0.0291 0.6741,0.95064 -0.44609,2.74898 -3.91334,4.44091 -7.02816,3.42958 z"
     id="path5" /><path
     id="path2"
     style="fill:#000000"
     d="m 106.15868,68.524497 c -2.02769,-0.32825 -3.22451,-1.6364 -3.23187,-3.53248 -0.005,-1.29761 0.52926,-2.30617 1.73349,-3.27223 l 0.96577,-0.77477 -0.55684,-0.91342 c -1.38355,-2.26953 -0.22841,-4.74988 2.2121,-4.74988 1.65838,0 2.67023,0.56932 3.0484,1.71519 0.53127,1.60978 -0.12919,2.81516 -2.34612,4.28181 -0.19471,0.12882 2.94099,3.51956 3.14069,3.39614 0.11232,-0.0694 0.28479,-0.66346 0.38325,-1.32009 0.15598,-1.04015 0.26213,-1.19388 0.82428,-1.19388 0.77939,0 0.83885,0.60063 0.25124,2.53763 -0.50763,1.67335 -0.53113,1.52764 0.42142,2.61254 l 0.82116,0.93524 h -0.91245 c -0.56311,0 -1.08809,-0.19409 -1.37126,-0.50698 -0.4508,-0.49814 -0.47526,-0.49583 -1.40084,0.13229 -0.51812,0.3516 -1.21333,0.63928 -1.54493,0.63928 -0.33159,0 -0.76146,0.0442 -0.95526,0.0983 -0.19381,0.0541 -0.86081,0.016 -1.48223,-0.0846 z m 2.69356,-1.44182 c 0.48688,-0.20344 0.96944,-0.50612 1.07234,-0.67262 0.10749,-0.17392 -0.46253,-1.05799 -1.33949,-2.07752 -0.83963,-0.97613 -1.61169,-1.8759 -1.71567,-1.9995 -0.33807,-0.40181 -1.32497,0.11964 -1.84711,0.97595 -0.94997,1.55795 -0.46286,3.26695 1.0825,3.7979 1.22236,0.41997 1.69429,0.41581 2.74743,-0.0242 z m -0.65796,-7.45885 c 1.38051,-1.16163 0.95394,-3.28378 -0.66006,-3.28378 -0.79334,0 -1.70089,0.86568 -1.70089,1.62242 0,0.62322 0.97247,2.34633 1.3242,2.34633 0.12248,0 0.58902,-0.30824 1.03675,-0.68497 z" /><path
     style="fill:#000000"
     d="m 84.588305,68.398537 c -2.36487,-0.63589 -3.881736,-2.76363 -4.095774,-5.74522 -0.241082,-3.35833 1.000913,-6.12383 3.19827,-7.12145 1.326883,-0.60242 3.787821,-0.67352 5.050524,-0.14593 0.90888,0.37975 2.083335,1.71377 2.38485,2.70886 0.14458,0.47715 0.04508,0.58259 -0.645444,0.68393 -0.718996,0.10553 -0.859474,0.0167 -1.177711,-0.74498 -0.780131,-1.86712 -3.836426,-2.27973 -5.475062,-0.73916 -1.178383,1.10786 -1.542544,2.1824 -1.542544,4.5516 0,2.51743 0.682887,4.08062 2.119133,4.85089 1.134967,0.60869 3.067019,0.63469 4.501853,0.0606 l 1.075445,-0.43031 -0.0779,-1.62021 -0.0779,-1.62021 -1.653645,-0.0788 c -1.557505,-0.0742 -1.653646,-0.1165 -1.653646,-0.72761 0,-0.64319 0.02186,-0.64883 2.513541,-0.64883 h 2.513542 v 2.62782 c 0,2.59291 -0.01011,2.63501 -0.7613,3.16991 -0.784153,0.55836 -3.43162,1.35979 -4.387518,1.32816 -0.296848,-0.01 -1.110766,-0.1714 -1.808707,-0.35907 z"
     id="path1" /></svg>
