<?xml version="1.0" encoding="UTF-8" standalone="no"?>
<svg
   width="2426.4751"
   height="765.28101"
   viewBox="0 0 187.08705 59.005002"
   version="1.1"
   id="svg6"
   xmlns="http://www.w3.org/2000/svg"
   xmlns:svg="http://www.w3.org/2000/svg">
  <defs
     id="defs6" />
  <path
     id="path2"
     d="m 60.853973,50.908065 c -2.147,0 -3.303959,1.32201 -3.303959,4.03101 0,2.742 1.156959,4.06399 3.303959,4.06399 2.147,0 3.304109,-1.32199 3.304109,-4.06399 0,-2.709 -1.157109,-4.03101 -3.304109,-4.03101 z m 39.545097,0 c -0.857995,0 -1.520015,0.26599 -1.981015,0.76199 -0.628,0.66 -0.89301,1.74993 -0.89301,3.16993 0,1.816 0.36299,2.84201 0.92599,3.46901 0.527,0.529 1.25404,0.69497 1.948035,0.69497 1.12301,0 2.54392,-0.62902 2.64392,-3.14102 l -2.18297,-0.0309 c -0.032,1.189 -0.13193,1.61689 -0.49393,1.61689 -0.331,0 -0.529025,-0.59391 -0.529025,-2.47691 0,-1.883 0.198005,-2.51005 0.562005,-2.51005 0.297,0 0.39601,0.39505 0.46201,1.55305 l 2.11489,-0.0351 c -0.065,-2.51 -1.4209,-3.0719 -2.5769,-3.0719 z m 31.15193,0 c -0.792,0 -1.387,0.199 -1.783,0.562 -0.463,0.363 -0.66004,0.89288 -0.66004,1.48588 0,0.66 0.23011,1.22304 0.46111,1.55304 0.266,0.396 0.6939,0.82596 1.0579,1.12296 0.363,0.266 0.59503,0.46299 0.76003,0.66199 0.165,0.197 0.29802,0.39505 0.29802,0.72705 0,0.098 -0.033,0.22997 -0.066,0.29697 -0.032,0.066 -0.133,0.13101 -0.231,0.13101 -0.23,0 -0.2971,-0.26401 -0.3301,-0.79301 h -2.14697 c 0.033,1.389 0.76,2.34801 2.576,2.34801 0.926,0 1.52102,-0.29897 1.91702,-0.69497 0.43,-0.461 0.59499,-1.09 0.59499,-1.619 0,-0.725 -0.32999,-1.25405 -0.59499,-1.61705 -0.265,-0.332 -0.59498,-0.596 -0.92598,-0.893 -0.297,-0.232 -0.429,-0.32993 -0.726,-0.59393 -0.299,-0.266 -0.39695,-0.52901 -0.39695,-0.79301 0,-0.066 -4e-5,-0.19906 0.066,-0.23206 a 0.181,0.181 0 0 1 0.16595,-0.0979 c 0.198,0 0.26398,0.22989 0.26398,0.65989 h 2.04608 c -0.033,-1.289 -0.72705,-2.21489 -2.34605,-2.21489 z m -116.321921,9e-4 c -2.278,0 -3.336034,1.38908 -3.336034,3.93208 0,2.479 0.727034,4.16398 3.336034,4.16398 1.388,0 2.511015,-0.66204 2.974015,-1.32204 v -3.00699 h -2.874023 v 1.55304 h 0.760031 v 1.05699 c -0.132,0.1 -0.42914,0.19698 -0.82614,0.19698 -0.693,0 -1.056995,-0.69303 -1.056995,-2.54303 0,-1.883 0.496112,-2.51004 1.023112,-2.51004 0.364,0 0.528922,0.29711 0.693922,1.35411 l 2.246963,-0.1661 c -0.364,-1.684 -1.387885,-2.70898 -2.940885,-2.70898 z m -14.9970189,0.13207 v 7.82996 h 2.2459086 v -3.238 h 1.5530411 v 3.238 h 2.2790385 v -7.82996 H 4.0310098 v 3.03892 H 2.4779687 v -3.03892 z m 7.7629469,0 v 7.82996 h 2.312018 v -7.82996 z m 11.62906,0 v 7.82996 h 2.279942 v -3.238 h 1.553041 v 3.238 h 2.279038 v -7.82996 H 23.45705 v 3.03892 h -1.553041 v -3.03892 z m 11.56295,0 v 7.82996 h 2.246963 v -2.576 h 0.59408 c 1.817,0 3.006994,-0.82596 3.006994,-2.67796 0,-1.617 -0.925953,-2.576 -3.072953,-2.576 z m 7.136038,0 v 7.82996 h 4.724028 v -1.51901 h -2.444086 v -1.71899 h 1.750014 v -1.52006 h -1.750014 v -1.51886 h 2.411107 v -1.55304 z m 6.112022,0 v 7.82996 h 2.245908 v -2.77493 h 0.26504 l 1.189064,2.77493 h 2.576906 l -1.850006,-3.13906 c 0.727,-0.23 1.42007,-0.82592 1.42007,-2.14592 0,-2.148 -1.816966,-2.54498 -3.203966,-2.54498 z m 7.333914,0 v 7.82996 h 2.279038 v -3.13906 h 1.684959 v -1.55199 h -1.684959 v -1.58587 h 2.312018 v -1.55304 z m 13.741997,0 v 7.82996 h 2.280092 v -2.77493 h 0.263986 l 1.155933,2.77493 h 2.610037 l -1.881931,-3.13906 c 0.727,-0.23 1.419919,-0.82592 1.419919,-2.14592 0,-2.148 -1.78402,-2.54498 -3.20502,-2.54498 z m 7.269009,0 v 7.82996 h 1.982978 c 0,-2.842 -0.03396,-4.75799 -0.06596,-5.91399 h 0.06596 c 0.165,1.156 0.561104,3.07199 1.123104,5.91399 h 2.146971 c 0.595,-2.906 0.924954,-4.75799 1.122954,-5.91399 h 0.03298 c 0,1.156 -0.03298,3.04099 -0.03298,5.91399 h 1.982978 v -7.82996 h -3.336938 c -0.529,2.576 -0.69399,3.79897 -0.82599,5.15397 h -0.03298 c -0.132,-1.355 -0.330989,-2.54497 -0.825989,-5.15397 z m 11.167048,0 -1.751068,7.82996 h 2.312018 l 0.231006,-1.71899 h 1.487083 l 0.231006,1.71899 h 2.312921 l -1.750917,-7.82996 z m 5.94592,0 v 7.82996 h 2.016108 c 0,-2.445 -0.06699,-4.09803 -0.09999,-4.89103 h 0.06596 c 0.166,0.793 0.627953,2.44503 1.453953,4.89103 h 2.907001 v -7.82996 h -2.014903 c 0,2.445 0.06592,4.09793 0.131918,4.88893 h -0.06596 c -0.198,-0.791 -0.661028,-2.44293 -1.486028,-4.88893 z m 14.404135,0 v 7.82996 h 4.75686 v -1.51901 h -2.47691 v -1.71899 h 1.75001 v -1.52006 h -1.75001 v -1.51886 h 2.41005 v -1.55304 z m 10.07587,0 v 7.82996 h 2.27904 v -3.238 h 1.55395 v 3.238 h 2.27903 v -7.82996 h -2.27903 v 3.03892 h -1.55395 v -3.03892 z m 8.95201,0 -1.75091,7.82996 h 2.31201 l 0.23101,-1.71899 h 1.48799 l 0.231,1.71899 h 2.31202 l -1.75107,-7.82996 z m 17.147,0 -1.71793,7.82996 h 2.31201 l 0.23101,-1.71899 h 1.45501 l 0.26398,1.71899 h 2.31292 l -1.75091,-7.82996 z m 9.94501,0 v 7.82996 h 2.01611 c 0,-2.445 -0.0651,-4.09803 -0.0991,-4.89103 h 0.0651 c 0.165,0.793 0.6269,2.44503 1.4529,4.89103 h 2.90806 v -7.82996 h -2.01596 c 0,2.445 0.0649,4.09793 0.13192,4.88893 h -0.066 c -0.165,-0.791 -0.66003,-2.44293 -1.48603,-4.88893 z m 9.21599,0 -1.75091,7.82996 h 2.31202 l 0.231,-1.71899 h 1.48799 l 0.22995,1.71899 h 2.31307 l -1.75107,-7.82996 z m 5.88102,0 v 7.82996 h 1.98207 c 0,-2.842 2e-5,-4.75799 -0.033,-5.91399 h 0.033 c 0.197,1.156 0.56201,3.07199 1.12401,5.91399 h 2.17995 c 0.595,-2.906 0.92498,-4.75799 1.08998,-5.91399 h 0.066 a 212.967,212.967 0 0 0 -0.066,5.91399 h 1.98297 v -7.82996 h -3.30395 c -0.529,2.576 -0.72797,3.79897 -0.85897,5.15397 h -0.033 c -0.132,-1.355 -0.33099,-2.54497 -0.82599,-5.15397 z m 9.84396,0 v 7.82996 h 4.72508 v -1.51901 h -2.44408 v -1.71899 h 1.75106 v -1.52006 h -1.75106 v -1.51886 h 2.4111 v -1.55304 z m 5.55107,0.033 v 0.562 h 0.46307 v 1.71704 h 0.82493 v -1.71704 h 0.46201 v -0.562 z m 1.88299,0 v 2.27904 h 0.76003 v -0.72705 -0.85897 c 0.066,0.33 0.13202,0.59597 0.19802,0.85897 l 0.16596,0.72705 h 0.89105 l 0.16595,-0.72705 a 5.68,5.68 0 0 0 0.16505,-0.85897 h 0.033 v 1.58602 h 0.76003 v -2.27904 h -1.25608 l -0.13192,0.62902 c -0.066,0.197 -0.099,0.4279 -0.16504,0.7269 -0.066,-0.299 -0.10006,-0.5289 -0.16505,-0.7269 l -0.13193,-0.62902 z m -97.358947,1.28996 h 0.09894 c 0.067,0.66 0.166061,1.15604 0.232061,1.61704 l 0.231006,1.65198 h -1.024017 l 0.231006,-1.65198 c 0.066,-0.461 0.165006,-0.92404 0.231006,-1.61704 z m 39.377947,0 h 0.1 c 0.065,0.66 0.16495,1.15604 0.22995,1.61704 l 0.26714,1.65198 h -1.05909 l 0.23206,-1.65198 c 0.065,-0.461 0.16495,-0.92404 0.22995,-1.61704 z m 17.17997,0 h 0.1 c 0.066,0.66 0.13211,1.15604 0.23011,1.61704 l 0.23296,1.65198 h -1.057 l 0.26399,-1.65198 z m 19.12908,0 h 0.0989 c 0.067,0.66 0.16606,1.15604 0.23206,1.61704 l 0.231,1.65198 h -1.02401 l 0.231,-1.65198 c 0.066,-0.461 0.16501,-0.92404 0.23101,-1.61704 z m -100.266097,0.066 c 0.562,0 0.991037,0.52702 0.991037,2.54302 0,1.949 -0.429037,2.51005 -0.991037,2.51005 -0.529,0 -0.990887,-0.56105 -0.990887,-2.51005 0,-2.016 0.461887,-2.54302 0.990887,-2.54302 z m -14.172988,0.16309 h 0.463067 c 0.562,0 0.825989,0.36296 0.825989,1.02296 0,0.695 -0.26501,0.99209 -0.79301,0.99209 h -0.496046 z m 21.07802,0 h 0.462012 c 0.595,0 0.825989,0.36296 0.825989,1.02296 0,0.695 -0.26401,0.99209 -0.79301,0.99209 h -0.494991 z m -34.325025,10e-4 h 0.528121 c 0.43,0 0.759881,0.19896 0.759881,1.02296 0,0.893 -0.264011,1.12296 -0.793011,1.12296 H 33.43398 Z"
     style="fill:#6d6e70;fill-opacity:1" />
  <path
     id="path5"
     d="M 32.740962,0 14.403993,26.428956 H 4.0310098 L 6.376007,34.820015 H 8.722058 L 0,47.241935 h 10.20899 l 8.193034,-12.42192 h 9.481035 l -1.915965,12.45505 h 14.767971 l 1.792782,-12.45309 h 7.159229 v -0.002 c 1.09,0 1.650925,0.19696 1.650925,1.12296 0,0.199 -0.03292,0.46296 -0.131918,0.85896 l -2.675995,7.66401 c -0.528,1.586 -0.759128,1.65209 -0.759128,2.04909 0,0.693 0.561097,0.76003 1.618097,0.76003 h 7.169017 c 1.619,0 1.618948,-0.066 2.510948,-2.27904 l 2.346051,-6.90398 c 0.693,-2.115 1.386996,-2.64497 2.675996,-2.64497 0.792,0 1.386939,0.36295 1.386939,1.05895 l -2.3459,7.96098 c -0.528,1.686 -0.660039,1.68593 -0.660039,2.04893 0,0.693 0.528,0.76003 1.619,0.76003 h 7.134984 c 1.817,0 1.850948,-0.26403 2.510948,-2.27903 l 2.37903,-6.90398 c 0.694,-2.115 1.386996,-2.64498 2.675996,-2.64498 0.793,0 1.320981,0.36296 1.320981,1.05896 l -2.344997,7.96112 c -0.529,1.686 -0.627963,1.68594 -0.627963,2.04894 0,0.693 0.52902,0.76003 1.58602,0.76003 h 7.333914 c 1.487,0 2.081012,10e-6 2.081012,-1.48799 0,-0.428 -0.09903,-0.76009 -0.429033,-1.38709 l 2.378127,-7.764 c 0.959,-2.906 1.288906,-3.962976 1.288906,-5.284976 0,-3.403 -2.708985,-5.648956 -6.739985,-5.648956 -2.411,0 -4.194966,0.82601 -6.441966,2.41201 -2.18,-1.817 -4.195025,-2.675995 -7.069025,-2.675995 -3.007,0 -5.12097,0.924956 -7.00397,2.410956 -0.43,-1.057 -0.727979,-1.453049 -1.651979,-1.453049 H 43.740703 L 47.541009,0 Z m -1.883889,15.724975 -1.915964,10.703981 h -5.220074 z m 74.861917,9.183016 c -6.244005,0 -13.247913,6.806046 -13.247913,16.419044 0,4.262 2.279922,6.57404 6.838918,6.57404 3.568005,0 6.376035,-1.42006 9.019035,-3.96506 l -0.72796,1.68692 c -0.33,0.693 -0.33009,0.85911 -0.33009,0.95911 0,0.594 0.46199,0.69302 1.38799,0.69302 h 7.96203 c 1.023,0 1.38709,-0.363 1.38709,-0.893 0,-0.33 -0.16501,-0.69305 -0.23101,-1.45305 l 5.08801,-15.593961 c 0.463,-1.453 0.562,-1.883121 0.562,-2.147121 0,-0.727 -0.52902,-0.79286 -1.58602,-0.79286 h -6.50898 c -1.486,0 -1.78303,0.164891 -2.27903,1.552891 -2.048,-1.917 -4.49307,-3.039973 -7.33407,-3.039973 z m 59.53208,0 c -6.244,0 -13.28104,6.806046 -13.28104,16.419044 0,4.262 2.31305,6.57404 6.87205,6.57404 3.568,0 6.3099,-1.42006 8.9859,-3.96506 l -0.69498,1.68692 c -0.297,0.693 -0.36398,0.85911 -0.36398,0.95911 0,0.594 0.52898,0.69302 1.42098,0.69302 h 7.995 c 1.024,0 1.388,-0.363 1.388,-0.893 0,-0.33 -0.16501,-0.69305 -0.23101,-1.45305 l 5.02099,-15.593961 c 0.49601,-1.453 0.62706,-1.883121 0.62706,-2.147121 0,-0.727 -0.52706,-0.79286 -1.58405,-0.79286 H 174.897 c -1.487,0 -1.85002,0.164891 -2.31201,1.552891 -2.081,-1.917 -4.49291,-3.039973 -7.33392,-3.039973 z m -21.3411,0.796022 c -2.411,0 -4.263,0.82601 -6.476,2.41201 l 0.098,-0.597092 c 0,-0.892 -0.265,-1.122954 -1.288,-1.122954 h -5.65001 c -1.981,0 -1.9809,-3.4e-5 -3.0719,3.203966 l -5.18705,14.867062 c -0.033,0.166 -0.62796,1.94893 -0.62796,2.04893 0,0.693 0.52802,0.76003 1.58602,0.76003 h 7.13603 c 1.817,0 1.88294,-0.26403 2.51094,-2.27903 l 2.41201,-6.90398 c 0.69301,-2.115 1.38793,-2.64498 2.64393,-2.64498 0.793,0 1.38709,0.39609 1.38709,1.09209 l -2.34605,7.92799 c -0.528,1.686 -0.69302,1.68594 -0.69302,2.04894 0,0.693 0.528,0.76003 1.619,0.76003 h 7.33407 c 1.486,0 2.04803,10e-6 2.04803,-1.48799 0,-0.428 -0.033,-0.76009 -0.36202,-1.38709 l 2.34394,-7.764 c 0.959,-2.906 1.25698,-3.962976 1.25698,-5.284976 0,-3.403 -2.64402,-5.648956 -6.67403,-5.648956 z m 41.39299,0.627059 c -0.991,0 -1.81687,0.792897 -1.81687,1.783897 a 1.833,1.833 0 0 0 1.81687,1.817026 c 0.991,0 1.78405,-0.827026 1.78405,-1.817026 0,-0.991 -0.79305,-1.783897 -1.78405,-1.783897 z m 0,0.229952 c 0.892,0 1.58602,0.694041 1.58602,1.553041 0,0.892 -0.72802,1.58587 -1.58602,1.58587 a 1.566,1.566 0 0 1 -1.58587,-1.58587 c 0,-0.859 0.69387,-1.553041 1.58587,-1.553041 z m -0.65988,0.627963 v 1.949998 h 0.23191 v -0.893002 h 0.46201 l 0.562,0.893002 h 0.29697 l -0.59589,-0.893002 c 0.331,-0.033 0.59498,-0.165004 0.59498,-0.562004 0,-0.297 -0.16402,-0.494992 -0.69302,-0.494992 z m 0.231,0.198027 h 0.56095 c 0.266,0 0.56201,0.06597 0.56201,0.296965 0,0.364 -0.46294,0.330998 -0.76094,0.330998 h -0.36202 z m -77.40509,4.922054 c 1.387,0 2.18111,0.462944 3.46811,1.948947 -1.585,2.479 -4.26111,4.98801 -6.60611,4.98801 -0.794,0 -1.48693,-0.52703 -1.48693,-1.48603 0,-0.76 0.72596,-2.84002 1.91596,-4.16202 0.694,-0.826001 1.45297,-1.288907 2.70897,-1.288907 z m 59.56598,0 c 1.388,0 2.18,0.462881 3.469,1.983877 -1.619,2.443 -4.328,4.95308 -6.707,4.95308 -0.794,0 -1.48799,-0.52703 -1.48799,-1.48603 0,-0.76 0.76002,-2.84002 1.91702,-4.16202 0.727,-0.826001 1.51997,-1.288907 2.80897,-1.288907 z"
     style="fill:#a5333a;fill-opacity:1" />
</svg>
