<?xml version="1.0" encoding="UTF-8" standalone="no"?>
<!-- Generator: Adobe Illustrator 12.0.0, SVG Export Plug-In  -->

<svg
   version="1.1"
   width="244.855"
   height="118.235"
   viewBox="-0.3779297 -0.6791992 244.855 118.235"
   enable-background="new -0.3779297 -0.6791992 501 93"
   xml:space="preserve"
   id="svg13"
   xmlns="http://www.w3.org/2000/svg"
   xmlns:svg="http://www.w3.org/2000/svg">
<defs
   id="defs1">
</defs>














<g
   id="g19"><path
     id="path14"
     d="m 57.337672,-0.673819 c -1.201374,0.05815 -2.52753,0.604179 -3.810553,1.886719 -2.128909,2.129394 -13.706076,15.5625 -24.505898,28.177734 -0.931642,0.10498 -1.774906,0.167969 -2.470707,0.167969 -3.910163,0 -11.339862,-2.344239 -11.339862,1.566406 0,3.790039 4.602546,4.635742 8.626967,4.326172 C 16.923057,43.546884 11.118848,50.372079 9.5426739,52.236337 5.242374,57.318368 11.887893,59.271493 14.821979,55.753915 20.510465,48.92872 26.98655,41.268564 32.882555,34.33204 c 4.666512,-0.608398 9.709977,-1.228515 12.109395,-1.253906 -0.580079,1.920898 -1.096193,3.874023 -1.433597,5.669922 -1.172365,6.25293 -3.127934,5.669922 -4.691413,5.470703 -1.564456,-0.194336 -4.105476,0.982422 -1.564456,3.912109 2.54102,2.934571 0.584962,10.359375 6.058604,10.359375 4.691414,0 2.737797,-8.40625 8.603529,-24.435547 0.147461,-0.404296 0.311524,-0.855468 0.484376,-1.33789 2.689457,-0.125977 5.359872,-0.132813 7.333996,0.361328 1.248049,0.30957 2.396,0.0049 3.20313,-0.609375 -3.574224,5.974609 -7.021984,12.165039 -7.699231,14.291016 -1.367678,4.305664 -0.195801,8.40625 4.105476,8.40625 4.301276,0 2.737797,-3.124024 7.234386,-8.011719 4.497077,-4.888672 7.818372,-7.623047 7.818372,-7.623047 0,0 -2.736333,6.251953 -2.736333,8.599609 0,2.34668 3.909675,4.69336 6.841808,1.953125 2.932622,-2.736328 6.255869,-6.058593 6.255869,-6.058593 0,0 -3.519048,10.947265 3.910163,10.947265 3.881354,0 7.015153,-1.660156 9.988298,-3.964844 0.800291,1.606446 2.380373,2.59961 5.064453,2.59961 6.64553,0 18.5723,-12.31836 18.5723,-12.31836 0,0 -1.75977,8.018555 -2.73633,10.554688 -0.97754,2.545898 4.30128,3.71582 6.25587,-0.195313 1.95459,-3.90625 6.64601,-19.159179 9.57814,-19.353515 2.93262,-0.19336 1.56641,2.347656 8.99416,1.759765 0,0 -4.6924,12.706055 -5.27931,16.8125 -0.58545,4.105469 4.49659,5.082032 5.47462,1.175782 0.97656,-3.911133 7.15186,-21.288086 11.33791,-27.566407 2.34717,-3.519531 -3.52003,-4.495605 -5.66993,-1.953125 -2.14991,2.541016 -4.30177,5.277344 -8.21095,5.277344 -3.91017,0 -0.19629,-4.301269 -5.86525,-3.714844 -5.66797,0.586915 -3.90967,0.39209 -5.27735,-0.585937 -1.36767,-0.976563 -2.20118,0.196777 -2.9336,1.369141 -4.88672,7.815918 -10.22902,11.720703 -15.83401,17.007812 -3.57813,3.371094 -6.0293,4.494141 -7.13868,3.576172 0.60938,-0.546875 1.22608,-1.092773 1.86133,-1.623047 6.06007,-5.082031 12.90236,-15.638184 12.90236,-20.720703 0,-5.083496 -8.01661,-3.909668 -12.31642,1.955078 -2.40479,3.277344 -7.30568,11.798828 -8.916034,18.6875 -1.673342,1.270508 -3.063485,2.206055 -4.181646,2.814453 -2.151371,1.176758 -4.693367,2.152344 -1.955081,-4.300781 2.736822,-6.452148 4.495125,-10.751953 5.277356,-13.095703 0.782221,-2.345703 -3.323255,-2.739258 -6.255873,-0.587891 -2.932134,2.148438 -7.623059,8.795899 -6.058604,3.712891 1.562991,-5.080567 -0.587404,-10.945801 -6.060556,-6.644531 -5.473642,4.300293 -7.039074,7.034179 -9.189468,9.1875 -2.151371,2.152343 -3.126958,2.345703 -0.781251,-1.566407 2.345706,-3.908203 4.88819,-7.620117 6.255869,-9.771484 1.367678,-2.149902 -0.586427,-7.624512 -4.105476,-4.105469 -0.975099,0.976563 -4.105475,5.783692 -7.367199,11.15625 0.125977,-1.194824 -0.682618,-2.480469 -2.994146,-3.140625 -1.970217,-0.562988 -4.238287,-0.800293 -6.552744,-0.855469 3.125493,-9.125 7.138683,-21.526367 7.138683,-23.582031 0,-1.71051 -1.680054,-3.497286 -3.894537,-3.642578 -0.166086,-0.0109 -0.334235,-0.01221 -0.505861,-0.0039 z m -6.154306,13.617187 c 0.195801,1.563477 -1.564944,7.821289 -2.345707,9.580078 -0.298341,0.666504 -0.960939,2.263672 -1.732425,4.328125 -1.437502,0.122071 -2.775883,0.256836 -3.937506,0.363282 -1.302248,0.118164 -2.984868,0.380371 -4.802742,0.6875 7.368664,-8.632813 12.81838,-14.958985 12.81838,-14.958985 z M 111.5155,28.0254 c 0.37086,-0.02113 0.721,0.104797 1.05078,0.361328 1.55273,1.207031 -2.98585,5.920898 -7.03126,9.564453 2.38156,-6.978058 4.37339,-9.834216 5.98048,-9.925781 z" /><path
     fill-rule="evenodd"
     clip-rule="evenodd"
     d="m 160.46187,16.457528 c 1.83252,0 3.31933,-1.485839 3.31933,-3.318359 0,-1.83252 -1.48681,-3.318359 -3.31933,-3.318359 -1.83107,0 -3.31691,1.485839 -3.31691,3.318359 0,1.83252 1.48584,3.318359 3.31691,3.318359 z"
     id="path15" /><path
     id="path16"
     d="m 172.86716,21.291025 c -0.4795,0.02138 -0.96839,0.156127 -1.45704,0.449218 -1.95459,1.171875 -20.52591,12.903321 -21.89456,27.761719 -1.06055,11.508789 18.37551,4.300781 21.69925,0.583984 0,0 2.14991,11.53418 15.24807,-1.759765 0,0 0.78223,11.535156 7.82032,4.300781 7.0381,-7.230469 12.12112,-13.488281 12.12112,-13.488281 0,0 -3.51905,12.705078 2.54101,12.705078 3.12794,0 15.24808,-13.289063 15.24808,-13.289063 0,0 -3.32276,13.095704 -3.12696,15.835938 0.19531,2.735352 2.14991,5.082031 3.91016,0.976562 1.76026,-4.105468 7.81886,-18.964843 10.16603,-23.458984 2.34522,-4.498535 -0.58789,-9.384277 -5.47461,-5.865234 -4.88819,3.517578 -13.68558,11.924804 -15.25003,13.095703 -1.56348,1.175781 -0.19385,-1.366211 1.17383,-4.300781 1.36768,-2.929688 5.47364,-11.925293 1.17188,-11.728516 -4.29981,0.194336 -11.53322,8.993164 -17.78909,15.246094 0,0 -0.78223,-3.124024 1.56445,-6.841797 2.34571,-3.712891 3.32276,-8.01416 0.19532,-8.404297 -3.12941,-0.391113 -3.71486,1.564453 -3.71486,1.564453 0,0 -8.21094,-2.149902 -17.00783,8.011719 -5.6797,6.568359 -4.69142,8.017578 -4.69142,8.017578 0,0 -10.55714,9.775391 -16.61721,9.775391 -6.06007,0 1.36865,-11.535157 7.03907,-16.617188 0,0 0.58594,3.322266 3.32227,3.322266 2.73682,0 5.47316,-5.081055 7.42775,-8.013672 1.95557,-2.932617 1.56445,-5.279785 0.19531,-6.257813 -1.02649,-0.732422 -2.38183,-1.685249 -3.82031,-1.621093 z m 17.31057,11.199218 c -2.73682,5.670899 -8.79787,14.857422 -9.96876,12.316407 -1.83351,-3.96875 9.96876,-12.316407 9.96876,-12.316407 z" /></g><g
   id="g20"><path
     fill-rule="evenodd"
     clip-rule="evenodd"
     d="m 14.67432,102.6974 c 0,0 -5.86426,3.12403 -5.86426,5.47071 0,2.34765 2.93262,2.34765 8.60254,2.34765 5.66797,0 13.29394,-1.36523 13.29394,-8.60058 0,-7.234378 -11.53515,-11.340824 -11.53515,-19.940433 0,-8.601563 12.31445,-15.639648 24.04394,-15.639648 11.73243,0 11.53516,7.625 8.60254,9.187988 -2.93261,1.563476 -8.21093,1.172363 -8.01465,-3.12793 0,0 -16.02929,-2.736328 -16.02929,8.016113 0,8.795899 13.09765,9.382813 13.09765,19.93945 0,10.5586 -14.07617,17.20508 -25.2207,17.20508 -11.14111,0 -16.02881,-4.10547 -16.02881,-7.42871 0,-3.32324 4.69239,-7.42969 15.05225,-7.42969 z"
     id="path17" /><path
     id="path18"
     d="m 67.82276,68.241348 c -1.04841,-0.0021 -2.2594,0.440491 -3.29883,1.417969 -1.1836,1.115723 -5.31446,8.077637 -8.97656,14.980469 -3.62305,-0.01221 -9.47852,0.209473 -12.33204,1.634766 -4.2998,2.151367 -4.10839,8.40625 0,8.40625 2.15235,0 4.10547,-2.347657 4.10547,-2.347657 0,0 1.84082,-0.115234 4.48633,-0.261718 -0.19922,0.424804 -0.39355,0.839843 -0.57422,1.24414 -3.71484,8.206053 -3.91211,11.728513 -5.86523,11.921873 -1.95508,0.19434 -3.90821,1.36621 -3.90821,5.67188 0,4.2998 1.95313,6.64551 5.86133,3.12304 3.91211,-3.51757 5.86621,-8.5996 8.79883,-15.634762 0.7666,-1.842773 1.82324,-4.195312 3.01172,-6.714843 3.66992,-0.178711 7.32227,-0.326172 9.49805,-0.326172 0,0 -12.1211,9.582027 -12.1211,16.029297 0,6.45313 7.62696,8.99316 17.40039,1.76367 0,0 3.32227,17.00586 23.26368,-11.734373 0,0 -3.51758,13.494143 1.95507,13.494143 2.73536,0 15.24805,-13.293948 17.59571,-15.251956 0,0 -4.69239,12.905276 -4.49805,16.228516 0.19629,3.32324 -0.19434,3.71094 1.95508,3.71094 2.15039,0 5.08398,-9.38184 7.625,-15.833987 2.54101,-6.447266 3.32226,-6.841797 3.32226,-9.189453 0,-2.34375 1.75977,-7.230469 -2.3457,-5.861328 -4.10547,1.368652 -15.83496,11.533203 -18.17969,14.074218 0,0 2.15039,-8.602051 4.10352,-11.728515 1.95605,-3.129395 -2.54199,-5.083008 -5.27735,-3.128907 -2.73828,1.956055 -17.79003,17.592772 -20.52539,20.916012 0,0 2.34278,-8.792965 5.86329,-11.921871 3.51757,-3.12793 1.36816,-6.061035 -0.39063,-5.669922 0,0 0.58594,-6.645508 -11.33789,-2.541015 0,0 -7.95996,-0.390625 -14.38867,-0.214844 2.46191,-4.84375 4.87793,-9.1875 6.17773,-10.732422 2.82251,-3.360626 1.30259,-5.518876 -1.0039,-5.523438 z m 10.38476,23.896485 c -0.38769,5.476562 -5.86328,11.340817 -10.94531,14.076177 -5.08301,2.73632 -1.5625,-4.10547 1.95508,-8.798833 3.51855,-4.688477 8.99023,-5.277344 8.99023,-5.277344 z" /><path
     id="path19"
     d="m 158.94971,64.32338 c -0.94752,-0.04018 -2.01715,0.387115 -2.93359,1.425781 -2.93262,3.323242 -9.38477,18.179687 -9.38477,18.179687 0,0 -8.01367,-2.149902 -15.83398,6.25586 -5.01172,5.388672 -8.60157,13.878902 -8.60157,17.402342 0,3.51758 3.42188,14.95117 15.9336,1.65821 2.68066,4.46777 4.05859,5.4707 6.20312,5.26562 9.66602,-4.18945 4.71192,-1.06445 8.24024,-1.06445 9.24316,0 12.1416,-2.40039 14.68554,-6.1543 0.58496,9.1875 5.7666,6.35254 9.08985,3.41797 3.32324,-2.92969 10.55664,-10.16406 10.55664,-10.16406 0,0 -1.75977,8.40527 -3.12696,11.14062 -1.37109,2.74024 5.47364,2.15235 5.86524,0 0.39062,-2.14746 3.12597,-6.8418 5.86328,-12.312499 3.56836,-7.140625 9.18848,-8.799805 13.09766,-8.017578 0.58007,0.116211 1.0625,0.131836 1.48242,0.08398 -0.50586,0.814453 -1.00196,1.692383 -1.48242,2.652344 -8.01465,16.035153 -6.0586,26.393553 8.60351,17.400393 0,0 0.1836,10.3164 14.46485,-2.54102 1.95507,-1.75976 1.36914,-4.30176 -1.75977,-2.54297 -3.12695,1.75879 -6.8418,1.75977 -4.69141,-2.14648 2.14942,-3.91113 11.76172,-28.153321 18.76758,-36.560548 1.95313,-2.344238 -2.34765,-5.080567 -5.86523,-0.583984 -3.52051,4.495605 -7.42871,12.902832 -9.1875,16.029296 0,0 -9.00684,-3.704101 -16.62696,5.244141 -4.90429,-5.509277 -12.69921,-1.333984 -12.69921,-1.333984 0.78222,-5.670411 -4.69043,-4.495606 -6.44922,-2.541016 -1.75879,1.95459 -10.75391,12.117188 -12.70703,14.658203 -1.95508,2.545902 -3.7129,4.498042 -4.88672,3.521482 -1.17383,-0.97656 2.14941,-7.426755 3.9082,-11.72656 1.75879,-4.301758 -2.54102,-3.521484 -2.54102,-3.521484 0,0 1.36817,-5.278809 -3.51757,-4.69336 -4.8877,0.586914 -17.51172,5.029297 -23.46094,22.871094 -0.24902,0.75684 -0.4209,1.44043 -0.53125,2.07617 -0.8711,0.56152 -1.88965,0.60254 -2.79297,-0.93555 -0.58789,-1.22851 -0.95801,-3.41699 0.19727,-7.197261 2.14941,-7.041015 10.75097,-25.219238 13.68359,-29.714843 2.01617,-3.090729 0.52204,-5.442858 -1.5625,-5.53125 z m 61.94141,25.886718 c 0.71836,-0.02875 1.10412,0.561402 0.61523,2.517579 -0.78223,3.128906 -2.54004,8.012693 -5.86328,11.535153 -3.32422,3.51856 -4.49805,2.92871 -3.91016,-0.98242 0.58496,-3.906249 5.47363,-11.33496 7.62305,-12.511718 0.55334,-0.301025 1.10414,-0.541342 1.53516,-0.558594 z m -80.1211,1.146485 c -0.58789,5.476562 -3.32715,10.557617 -8.01758,15.640627 -4.6914,5.08203 -3.32324,-3.71778 0.19727,-8.994143 3.51758,-5.276367 7.82031,-6.646484 7.82031,-6.646484 z m 27.20313,0.134765 c 0.18595,0.004 0.37143,0.022 0.55468,0.05859 0,0 -4.49707,3.523438 -3.1289,8.994142 0,0 -4.30078,5.47656 -7.23242,5.66992 -2.84098,0.18826 4.04214,-14.847166 9.80664,-14.722656 z" /></g></svg>
