<?xml version="1.0" encoding="UTF-8" standalone="no"?>
<svg
   width="419"
   height="91"
   viewBox="0 0 419 91"
   fill="none"
   version="1.1"
   id="svg13"
   xmlns="http://www.w3.org/2000/svg"
   xmlns:svg="http://www.w3.org/2000/svg">
  <defs
     id="defs13" />
  <path
     fill-rule="evenodd"
     clip-rule="evenodd"
     d="m 61.765104,36.9161 c -0.7077,1.0987 -8.2078,-0.2148 -17.2435,-3.2026 -9.2481,-3.058 -19.3752,-3.5835 -25.2398,-1.3104 -3.30422,1.281 -3.30422,1.281 1.8882,1.3589 2.8558,0.0428 9.6531,1.4093 15.1051,3.0353 7.5337,2.2474 11.3084,4.0558 17.7461,4.1585 5.2165,0.3547 7.4557,-1.5597 8.4966,-0.9503 1.0515,0.6155 0.1913,-4.5551 -0.7527,-3.0894 z"
     fill="white"
     id="path1"
     style="fill:#003da6;fill-opacity:1" />
  <path
     fill-rule="evenodd"
     clip-rule="evenodd"
     d="m 65.389304,47.6909 c -0.9232,1.4284 -10.7058,-0.2792 -22.4915,-4.1633 -12.0628,-3.9755 -25.272,-4.6587 -32.9214904,-1.7036 -4.3099,1.6653 -4.3099,1.6653 2.4628004,1.7666 3.72498,0.0556 12.59109,1.8321 19.70239,3.9458 9.8266,2.9217 14.7501,5.2727 23.147,5.4061 6.8042,0.4612 9.7249,-2.0276 11.0826,-1.2354 1.3714,0.8002 0.2495,-5.9216 -0.9818,-4.0162 z"
     fill="white"
     id="path2"
     style="fill:#003da6;fill-opacity:1" />
  <path
     d="m 415.508,63 c 0.67,0 1.268,0.1482 1.796,0.4447 0.538,0.2965 0.955,0.7137 1.251,1.2518 0.297,0.527 0.445,1.131 0.445,1.8117 0,0.6698 -0.148,1.2683 -0.445,1.7953 -0.296,0.5271 -0.713,0.9443 -1.251,1.2518 -0.528,0.2965 -1.126,0.4447 -1.796,0.4447 -0.67,0 -1.273,-0.1482 -1.812,-0.4447 -0.527,-0.3075 -0.944,-0.7247 -1.251,-1.2518 C 412.148,67.7765 412,67.178 412,66.5082 c 0,-0.6807 0.148,-1.2847 0.445,-1.8117 0.307,-0.5381 0.724,-0.9553 1.251,-1.2518 C 414.235,63.1482 414.838,63 415.508,63 Z m 0,6.16 c 0.791,0 1.422,-0.2416 1.894,-0.7247 0.483,-0.4941 0.725,-1.1365 0.725,-1.9271 0,-0.8015 -0.242,-1.4439 -0.725,-1.927 -0.472,-0.4941 -1.103,-0.7412 -1.894,-0.7412 -0.79,0 -1.422,0.2471 -1.894,0.7412 -0.472,0.4831 -0.708,1.1255 -0.708,1.927 0,0.8016 0.236,1.444 0.708,1.9271 0.472,0.4831 1.104,0.7247 1.894,0.7247 z m 1.548,-3.3106 c 0,0.2416 -0.06,0.4502 -0.181,0.6259 -0.11,0.1757 -0.269,0.3074 -0.477,0.3953 l 0.856,1.3506 h -1.285 l -0.708,-1.2353 h -0.099 v 1.2353 h -1.103 v -3.5247 h 1.729 c 0.385,0 0.692,0.1098 0.923,0.3294 0.23,0.2086 0.345,0.4831 0.345,0.8235 z m -1.91,0.313 h 0.527 c 0.077,0 0.143,-0.022 0.198,-0.0659 0.054,-0.044 0.082,-0.1098 0.082,-0.1977 0,-0.1647 -0.093,-0.247 -0.28,-0.247 h -0.527 z"
     fill="white"
     id="path3"
     style="fill:#003da6;fill-opacity:1" />
  <path
     d="m 105.2338,24.3404 c 1.62,-2.28 3.8402,-4.17 6.6602,-5.67 2.88,-1.56 6.15,-2.34 9.81,-2.34 4.26,0 8.1,1.05 11.52,3.15 3.48,2.1 6.21,5.1 8.19,9 2.04,3.84 3.06,8.31 3.06,13.41 0,5.1 -1.02,9.63 -3.06,13.59 -1.98,3.9 -4.71,6.93 -8.19,9.09 -3.42,2.16 -7.26,3.24 -11.52,3.24 -3.66,0 -6.9,-0.75 -9.72,-2.25 -2.76,-1.5 -5.0102,-3.39 -6.7502,-5.67 v 30.87 H 92.633804 v -73.62 H 105.2338 Z m 26.3702,17.55 c 0,-3 -0.63,-5.58 -1.89,-7.74 -1.2,-2.22 -2.82,-3.9 -4.86,-5.04 -1.98,-1.14 -4.14,-1.71 -6.48,-1.71 -2.28,0 -4.44,0.6 -6.48,1.8 -1.98,1.14 -3.6,2.82 -4.86,5.04 -1.2002,2.22 -1.8002,4.83 -1.8002,7.83 0,3 0.6,5.61 1.8002,7.83 1.26,2.22 2.88,3.93 4.86,5.13 2.04,1.14 4.2,1.71 6.48,1.71 2.34,0 4.5,-0.6 6.48,-1.8 2.04,-1.2 3.66,-2.91 4.86,-5.13 1.26,-2.22 1.89,-4.86 1.89,-7.92 z"
     fill="white"
     id="path4"
     style="fill:#003da6;fill-opacity:1" />
  <path
     d="m 166.23,24.8804 c 1.62,-2.64 3.72,-4.71 6.3,-6.21 2.64,-1.5 5.64,-2.25 9,-2.25 v 13.23 h -3.33 c -3.96,0 -6.96,0.93 -9,2.79 -1.98,1.86 -2.97,5.1 -2.97,9.72 v 24.84 h -12.6 v -49.86 h 12.6 z"
     fill="white"
     id="path5"
     style="fill:#003da6;fill-opacity:1" />
  <path
     d="m 202.617,17.1404 v 49.86 h -12.6 v -49.86 z"
     fill="white"
     id="path6"
     style="fill:#003da6;fill-opacity:1" />
  <path
     d="M 227.665,0.400391 V 67.0004 h -12.6 V 0.400391 Z"
     fill="white"
     id="path7"
     style="fill:#003da6;fill-opacity:1" />
  <path
     d="m 278.634,55.0304 h -25.02 l -4.14,11.97 h -13.23 l 22.59,-62.91001 h 14.67 l 22.59,62.91001 h -13.32 z m -3.42,-10.08 -9.09,-26.28 -9.09,26.28 z"
     fill="white"
     id="path8"
     style="fill:#003da6;fill-opacity:1" />
  <path
     d="m 317.138,17.1404 v 49.86 h -12.6 v -49.86 z"
     fill="white"
     id="path9"
     style="fill:#003da6;fill-opacity:1" />
  <path
     d="m 342.187,24.8804 c 1.62,-2.64 3.72,-4.71 6.3,-6.21 2.64,-1.5 5.64,-2.25 9,-2.25 v 13.23 h -3.33 c -3.96,0 -6.96,0.93 -9,2.79 -1.98,1.86 -2.97,5.1 -2.97,9.72 v 24.84 h -12.6 v -49.86 h 12.6 z"
     fill="white"
     id="path10"
     style="fill:#003da6;fill-opacity:1" />
  <path
     d="m 412.324,40.9904 c 0,1.8 -0.12,3.42 -0.36,4.86 h -36.45 c 0.3,3.6 1.56,6.42 3.78,8.46 2.22,2.04 4.95,3.06 8.19,3.06 4.68,0 8.01,-2.01 9.99,-6.03 h 13.59 c -1.44,4.8 -4.2,8.76 -8.28,11.88 -4.08,3.06 -9.09,4.59 -15.03,4.59 -4.8,0 -9.12,-1.05 -12.96,-3.15 -3.78,-2.16 -6.75,-5.19 -8.91,-9.09 -2.1,-3.9 -3.15,-8.4 -3.15,-13.5 0,-5.16 1.05,-9.69 3.15,-13.59 2.1,-3.9 5.04,-6.9 8.82,-9 3.78,-2.1 8.13,-3.15 13.05,-3.15 4.74,0 8.97,1.02 12.69,3.06 3.78,2.04 6.69,4.95 8.73,8.73 2.1,3.72 3.15,8.01 3.15,12.87 z m -13.05,-3.6 c -0.06,-3.24 -1.23,-5.82 -3.51,-7.74 -2.28,-1.98 -5.07,-2.97 -8.37,-2.97 -3.12,0 -5.76,0.96 -7.92,2.88 -2.1,1.86 -3.39,4.47 -3.87,7.83 z"
     fill="white"
     id="path11"
     style="fill:#003da6;fill-opacity:1" />
  <rect
     x="305"
     y="2"
     width="12"
     height="9"
     fill="white"
     id="rect11"
     style="fill:#003da6;fill-opacity:1" />
  <rect
     x="190"
     y="2"
     width="12"
     height="9"
     fill="white"
     id="rect12"
     style="fill:#003da6;fill-opacity:1" />
  <path
     d="m 39.000004,25.5 12,3.5 4,-12 17,49.5 h 14.5 l -24.5,-63.5 h -14.5 z"
     fill="white"
     id="path12"
     style="fill:#003da6;fill-opacity:1" />
  <path
     d="m 40.500004,57 -12,-3 -4.5,12.5 h 13.5 z"
     fill="white"
     id="path13"
     style="fill:#003da6;fill-opacity:1" />
</svg>
