<?xml version="1.0" encoding="UTF-8" standalone="no"?>
<svg
   width="2500"
   height="1008"
   viewBox="0 0 46.24 18.64"
   version="1.1"
   id="svg4"
   xmlns="http://www.w3.org/2000/svg"
   xmlns:svg="http://www.w3.org/2000/svg">
  <defs
     id="defs4" />
  <path
     d="m 45.13,17.617 a 1.11,1.11 0 1 1 0,-2.22 c 0.611,0 1.11,0.499 1.11,1.11 0,0.615 -0.498,1.107 -1.11,1.11 z m -0.003,-2.091 a 0.98,0.98 0 0 0 -0.979,0.984 0.98,0.98 0 1 0 0.979,-0.984 z m -0.412,0.338 h 0.547 c 0.19,0 0.373,0.035 0.39,0.312 0.006,0.158 -0.042,0.215 -0.161,0.306 0.125,0.081 0.129,0.1 0.148,0.312 0.013,0.161 -0.01,0.187 0.058,0.293 H 45.51 l -0.026,-0.155 c -0.025,-0.145 0.045,-0.37 -0.209,-0.37 h -0.402 v 0.524 h -0.157 v -1.222 z m 0.158,0.138 v 0.421 h 0.393 c 0.106,0 0.209,-0.029 0.225,-0.187 0.022,-0.209 -0.129,-0.235 -0.225,-0.235 h -0.393 z"
     id="path1"
     style="display:inline" />
  <path
     d="M 23.011,18.64 0,14.578 1.724,0 h 42.491 l 1.725,14.578 z"
     fill="#cf4037"
     id="path2"
     style="display:inline" />
  <path
     d="m 7.651,3.331 h 1.581 v 2.293 h 0.025 c 0.141,-0.398 0.731,-0.688 1.218,-0.688 1.011,0 1.139,0.736 1.139,1.508 v 4.02 c 0,0.772 -0.302,1.487 -1.313,1.487 -0.486,0 -2.65,-0.027 -2.65,-0.027 z m 1.581,7.351 c 0,0.169 0.18,0.362 0.397,0.362 0.217,0 0.359,-0.193 0.403,-0.362 V 6.554 C 9.989,6.385 9.847,6.191 9.629,6.191 9.412,6.204 9.232,6.373 9.232,6.554 Z m 5.844,-5.07 h 0.025 c 0.243,-0.422 0.739,-0.676 1.302,-0.676 0.806,0 1.01,0.458 1.01,1.207 V 7.984 H 15.832 V 6.554 C 15.789,6.385 15.69,6.192 15.473,6.192 c -0.217,0 -0.397,0.193 -0.397,0.362 v 5.371 H 13.509 V 5.021 h 1.567 z m 7.966,-0.591 -1.152,6.976 c -0.192,1.195 -0.422,1.647 -2.021,1.647 H 19.05 v -1.309 h 0.512 c 0.346,0 0.461,-0.06 0.461,-0.314 0,-0.061 0,-0.121 -0.013,-0.205 L 18.723,5.021 h 1.625 l 0.622,5.274 h 0.025 l 0.538,-5.274 z m 1.574,1.473 c 0,-1.038 0.87,-1.673 1.906,-1.673 1.024,0 1.919,0.46 1.919,1.789 0,0 -0.04,4.915 -10e-4,5.374 0,0 -1.815,0.087 -2.737,0.026 -0.817,-0.054 -1.087,-0.459 -1.087,-1.243 V 9.281 c 0,-1.738 2.302,-1.074 2.302,-2.571 V 6.433 c 0,-0.169 -0.178,-0.362 -0.396,-0.362 -0.217,0 -0.339,0.193 -0.339,0.362 v 0.642 h -1.567 z m 1.562,4.066 c 0,0.165 0.074,0.354 0.327,0.354 0.252,0 0.341,-0.189 0.341,-0.354 V 8.608 l -0.341,0.189 c -0.268,0.189 -0.327,0.236 -0.327,0.532 z m 5.906,-4.935 h 0.026 c 0.102,-0.423 0.622,-0.746 1.056,-0.746 1.037,0 1.307,0.77 1.307,1.566 v 5.479 h -1.582 v -5.37 c -0.043,-0.169 -0.192,-0.362 -0.41,-0.362 -0.217,0 -0.397,0.193 -0.448,0.362 v 5.371 H 30.46 V 5.021 h 1.625 V 5.625 Z M 38.25,4.934 h 0.76 v 1.134 h -0.76 v 4.251 c 0.051,0.217 0.089,0.471 0.332,0.471 h 0.482 v 1.193 H 38.045 C 36.881,11.924 36.676,11.587 36.676,10.525 V 6.068 H 35.98 V 4.934 h 0.696 V 3.621 h 1.574 z"
     fill="#ffffff"
     id="path3"
     style="display:inline" />
  <path
     d="M 22.973,17.407 44.646,13.571 43.188,1.159 H 2.753 L 1.294,13.571 Z M 22.967,16.879 1.875,13.144 3.241,1.68 c 0,0.002 39.458,0 39.458,0 l 1.366,11.464 z"
     fill="#ffffff"
     id="path4"
     style="display:inline;fill:#ffffff;fill-opacity:1" />
</svg>
