<?xml version="1.0" encoding="UTF-8" standalone="no"?>
<!-- Created with Inkscape (http://www.inkscape.org/) -->

<svg
   width="520.03601mm"
   height="226.388mm"
   viewBox="0 0 520.03601 226.388"
   version="1.1"
   id="svg1"
   xml:space="preserve"
   xmlns="http://www.w3.org/2000/svg"
   xmlns:svg="http://www.w3.org/2000/svg"><defs
     id="defs1" /><g
     id="layer1"><path
       id="path1"
       style="fill:#e6b53b;fill-opacity:1;stroke-width:0.999999"
       d="m 437.30546,225.93186 c -3.48102,-0.78177 -5.92642,-1.77061 -8.30242,-3.35724 -5.02459,-3.35529 -7.43701,-7.82202 -7.44625,-13.78716 -0.0207,-13.36848 14.55583,-20.74509 31.84694,-16.11648 3.90118,1.04429 3.99551,1.17335 3.85207,5.27022 l -0.1185,3.38448 -3.41667,-1.15982 c -10.98395,-3.72862 -20.23932,-1.40618 -22.43961,5.63073 -0.79751,2.55057 -0.61829,5.79032 0.43448,7.8539 2.38116,4.66745 9.56236,6.90611 16.03083,4.9974 l 1.32291,-0.39036 v -2.04537 -2.04537 l -2.55763,-0.10365 -2.55764,-0.10365 v -2.9986 -2.99861 h 7.05555 7.05554 l 0.096,6.62316 c 0.054,3.72275 -0.051,6.89792 -0.23975,7.25056 -0.51214,0.95695 -3.40261,2.38422 -6.91955,3.41677 -4.06013,1.19204 -10.08264,1.49064 -13.69631,0.67909 z m -226.98166,-16.99945 0.0915,-17.19789 h 4.23333 4.23333 l 0.17639,6.87915 0.17639,6.87916 h 8.81943 8.81944 l 0.17639,-6.87916 0.17638,-6.87915 4.32153,-0.0991 4.32152,-0.0991 v 17.29695 17.29695 H 241.45971 237.05 v -7.05554 -7.05555 h -8.99583 -8.99582 v 7.05555 7.05554 h -4.41307 -4.41308 z m 44.52674,16.75693 c -0.093,-0.24254 -0.12766,-7.98159 -0.0771,-17.1979 l 0.0919,-16.75692 h 12.87637 12.87638 l 0.10193,3.08679 0.10193,3.08681 h -8.48039 -8.4804 v 3.70417 3.70415 h 8.11389 8.11387 v 2.99861 2.99861 h -8.11387 -8.11389 v 4.23333 4.23333 h 8.64305 8.64305 v 3.17499 3.175 h -13.06384 c -10.12575,0 -13.10184,-0.0992 -13.23284,-0.44097 z m 31.23556,0.0533 c 0,-0.43629 12.69606,-30.64089 13.8129,-32.86161 l 0.66531,-1.32292 h 4.88852 c 3.48513,0 4.99106,0.12659 5.2457,0.44097 0.31687,0.3912 14.24857,30.0765 15.48484,32.9947 l 0.48996,1.15654 -4.81618,-0.0982 -4.81617,-0.0982 -1.48033,-3.35139 -1.48032,-3.35137 h -8.07784 -8.07785 l -1.30921,3.35137 -1.3092,3.35139 -4.61006,0.0984 c -3.31175,0.0707 -4.61007,-0.0165 -4.61007,-0.3097 z M 311.1333,212.97 c 0,-0.4281 -5.14,-12.55838 -5.4548,-12.87317 -0.13621,-0.13622 -5.12853,12.47713 -5.12853,12.95748 0,0.1703 2.38125,0.33104 5.29166,0.35721 4.29865,0.0386 5.29167,-0.0442 5.29167,-0.44152 z m 21.87219,-0.9508 v -14.11108 h -6.54012 -6.54011 l 0.10193,-3.08681 0.10193,-3.08679 h 17.28609 17.28609 l 0.10193,3.08679 0.10193,3.08681 h -6.54012 -6.54012 v 14.1111 14.11109 h -4.40971 -4.40972 z m 29.44215,13.67012 c -0.093,-0.24254 -0.12766,-7.98159 -0.0771,-17.1979 l 0.0919,-16.75692 h 4.23333 4.23333 l 0.0915,17.19789 0.0916,17.1979 h -4.24775 c -3.07289,0 -4.29451,-0.12197 -4.41677,-0.44097 z m 17.56208,-16.75693 0.0915,-17.19789 3.83369,-0.10055 3.83368,-0.10055 1.81988,1.86444 c 1.00093,1.02544 5.29586,5.67443 9.54428,10.33109 4.24842,4.65666 7.85346,8.51877 8.01119,8.58246 0.15773,0.0637 0.32889,-4.54006 0.38035,-10.23054 l 0.0936,-10.34635 h 4.23334 4.23332 l 0.0916,17.19789 0.0916,17.1979 h -3.6872 -3.6872 l -5.03034,-5.55624 c -12.10462,-13.37013 -14.50954,-15.96318 -14.80496,-15.96318 -0.17615,0 -0.31365,4.71673 -0.31365,10.75971 v 10.75971 h -4.41306 -4.41308 z M 78.30023,224.87397 c 0,-0.12084 1.493963,-3.73728 3.319919,-8.03654 1.825957,-4.29926 4.756323,-11.22997 6.511926,-15.40155 l 3.192005,-7.58472 4.865145,-0.095 4.865145,-0.095 7.01863,15.06962 c 3.86024,8.28829 7.09476,15.36076 7.18782,15.7166 0.15833,0.60545 -0.10989,0.6406 -4.17834,0.54758 l -4.34753,-0.0994 -1.29142,-2.9986 -1.29141,-2.99861 -7.419574,-0.0951 -7.41957,-0.0951 -1.195453,3.09371 -1.195453,3.0937 -4.31092,0.0991 c -2.371007,0.0545 -4.31092,1.9e-4 -4.31092,-0.12065 z m 23.18885,-11.88464 c -1.515325,-3.93195 -5.034748,-11.50424 -5.247859,-11.29113 -0.338029,0.33803 -4.535452,10.86736 -4.535452,11.37727 0,0.22115 1.874891,0.35483 4.976626,0.35483 3.836755,0 4.937705,-0.101 4.806685,-0.44097 z m 18.0861,-3.61596 v -15.69859 h 3.79868 3.79867 l 8.63673,9.48481 c 4.7502,5.21664 8.75579,9.41415 8.90131,9.32778 0.14552,-0.0864 0.26458,-4.35454 0.26458,-9.48481 v -9.32778 h 4.05694 4.05694 v 15.69859 15.69859 h -3.52051 -3.5205 l -1.36477,-1.49931 c -0.75061,-0.82462 -4.74375,-5.22992 -8.87363,-9.78957 -4.12989,-4.55964 -7.64651,-8.34319 -7.81472,-8.40786 -0.16821,-0.0647 -0.30584,4.34064 -0.30584,9.78957 v 9.90717 h -4.05694 -4.05694 z m 40.21662,-0.0334 v -15.73199 l 9.61318,0.14887 c 10.99341,0.17024 12.49268,0.45907 16.55446,3.18911 4.86283,3.26845 7.27167,9.09258 6.29331,15.21603 -0.75261,4.71042 -3.47008,8.61851 -7.36539,10.5924 -3.71185,1.88094 -6.76147,2.31238 -16.36432,2.3151 l -8.73124,0.002 z m 19.24237,8.84111 c 5.55933,-2.8565 6.81052,-11.21253 2.3624,-15.77733 -1.91832,-1.96866 -4.38742,-2.7594 -9.34575,-2.99304 l -4.14514,-0.19532 v 10.14778 10.14778 l 4.54578,-0.14161 c 4.2021,-0.13093 4.69979,-0.22077 6.58271,-1.18824 z m -57.70595,-41.43296 c -9.03501,-1.12224 -15.21275,-6.38792 -16.59973,-14.14897 -1.2171,-6.81052 2.56617,-13.7678 9.26882,-17.04493 3.87484,-1.89454 6.49241,-2.45925 11.3987,-2.45916 4.67929,9e-5 7.38775,0.46686 10.47295,1.80487 l 2.05065,0.88934 v 3.65806 c 0,2.01192 -0.0847,3.65804 -0.18812,3.65804 -0.10347,0 -0.99181,-0.40726 -1.9741,-0.90503 -4.43455,-2.24716 -10.79833,-2.90273 -14.86821,-1.5317 -4.89308,1.64836 -7.40312,4.82823 -7.37706,9.34569 0.0262,4.54108 2.62264,7.79963 7.42314,9.3161 4.1832,1.32147 8.84383,0.82786 14.43067,-1.52838 l 2.90645,-1.22578 v 3.64584 3.64585 l -2.73402,1.04717 c -4.5133,1.72866 -9.68223,2.3954 -14.21014,1.83299 z m 40.22747,0.12945 c -6.64414,-0.69987 -11.87739,-3.56022 -14.93184,-8.16134 -2.14537,-3.2317 -2.82763,-5.72136 -2.64048,-9.6356 0.12934,-2.70531 0.31497,-3.4283 1.49145,-5.80874 4.09088,-8.27733 14.21212,-12.15298 24.72391,-9.46734 6.72937,1.71928 12.17254,7.44913 13.20277,13.89815 1.31157,8.21012 -4.65107,16.28641 -13.65532,18.49586 -2.22406,0.54573 -6.27083,0.88122 -8.19049,0.67901 z m 6.34296,-7.43245 c 2.44244,-0.78883 4.97774,-3.09565 5.99106,-5.45119 0.64514,-1.49966 0.76359,-2.31788 0.65263,-4.5083 -0.15514,-3.06273 -0.86998,-4.82339 -2.70225,-6.65567 -2.1213,-2.12129 -3.92966,-2.7236 -8.16774,-2.72042 -3.1882,0.002 -3.94065,0.11981 -5.40196,0.84299 -2.04733,1.01319 -3.53049,2.4391 -4.57509,4.39846 -1.11286,2.08741 -1.12239,7.16861 -0.0173,9.21965 1.26203,2.3423 3.73534,4.30832 6.46428,5.13843 1.61961,0.49266 5.86049,0.34834 7.75635,-0.26395 z m 191.19172,7.28568 c -2.93685,-0.34364 -6.88815,-1.71189 -9.16739,-3.17447 -3.68327,-2.36355 -6.63898,-6.85431 -7.40365,-11.24874 -1.42507,-8.18972 4.99153,-16.71875 14.13206,-18.78453 2.54365,-0.57487 8.83821,-0.56413 11.27906,0.0192 5.55012,1.32651 10.18603,4.91654 12.55324,9.72118 1.35548,2.75119 1.38147,2.87761 1.38147,6.72107 0,3.80695 -0.0368,3.99154 -1.307,6.56167 -2.61476,5.2906 -7.7042,8.87358 -14.218,10.0095 -3.31715,0.57845 -3.71942,0.58816 -7.24979,0.17508 z m 8.4873,-7.7354 c 2.01936,-1.01336 3.73375,-2.62642 4.70269,-4.42474 1.10448,-2.04989 1.09556,-7.1323 -0.0162,-9.21744 -1.98096,-3.71547 -5.83231,-5.61781 -10.84119,-5.35491 -6.39691,0.33575 -10.01805,3.88346 -10.0576,9.85369 -0.0322,4.85885 2.32307,8.23926 6.74842,9.68574 2.33335,0.76269 7.44728,0.46963 9.46385,-0.54234 z m 133.69993,7.75142 c -3.06321,-0.37796 -7.39292,-1.86486 -9.63794,-3.30984 -7.06162,-4.54509 -9.52658,-13.2786 -5.83362,-20.66887 1.3239,-2.64936 4.82483,-5.96269 7.78837,-7.37102 3.72404,-1.76974 6.28756,-2.28535 11.39005,-2.29092 4.70708,-0.005 7.04557,0.33005 11.20068,1.60544 l 2.38125,0.73092 v 3.65505 c 0,2.01026 -0.0662,3.65503 -0.14714,3.65503 -0.0809,0 -0.91437,-0.32914 -1.85209,-0.73142 -4.48331,-1.92335 -11.5364,-2.65879 -15.46325,-1.6124 -5.13408,1.36809 -8.00843,4.86136 -8.02433,9.75215 -0.0117,3.58557 1.48125,6.24123 4.59366,8.17143 2.69019,1.66836 8.30185,2.22749 11.48171,1.14401 l 1.65034,-0.56233 v -1.90711 -1.90711 h -2.46945 -2.46944 v -2.99862 -2.99861 h 6.68195 c 3.67507,0 6.73101,0.11907 6.79097,0.26459 0.06,0.14552 0.0296,3.27921 -0.0674,6.96375 l -0.17638,6.69917 -2.29306,1.15329 c -4.24196,2.1335 -10.55769,3.17632 -15.5249,2.56342 z M 0.73599,174.72319 c 0.4048,-0.92723 1.56908,-3.67025 2.58729,-6.0956 4.71794,-11.23798 6.3108,-15.01021 8.41646,-19.93191 l 2.26392,-5.29167 h 5.05898 5.05898 l 3.1409,6.70277 c 4.17036,8.89965 10.32887,22.12005 11.38026,24.42984 l 0.84305,1.85208 h -4.75806 c -3.23213,0 -4.75804,-0.12475 -4.75804,-0.38899 0,-0.21394 -0.62616,-1.72519 -1.39147,-3.35832 l -1.39148,-2.96933 -7.68879,0.0951 -7.6888,0.0951 -1.29929,3.175 -1.29929,3.175 -4.60531,0.0984 L 0,176.40906 Z m 23.94208,-10.83716 c 0,-0.50066 -5.23532,-11.99485 -5.49982,-12.07489 -0.25936,-0.0785 -1.60564,3.11724 -5.02471,11.92734 -0.0647,0.16666 2.27689,0.30301 5.20347,0.30301 2.92659,0 5.32106,-0.07 5.32106,-0.15546 z m 19.21152,12.0617 c -0.093,-0.24253 -0.1277,-7.6641 -0.0771,-16.49235 l 0.092,-16.05137 4.32153,-0.0991 4.32152,-0.0991 v 16.59139 16.5914 h -4.2444 c -3.07016,0 -4.29118,-0.12199 -4.41349,-0.44097 z m 16.05925,0 c -0.004,-0.24253 -0.005,-7.6641 -0.004,-16.49235 l 0.003,-16.05137 h 9.440297 9.440298 l 1.940276,0.9252 c 3.80859,1.8161 5.788257,4.6887 5.805024,8.4234 0.0081,1.80141 -0.178211,2.6299 -0.868895,3.86409 -0.780276,1.39427 -3.022071,3.48809 -4.299019,4.01525 -0.319813,0.13203 -0.171398,0.41639 0.485265,0.92976 0.520292,0.40675 1.561892,1.72642 2.314666,2.93258 1.392427,2.23108 5.735171,10.99693 5.735171,11.57648 0,0.17486 -2.074124,0.31793 -4.609164,0.31793 h -4.609163 l -2.393917,-5.02708 c -3.382062,-7.10212 -4.619909,-8.37846 -8.12577,-8.37846 h -1.781407 v 6.70277 6.70277 H 64.18818 c -3.14777,0 -4.23512,-0.11308 -4.2403,-0.44097 z m 14.849811,-19.31599 c 2.388093,-0.6634 3.567466,-2.89978 2.666442,-5.05624 -0.682228,-1.6328 -2.584046,-2.35066 -6.227551,-2.35066 h -2.81508 v 3.88055 3.88056 l 2.557637,-0.002 c 1.406699,-0.001 3.125048,-0.15959 3.818552,-0.35224 z m 115.416709,3.26461 0.0917,-16.49234 3.82177,-0.10043 3.82177,-0.10042 1.2332,1.33515 c 0.67826,0.73433 4.82439,5.25387 9.21363,10.04343 4.38924,4.78955 8.09801,8.63562 8.2417,8.54681 0.14369,-0.0888 0.27481,-4.46613 0.29138,-9.72738 0.0166,-5.26124 0.11941,-9.71038 0.22854,-9.88696 0.20498,-0.33166 6.04927,-0.36276 7.45561,-0.0397 l 0.79375,0.18235 v 16.3659 16.36591 l -3.79236,-0.0243 -3.79235,-0.0243 -3.98089,-4.47361 c -2.18948,-2.46048 -4.63591,-5.18796 -5.43651,-6.06109 -0.80059,-0.87312 -3.21606,-3.55355 -5.36771,-5.95651 l -3.91209,-4.369 -0.0934,10.45442 -0.0934,10.45441 h -4.40796 -4.40796 z m 42.24858,-0.13163 v -16.62398 l 9.61318,0.19366 c 5.34617,0.1077 10.39612,0.37686 11.37707,0.60641 2.46749,0.57739 6.42941,2.52807 8.16735,4.02125 2.01839,1.73412 3.54658,4.16187 4.41082,7.0072 0.97605,3.21341 0.80003,8.6031 -0.3802,11.64207 -1.13513,2.92284 -4.0191,5.91885 -7.20805,7.48805 -3.88979,1.91408 -6.67881,2.28932 -17.01538,2.28932 h -8.96479 z m 18.54777,10.10929 c 2.44503,-0.7261 4.4292,-2.30633 5.63989,-4.49174 0.9524,-1.71918 1.0359,-2.15438 1.03565,-5.39772 -2.4e-4,-3.16202 -0.10029,-3.71752 -0.96499,-5.35798 -1.11106,-2.10782 -2.65141,-3.4043 -5.19128,-4.36937 -1.41901,-0.53918 -2.69879,-0.67959 -6.19445,-0.67959 h -4.40593 v 10.40694 10.40693 h 4.1693 c 2.63703,0 4.80969,-0.19018 5.91181,-0.51747 z m 23.07996,-9.98496 v -16.52136 l 4.32152,0.0182 4.32153,0.0182 v 16.40415 16.40416 l -4.32153,0.0991 -4.32152,0.0991 z m 26.82953,15.88229 c 0.0345,-0.33955 0.0445,-6.37205 0.0222,-13.40554 l -0.0406,-12.78819 h -6.18734 -6.18734 l 0.10193,-3.08679 0.10193,-3.08681 16.05137,-0.0979 c 8.82825,-0.0538 16.41491,-0.01 16.85922,0.0985 0.77143,0.18749 0.80324,0.32708 0.70555,3.0965 l -0.10229,2.90015 -6.2618,0.0963 -6.26179,0.0963 v 13.39741 13.3974 h -4.4319 c -4.00958,0 -4.4259,-0.0588 -4.36909,-0.61736 z m 27.14541,-15.74565 v -16.363 l 0.79375,-0.21272 c 0.43656,-0.11699 2.34155,-0.21488 4.23332,-0.21753 l 3.43959,-0.005 v 16.58054 16.58054 h -4.23334 -4.23332 z m 58.99852,-0.12934 0.0917,-16.49234 3.75611,-0.11189 c 3.72349,-0.11092 3.7643,-0.10327 4.70032,0.88194 0.51931,0.54661 4.70281,5.08933 9.29665,10.09492 l 8.35245,9.10108 0.0937,-9.88949 0.0937,-9.88948 0.78826,-0.19667 c 0.43355,-0.10817 2.37577,-0.15027 4.31604,-0.0935 l 3.52777,0.10313 0.0917,16.49234 0.0917,16.49235 -3.79584,-0.0333 -3.79585,-0.0333 -1.94028,-2.17456 c -1.06714,-1.196 -5.27402,-5.86332 -9.3486,-10.37181 l -7.40832,-8.19727 -0.0934,10.40516 -0.0934,10.40515 h -4.40795 -4.40796 z m 42.24859,-0.0994 v -16.59173 l 4.14512,0.0994 4.14514,0.0994 0.0917,16.49234 0.0917,16.49235 h -4.23682 -4.23681 z m 15.6069,0.0994 0.0917,-16.49234 3.74523,-0.1118 c 4.41072,-0.13167 3.4838,-0.72236 9.86315,6.2854 2.38449,2.61938 5.81012,6.36255 7.61252,8.31816 1.80239,1.9556 3.61061,3.97966 4.01826,4.49791 0.40765,0.51824 0.88841,0.94226 1.06835,0.94226 0.19334,0 0.32718,-4.08495 0.32718,-9.98623 v -9.98623 l 4.14513,0.0203 4.14513,0.0203 0.0917,16.49234 0.0917,16.49235 h -3.65953 -3.65953 l -9.48491,-10.45464 -9.48492,-10.45465 -0.0934,10.45465 -0.0935,10.45464 h -4.40796 -4.40795 z M 143.2793,121.32987 c -4.46063,-0.57912 -7.78462,-1.87666 -10.6737,-4.16654 -2.79045,-2.21171 -4.74338,-4.84135 -5.82324,-7.84105 -1.62605,-4.51691 -1.66793,-5.12769 -1.8848,-27.486399 l -0.20711,-21.351508 -1.16752,-2.370512 c -0.69419,-1.409479 -2.08969,-3.336815 -3.44218,-4.75402 l -2.27466,-2.383507 0.0908,-9.52499 0.0908,-9.524989 18.60901,-0.09131 18.60901,-0.09131 v 28.913501 c 0,19.826675 0.12305,29.501022 0.39155,30.782952 1.09463,5.22616 4.70499,7.16928 9.27317,4.99087 l 1.27137,-0.60628 V 63.78737 31.749966 h 15.33645 15.33645 l 0.0976,30.611186 0.0976,30.611186 1.14994,2.33553 c 0.63247,1.28455 1.78591,2.9101 2.56321,3.61234 l 1.41326,1.276812 -0.0938,9.78545 -0.0938,9.78546 H 184.839 167.72929 l -0.17639,-2.72677 -0.17638,-2.72676 -2.29306,1.60238 c -4.56589,3.19064 -8.99748,4.81351 -14.81805,5.42644 -3.73265,0.39306 -3.8576,0.39282 -6.98611,-0.0134 z m 89.76124,-0.007 c -14.00522,-1.15462 -22.74873,-6.6795 -26.39894,-16.6813 -1.86797,-5.118352 -2.0427,-7.609692 -2.04499,-29.156462 -0.003,-24.141412 0.24211,-26.618954 3.23047,-32.710588 3.51523,-7.165654 11.13284,-11.332305 22.81482,-12.479173 5.61262,-0.551015 16.0345,-0.205485 21.23242,0.703945 7.50436,1.312967 14.89963,4.201703 20.09252,7.84853 l 2.47761,1.739955 V 52.749409 64.91104 h -14.1111 -14.11109 l -0.002,-3.26319 c -0.005,-8.196299 -1.79451,-11.471987 -6.06332,-11.099714 -2.18862,0.190865 -3.36251,1.01673 -4.28638,3.015588 -0.75124,1.625374 -0.76075,1.899381 -0.76075,21.930639 0,18.778815 0.0477,20.408355 0.64271,21.950355 0.93149,2.41409 2.31249,3.450902 4.58783,3.444422 2.33889,-0.007 3.38537,-0.55393 4.35098,-2.275362 1.11048,-1.97969 1.53097,-4.97052 1.53097,-10.8893 0,-5.12858 0.007,-5.174641 0.79375,-5.182845 0.43656,-0.0046 6.74687,-0.007 14.0229,-0.0054 l 13.22915,0.0029 0.0924,13.646645 0.0924,13.646652 -1.32712,1.21926 c -6.29241,5.78101 -16.18108,9.32674 -28.73342,10.30281 -4.89444,0.3806 -6.3994,0.37638 -11.35176,-0.0318 z m 66.09832,0.0307 c -3.63964,-0.47029 -6.81387,-1.63965 -9.71123,-3.57752 -6.8504,-4.58182 -10.10235,-12.51118 -9.58698,-23.376322 0.36543,-7.704073 2.1477,-12.11726 6.71222,-16.620559 2.58266,-2.548016 3.42774,-3.122565 7.65635,-5.205373 2.61429,-1.287673 7.05513,-3.144253 9.86852,-4.125734 2.8134,-0.98148 8.13153,-2.854766 11.81805,-4.162859 l 6.70276,-2.378348 -0.0115,-2.995679 c -0.006,-1.647623 -0.22867,-3.761434 -0.49409,-4.697358 -0.8852,-3.121348 -3.33276,-4.585172 -6.32111,-3.780494 -2.95569,0.795884 -4.28578,3.55725 -4.28578,8.897589 v 3.110966 H 297.19859 282.91111 V 51.684101 40.926604 l 1.4993,-1.09197 c 5.921,-4.312372 13.62408,-7.365285 22.66594,-8.983054 4.38188,-0.784005 14.60447,-1.067814 19.20104,-0.533076 14.98291,1.743023 23.26205,8.057632 25.97759,19.813452 0.51289,2.220361 0.63699,5.572555 0.83441,22.540188 0.20429,17.558064 0.30331,20.114984 0.83139,21.468994 0.71137,1.82395 2.86694,4.8539 3.81361,5.36054 0.63545,0.34009 0.67107,0.892242 0.67107,10.404252 v 10.0451 l -17.1979,-0.0915 -17.1979,-0.0916 -0.10128,-3.25202 -0.10128,-3.25203 -2.88571,2.13963 c -1.58714,1.17679 -3.96618,2.68374 -5.28677,3.34878 -4.28497,2.15788 -11.32916,3.26859 -16.49576,2.601 z m 18.87359,-24.277592 c 0.97014,-0.34133 2.43858,-1.05251 3.2632,-1.58041 l 1.49929,-0.95979 v -6.03104 -6.031035 l -0.83397,0.209314 c -1.73933,0.436544 -7.06291,2.833576 -8.62984,3.885732 -2.08183,1.397909 -3.2227,3.377749 -3.23036,5.605959 -0.0163,4.72921 3.04469,6.6207 7.93168,4.90127 z m 156.45677,24.269852 c -11.98561,-1.64888 -19.78721,-6.15128 -23.41659,-13.51397 -2.91927,-5.92215 -3.11073,-8.140782 -2.9428,-34.101104 0.12098,-18.70375 0.22127,-22.028398 0.7272,-24.107447 2.72554,-11.199979 8.7294,-16.426362 21.5952,-18.798704 4.97085,-0.916579 21.26149,-0.929361 26.42324,-0.02073 4.24126,0.746593 9.19683,2.361159 11.77562,3.836597 4.17796,2.390389 7.84753,6.789285 9.29997,11.148346 1.7137,5.143186 1.77723,5.857165 1.94485,21.856528 l 0.15984,15.257622 h -20.86396 -20.86395 l 0.10915,6.79096 c 0.0994,6.18472 0.17935,6.93337 0.89542,8.38617 1.01255,2.054332 2.30829,2.814522 4.79736,2.814522 1.60112,0 2.14828,-0.1694 3.08033,-0.953672 1.70183,-1.43199 2.17026,-2.93507 2.36892,-7.60118 l 0.17647,-4.14514 h 15.121 15.12101 v 11.11429 11.114292 l -2.37099,1.74103 c -5.35532,3.93245 -13.07971,6.89699 -22.23283,8.53272 -4.65861,0.83253 -16.82453,1.21016 -20.90446,0.64887 z m 15.5222,-62.192078 c 0,-3.278163 -0.0967,-3.829355 -0.97014,-5.532416 -2.12966,-4.152269 -7.39635,-4.345083 -9.60576,-0.351669 -0.7571,1.368438 -0.89649,2.13515 -1.0101,5.556244 l -0.1318,3.968746 h 5.8589 5.8589 z M 2.00613,119.73282 C 1.86391,119.59059 1.74754,114.77483 1.74754,109.03113 V 98.588028 l 2.02847,-1.12335 c 2.80806,-1.55509 5.52946,-4.04148 6.40657,-5.85336 0.71912,-1.48549 0.73717,-1.97806 0.73717,-20.111963 V 52.909898 l 17.1979,0.09155 17.1979,0.09155 0.091,20.725673 0.091,20.725677 12.60898,-0.009 c 7.34459,-0.005 13.271763,-0.16017 14.196464,-0.3716 2.359368,-0.53947 3.77541,-1.66209 4.860188,-3.85311 l 0.960659,-1.9399 V 60.324934 32.279131 L 77.198976,30.306922 C 76.6903,29.222206 75.817177,28.016176 75.258701,27.626855 72.761247,25.885847 74.050785,25.945987 36.76069,25.831425 L 1.74754,25.723858 V 12.861929 0 h 39.80257 c 26.291762,0 41.110674,0.131303 43.656203,0.386815 15.801637,1.586118 24.119897,9.133333 26.823857,24.337478 0.50726,2.852316 0.61319,7.10168 0.74992,30.082007 0.10062,16.911406 0.0197,29.056801 -0.21991,32.999668 -0.73208,12.04741 -3.02651,17.653362 -9.85406,24.076232 -4.16954,3.9224 -8.609965,6.02146 -15.316426,7.24032 -2.910962,0.52905 -7.747267,0.60908 -44.196814,0.73133 -22.51049,0.0755 -41.04453,0.0209 -41.18675,-0.12131 z m 360.16513,-0.0206 c -0.13091,-0.13091 -0.23803,-4.52503 -0.23803,-9.76469 v -9.52666 l 1.61743,-1.549772 c 0.88959,-0.85237 2.04052,-2.45235 2.55764,-3.5555 l 0.9402,-2.00572 V 75.670751 58.031882 l -0.94043,-1.763887 c -0.51724,-0.970138 -1.66818,-2.471627 -2.55764,-3.336642 l -1.6172,-1.572756 v -9.804315 -9.804316 h 17.27125 17.27126 l 0.10303,2.643583 0.10303,2.643583 1.5875,-1.075966 c 2.57666,-1.746393 6.66669,-3.706636 9.87777,-4.734155 4.33955,-1.388621 10.87324,-1.632937 15.30144,-0.57217 6.27714,1.503672 10.78881,4.977761 13.42716,10.33922 2.37715,4.830671 2.39623,5.045621 2.63957,29.737807 0.21847,22.16906 0.22108,22.23012 1.03642,24.26711 0.51785,1.29375 1.45472,2.67945 2.55652,3.78124 l 1.73912,1.739122 -0.0939,9.6243 -0.0939,9.62429 h -17.46248 -17.46248 l -0.17639,-28.927752 -0.17639,-28.927745 -0.79148,-1.954658 c -0.78706,-1.943752 -2.65501,-4.083492 -4.30658,-4.933188 -1.15426,-0.59385 -4.22195,-0.565356 -5.50847,0.05116 l -1.03512,0.496049 -0.0987,15.341137 c -0.11595,18.017505 0.13851,21.754505 1.69779,24.934425 0.65344,1.3326 1.61923,2.61887 2.47571,3.29721 l 1.40431,1.112252 -0.0937,9.75555 -0.0937,9.75556 -20.31126,0.091 c -11.17119,0.0501 -20.41837,-0.0161 -20.54928,-0.14699 z" /></g></svg>
