<?xml version="1.0" encoding="UTF-8" standalone="no"?>
<svg
   width="2369.1379"
   height="621.60498"
   viewBox="0 0 73.687771 19.344986"
   version="1.1"
   id="svg3"
   xmlns="http://www.w3.org/2000/svg"
   xmlns:svg="http://www.w3.org/2000/svg">
  <defs
     id="defs3" />
  <path
     d="M 70.058966,0 H 3.6710101 C 1.6440115,0 1.2607234e-5,1.527999 1.2607234e-5,3.4139976 V 15.931989 c 0,1.884999 1.643998892766,3.412998 3.670997492766,3.412998 H 70.058966 c 2.027999,0 3.670998,-1.527999 3.670998,-3.412998 V 3.4139976 C 73.729964,1.527999 72.086965,0 70.058966,0 Z m 3.055998,15.40199 c 0,1.726999 -1.615999,3.124998 -3.609997,3.124998 H 4.2260098 c -1.9939987,0 -3.6099976,-1.397999 -3.6099976,-3.124998 V 3.9419973 c 0,-1.7259988 1.6159989,-3.12499782 3.6099976,-3.12499782 H 69.504967 c 1.993998,0 3.609997,1.39899902 3.609997,3.12499782 z"
     fill="#cf4037"
     id="path1"
     style="display:inline" />
  <path
     id="path2-2"
     style="display:inline;fill:#cf4037;fill-opacity:1"
     d="m 4.3739945,1.5279881 c -1.6379989,0 -2.978986,1.347028 -2.978986,2.9930269 V 14.82298 c 0,1.645999 1.3399871,2.993026 2.978986,2.993026 H 69.356965 c 1.637999,0 2.978988,-1.347027 2.978988,-2.993026 V 4.521015 c 0,-1.6459989 -1.339989,-2.9930269 -2.978988,-2.9930269 z M 69.047155,2.967639 a 1.7679988,1.7679988 0 0 1 1.285989,0.5390257 c 0.335,0.3359997 0.51697,0.7869604 0.51697,1.2759611 0,0.4989997 -0.18596,0.9490064 -0.52596,1.2810061 -0.528,0.5169997 -1.313999,0.6710236 -1.964999,0.3930238 C 67.705156,6.1756559 67.245116,5.5006253 67.245116,4.7826258 a 1.8679988,1.8679988 0 0 1 1.011009,-1.6370139 c 0.241,-0.1190039 0.50403,-0.1779729 0.79103,-0.1779729 z m 0.007,0.2386949 a 1.5999989,1.5999989 0 0 0 -0.60272,0.1163399 c -0.573999,0.2369998 -0.967009,0.8540524 -0.967009,1.463052 a 1.6159989,1.6159989 0 0 0 0.962929,1.450956 1.531999,1.531999 0 0 0 1.194089,0.003 c 0.561,-0.2329998 0.97095,-0.8110154 0.97095,-1.440015 0,-0.6589996 -0.392,-1.2399932 -0.956,-1.473993 A 1.5999989,1.5999989 0 0 0 69.054215,3.2063559 Z m -0.72873,0.5102756 h 0.77505 c 0.563999,0 0.845979,0.1870059 0.845979,0.5530056 a 0.51899965,0.51899964 0 0 1 -0.457999,0.5430377 l 0.447969,0.9699783 h -0.423959 l -0.41801,-0.8969784 h -0.38403 v 0.8969784 h -0.385 z m 0.38403,0.2880518 v 0.5930006 h 0.32999 c 0.375,0 0.51903,-0.08301 0.51903,-0.2850118 0,-0.2139988 -0.16005,-0.3079888 -0.53605,-0.3079888 z" />
  <path
     d="M 8.5450069,11.007993 V 8.9779938 h 5.8009961 c 0.019,0.319 0.028,0.488 0.028,0.508 0,1.5239992 -0.478999,2.7959982 -1.435999,3.8169972 -0.956999,1.020999 -2.145998,1.530999 -3.5659977,1.530999 -1.382999,0 -2.5529983,-0.507 -3.5099976,-1.520999 -0.9569994,-1.013999 -1.4359991,-2.250998 -1.4359991,-3.7099972 0,-1.4589994 0.4809997,-2.6829985 1.4429991,-3.6719979 0.9619993,-0.9889993 2.1479985,-1.483999 3.5589976,-1.483999 1.0649997,0 2.0419987,0.3369998 2.9289987,1.0099994 0.887999,0.6739995 1.461999,1.5199989 1.723999,2.5379982 h -2.127999 c -0.439,-0.8549994 -0.940999,-1.5469989 -2.4189988,-1.5469989 -1.1099992,0 -1.7789988,0.5319996 -2.2649985,1.0659992 -0.4859996,0.5339996 -0.7289995,1.1999992 -0.7289995,1.998999 0,0.9289992 0.2479999,1.6769992 0.7429995,2.2459982 0.4949997,0.569 1.4199991,1.029999 2.2429985,1.029999 0.5229998,0 1.1469998,-0.318999 1.5159998,-0.603999 0.369999,-0.285 0.609999,-0.676 0.722999,-1.175999 H 8.5450069 Z M 20.208999,9.4379938 c 0.362,0.376999 0.544,0.8359992 0.544,1.3759992 0,0.550999 -0.179,1.012999 -0.537,1.383999 -0.356999,0.373 -0.803999,0.558999 -1.339999,0.558999 -0.545999,0 -1.000999,-0.185999 -1.363999,-0.558999 -0.361999,-0.372 -0.542999,-0.838 -0.542999,-1.398999 0,-0.54 0.183,-0.9970002 0.551999,-1.3689992 0.368,-0.372 0.82,-0.559 1.354999,-0.559 0.527,10e-4 0.97,0.19 1.332999,0.567 z m 1.692999,4.2969972 c 0.801,-0.774 1.202,-1.747999 1.202,-2.919998 0,-1.1719992 -0.403,-2.144999 -1.21,-2.9189985 C 21.086999,7.1209951 20.077,6.7329954 18.861,6.7329954 c -1.225999,0 -2.238998,0.3899997 -3.040998,1.1689991 -0.801999,0.7799995 -1.201999,1.7659993 -1.201999,2.9579985 0,1.162999 0.403,2.124998 1.209999,2.889998 0.807,0.764999 1.822999,1.146999 3.047998,1.146999 1.216,0 2.223999,-0.388 3.025998,-1.161999 z m 7.111996,-4.2969972 c 0.358999,0.376999 0.539999,0.8359992 0.539999,1.3759992 0,0.550999 -0.178,1.012999 -0.531999,1.383999 a 1.7529988,1.7529988 0 0 1 -1.327,0.558999 c -0.540999,0 -0.991999,-0.185999 -1.350999,-0.558999 -0.359999,-0.372 -0.539999,-0.838 -0.539999,-1.398999 0,-0.54 0.182,-0.9970002 0.546999,-1.3689992 a 1.8079988,1.8079988 0 0 1 1.342999,-0.559 c 0.52,10e-4 0.961,0.19 1.32,0.567 z m 1.676998,4.2969972 c 0.794,-0.774 1.191,-1.747999 1.191,-2.919998 0,-1.1719992 -0.4,-2.144999 -1.199,-2.9189985 -0.798999,-0.7749994 -1.800998,-1.1629991 -3.004997,-1.1629991 -1.215,0 -2.217999,0.3899997 -3.012998,1.1689991 -0.794,0.7799995 -1.19,1.7659993 -1.19,2.9579985 0,1.162999 0.398,2.124998 1.198,2.889998 0.798999,0.763999 1.805998,1.146999 3.020997,1.146999 1.204,0 2.201999,-0.388 2.996998,-1.161999 z m 7.053996,-4.2779972 c 0.346,0.364999 0.518999,0.8159992 0.518999,1.3529992 0,0.567999 -0.172999,1.036999 -0.518999,1.406999 -0.345,0.37 -0.788,0.554999 -1.324999,0.554999 -0.528,0 -0.962,-0.182999 -1.302999,-0.546999 -0.341,-0.365 -0.511,-0.832 -0.511,-1.398999 0,-0.557 0.172,-1.0160002 0.518,-1.3759992 0.345999,-0.36 0.786999,-0.54 1.324999,-0.54 0.518999,-0.001 0.950999,0.182 1.295999,0.547 z M 38.160987,7.6699947 C 37.582988,7.0779952 36.871988,6.7819954 36.025989,6.7819954 c -1.028999,0 -1.881999,0.3829997 -2.559998,1.1469991 -0.678,0.7649995 -1.017,1.7299993 -1.017,2.8949985 0,1.185999 0.338,2.159998 1.014,2.924998 0.676999,0.763999 1.542999,1.146999 2.597998,1.146999 0.920999,0 1.654999,-0.355 2.201998,-1.065999 v 0.806999 h 2.054999 V 4.4829969 H 38.160987 Z M 43.570984,14.64299 H 41.394985 V 7.0469952 h 2.070999 v 0.8139993 c 0.436,-0.7019994 1.098999,-1.0519992 1.988999,-1.0519992 0.928999,0 1.630999,0.4459998 2.104998,1.3399991 0.532,-0.8939993 1.301999,-1.3399991 2.308999,-1.3399991 0.744999,0 1.368999,0.2519999 1.872998,0.7569994 0.377,0.3739998 0.614,0.8289995 0.711,1.3639991 0.058,0.282 0.087,0.807999 0.087,1.5749992 v 4.136997 h -2.174999 v -4.030997 c 0,-1.1899992 -0.299999,-1.6819992 -1.080999,-1.6819992 -0.798999,0 -1.197999,0.525 -1.197999,1.5759992 v 4.136997 h -2.174999 v -4.136997 c 0,-1.0509992 -0.372999,-1.5759992 -1.119999,-1.5759992 -0.813999,0 -1.220999,0.525 -1.220999,1.5759992 v 4.137997 z m 15.03399,-5.1869962 c 0.346,0.365999 0.518999,0.8229992 0.518999,1.3719992 0,0.568999 -0.170999,1.036999 -0.510999,1.401999 -0.341,0.366 -0.779,0.547999 -1.313999,0.547999 -0.516,0 -0.949,-0.184999 -1.299999,-0.555999 -0.351,-0.371 -0.526,-0.83 -0.526,-1.378999 0,-0.549 0.173,-1.0090002 0.518,-1.3799992 0.345999,-0.37 0.776999,-0.556 1.292999,-0.556 0.534999,10e-4 0.974999,0.184 1.320999,0.549 z M 59.248973,7.8609945 C 58.850974,7.1459951 58.112974,6.7879954 57.035975,6.7879954 c -1.096999,0 -1.993999,0.3789997 -2.691998,1.1369991 -0.699,0.7579995 -1.048,1.7329993 -1.048,2.9249985 0,1.202999 0.342,2.178998 1.026,2.925998 0.682999,0.747999 1.573999,1.120999 2.669998,1.120999 1.163999,0 1.916999,-0.358 2.256998,-1.076999 v 0.817999 h 2.052999 V 7.0469952 H 59.248973 Z M 64.56197,14.64299 H 62.296971 V 7.0469952 h 2.155999 v 0.8139993 c 0.493,-0.7019994 1.183999,-1.0519992 2.070999,-1.0519992 0.825999,0 1.500999,0.2569999 2.024998,0.7719994 0.291,0.2929998 0.49,0.5989996 0.597,0.9169994 0.105,0.3179997 0.158,0.7859997 0.158,1.4009987 V 14.64199 h -2.264999 v -4.136997 c 0,-1.0509992 -0.395,-1.5759992 -1.185999,-1.5759992 -0.861999,0 -1.292999,0.495 -1.292999,1.4839992 v 4.229997 z"
     fill="#ffffff"
     id="path3"
     style="display:inline" />
</svg>
