<?xml version="1.0" encoding="UTF-8" standalone="no"?>
<svg
   width="2452.875"
   height="862.31897"
   viewBox="0 0 44.446095 15.630126"
   version="1.1"
   id="svg19"
   xml:space="preserve"
   xmlns="http://www.w3.org/2000/svg"
   xmlns:svg="http://www.w3.org/2000/svg"><defs
     id="defs19" /><path
     d="m 25.433011,10.799995 c -1.642999,0.178 -3.648998,-0.042 -5.699997,-0.599999 -1.212,-0.3830001 -2.748999,-0.9439999 -4.319998,-1.4999996 l -1.08,4.2599986 h 10.559996 z"
     id="path65"
     style="fill:#0e6bae;fill-opacity:1" /><path
     style="fill:#0e6bae;fill-opacity:1"
     d="m 26.213011,10.619996 -0.6,2.339999 h 6.179998 l 1.019999,-4.1399987 c -1.314999,0.4269998 -3.281328,0.9506282 -4.651307,1.0804866 -0.47598,0.3418581 -1.26669,0.5745131 -1.94869,0.7195131 z"
     id="path66" /><path
     style="fill:#ec1757;fill-opacity:1"
     d="m 32.453008,8.0999966 c 0.178,-0.08 0.426,-0.1669999 0.6,-0.2399999 L 35.033007,0 H 28.85301 l -2.459999,10.019996 c 0.52,0.007 1.258534,-0.025584 1.76869,-0.1195131 1.717155,-0.4459291 3.123308,-1.3214865 4.291307,-1.8004863 z"
     id="path64" /><path
     d="m 15.713015,7.4399969 c 2.945999,1.1389995 6.629998,2.398999 9.899996,2.5799991 l 0.36,-1.3199996 h -4.439998 l 0.18,-0.7799997 h 3.239999 l 0.719999,-2.8799988 h -3.239998 l 0.24,-0.7199997 h 4.439998 L 28.13301,0 H 17.573015 Z"
     id="path63"
     style="fill:#ec1757;fill-opacity:1" /><path
     d="M 15.053016,7.199997 C 13.490016,6.5479973 12.174017,5.9959975 11.333017,5.7599976 6.1280194,4.1099983 2.2530211,6.7969972 1.3130214,7.6799968 L 3.1730207,0 H 9.3530181 L 8.2730185,4.3199982 H 9.653018 L 10.733018,0 h 6.119997 z"
     id="path62"
     style="fill:#ec1757;fill-opacity:1" /><path
     d="m 40.013005,7.4399969 c -2.071999,-0.6889997 -5.009998,0.6699997 -5.699997,0.8999996 -0.135,0.07 -0.376,0.1529999 -0.72,0.2399999 l -1.08,4.3799986 h 10.919996 l 1.019999,-4.2599986 h -4.739998 z"
     id="path61"
     style="fill:#0e6bae;fill-opacity:1" /><path
     d="M 40.493005,5.7599976 C 38.826006,5.5709977 37.261006,5.9349975 33.953008,7.4399969 L 35.813007,0 h 6.119997 z"
     id="path1"
     style="fill:#ec1757;fill-opacity:1" /><path
     style="fill:#0e6bae;fill-opacity:1"
     d="M 14.693016,8.3999965 C 12.436017,7.5529968 10.218018,6.7499972 9.0530182,6.5999972 7.6280188,6.4849973 4.4410201,5.4219977 1.1330215,8.2799965 L -0.00697797,12.959995 H 6.1130194 L 7.193019,8.6999964 H 8.5130184 L 7.4930189,12.959995 h 6.1199971 z"
     id="path2" /><g
     id="g69"
     transform="matrix(1.0122933,0,0,1.0122933,-0.006844,-1.0125558)"><path
       id="path19"
       d="m 27.96,14.76 c -0.079,-0.295 -0.358,-0.424 -0.72,-0.42 -0.703,-0.004 -1.14,0.569 -1.14,1.2 -0.042,0.573 0.259,0.899 0.78,0.9 0.399,-0.001 0.662,-0.156 0.84,-0.42 L 27.48,15.9 a 0.567,0.567 0 0 1 -0.54,0.3 c -0.427,0.014 -0.609,-0.253 -0.6,-0.66 0.022,-0.465 0.315,-0.98 0.9,-0.96 0.22,-0.02 0.4,0.089 0.48,0.24 z m 12.48,0 c -0.09,-0.295 -0.37,-0.424 -0.72,-0.42 -0.714,-0.004 -1.151,0.569 -1.2,1.2 0.007,0.573 0.308,0.899 0.84,0.9 0.388,-0.001 0.65,-0.156 0.78,-0.42 L 39.96,15.9 c -0.118,0.189 -0.308,0.314 -0.6,0.3 -0.378,0.014 -0.56,-0.253 -0.54,-0.66 0.011,-0.465 0.304,-0.98 0.84,-0.96 0.269,-0.02 0.449,0.089 0.48,0.24 z m -23.04,0 c -0.065,-0.295 -0.345,-0.424 -0.72,-0.42 -0.69,-0.004 -1.126,0.569 -1.14,1.2 -0.028,0.573 0.272,0.899 0.84,0.9 a 0.876,0.876 0 0 0 0.78,-0.42 L 16.92,15.9 a 0.543,0.543 0 0 1 -0.54,0.3 c -0.414,0.014 -0.596,-0.253 -0.6,-0.66 0.035,-0.465 0.328,-0.98 0.9,-0.96 0.233,-0.02 0.414,0.089 0.48,0.24 z m 20.64,0.84 c -0.011,0.141 -0.05,0.293 -0.06,0.36 -0.173,0.344 -0.484,0.479 -0.84,0.48 -0.573,-0.001 -0.817,-0.316 -0.66,-0.9 l 0.24,-1.14 h 0.3 l -0.3,1.26 c -0.115,0.36 0.055,0.554 0.42,0.54 0.462,0.014 0.566,-0.236 0.66,-0.6 l 0.3,-1.2 h 0.24 z m 4.2,-1.02 h -0.66 l -0.42,1.8 h -0.3 l 0.42,-1.8 h -0.66 l 0.06,-0.18 h 1.62 z m 1.38,0.3 c -0.004,-0.246 -0.179,-0.32 -0.42,-0.3 -0.194,-0.02 -0.465,0.071 -0.48,0.3 0,0.204 0.141,0.282 0.3,0.36 l 0.3,0.06 c 0.237,0.054 0.466,0.169 0.48,0.54 -0.041,0.402 -0.467,0.599 -0.84,0.6 -0.413,-0.001 -0.721,-0.165 -0.78,-0.54 l 0.3,-0.06 c 0.02,0.284 0.224,0.374 0.48,0.36 0.28,0.014 0.537,-0.101 0.54,-0.36 0.014,-0.216 -0.144,-0.29 -0.36,-0.36 L 42.9,15.42 c -0.246,-0.061 -0.452,-0.207 -0.42,-0.48 -0.008,-0.411 0.373,-0.604 0.72,-0.6 0.344,-0.004 0.638,0.133 0.72,0.42 z M 27.96,14.76 c -0.082,-0.291 -0.381,-0.424 -0.72,-0.42 -0.703,-0.004 -1.14,0.569 -1.14,1.2 -0.042,0.573 0.259,0.899 0.78,0.9 0.244,-0.001 0.712,-0.095 0.84,-0.24 l 0.24,-0.84 h -0.9 L 27,15.54 h 0.66 l -0.12,0.48 a 0.83,0.83 0 0 1 -0.6,0.18 c -0.427,0.014 -0.608,-0.253 -0.6,-0.66 0.022,-0.465 0.315,-0.98 0.9,-0.96 0.205,-0.02 0.404,0.067 0.48,0.24 z m 6.72,1.38 h 0.42 c 0.598,0.026 0.894,-0.475 0.9,-0.96 0.021,-0.296 -0.079,-0.572 -0.54,-0.6 h -0.42 z m 0.18,-1.74 h 0.66 c 0.527,-0.017 0.775,0.276 0.78,0.78 -0.047,0.728 -0.517,1.211 -1.2,1.2 h -0.78 z m -1.62,1.8 c 0.538,0.014 0.837,-0.498 0.84,-0.96 0.027,-0.387 -0.163,-0.68 -0.54,-0.66 -0.554,-0.02 -0.847,0.495 -0.84,0.96 -0.038,0.407 0.144,0.674 0.54,0.66 z m 0.3,-1.86 c 0.535,-0.004 0.838,0.386 0.84,0.9 -0.041,0.614 -0.472,1.199 -1.14,1.2 -0.55,-0.001 -0.851,-0.327 -0.84,-0.9 0.031,-0.631 0.468,-1.205 1.14,-1.2 z m -2.52,0.96 h 0.6 c 0.413,0.008 0.495,-0.245 0.48,-0.36 0.028,-0.278 -0.165,-0.332 -0.36,-0.36 H 31.2 Z m -0.06,-0.9 h 0.78 c 0.344,-0.017 0.661,0.099 0.66,0.48 -0.022,0.282 -0.216,0.516 -0.48,0.54 0.167,0.074 0.212,0.254 0.18,0.48 -0.013,0.159 -0.086,0.331 0,0.48 h -0.3 a 0.884,0.884 0 0 1 0.06,-0.42 c 0.073,-0.477 -0.198,-0.427 -0.3,-0.42 h -0.6 l -0.24,0.84 h -0.24 z m -1.62,0.96 h 0.6 c 0.271,-0.015 0.435,-0.184 0.42,-0.42 0.032,-0.25 -0.117,-0.332 -0.3,-0.36 h -0.54 z m -7.2,-0.96 h 0.24 l -0.42,1.74 h 1.08 l -0.06,0.24 h -1.32 z m 1.5,0 h 0.3 l -0.54,1.98 h -0.24 z m 0.78,0 h 0.3 l 0.66,1.62 0.36,-1.62 h 0.3 l -0.54,1.98 h -0.24 l -0.66,-1.62 -0.42,1.62 h -0.24 z m 4.86,0 h 0.78 c 0.398,-0.017 0.603,0.172 0.6,0.54 -0.018,0.248 -0.209,0.63 -0.78,0.66 h -0.6 l -0.24,0.78 H 28.8 Z m -8.82,1.8 c 0.526,0.014 0.826,-0.498 0.84,-0.96 0.015,-0.387 -0.174,-0.68 -0.54,-0.66 -0.565,-0.02 -0.859,0.495 -0.9,0.96 0.011,0.407 0.193,0.674 0.6,0.66 z m 0.3,-1.86 c 0.522,-0.004 0.827,0.386 0.78,0.9 0.008,0.614 -0.423,1.199 -1.08,1.2 -0.562,-0.001 -0.862,-0.327 -0.84,-0.9 0.02,-0.631 0.456,-1.205 1.14,-1.2 z M 18.3,16.2 c 0.552,0.014 0.852,-0.498 0.84,-0.96 0.041,-0.387 -0.149,-0.68 -0.54,-0.66 -0.54,-0.02 -0.833,0.495 -0.84,0.96 -0.023,0.407 0.158,0.674 0.54,0.66 z m 0.3,-1.86 c 0.548,-0.004 0.853,0.386 0.84,0.9 -0.027,0.614 -0.458,1.199 -1.14,1.2 -0.536,-0.001 -0.836,-0.327 -0.84,-0.9 0.045,-0.631 0.482,-1.205 1.14,-1.2 z m -5.04,1.08 c -0.186,0.116 -0.427,0.254 -0.42,0.48 -0.021,0.193 0.141,0.314 0.3,0.3 0.201,0.014 0.318,-0.053 0.48,-0.18 z m 0.12,-0.24 c 0.135,-0.09 0.353,-0.203 0.36,-0.36 0.003,-0.144 -0.092,-0.226 -0.24,-0.24 -0.122,0.015 -0.238,0.11 -0.24,0.24 -0.008,0.148 0.05,0.247 0.12,0.36 z M 7.32,14.58 H 6.66 l -0.48,1.8 H 5.94 l 0.42,-1.8 H 5.7 L 5.76,14.4 H 7.38 Z M 7.68,14.4 H 7.92 L 7.44,16.38 H 7.2 Z m 0.78,0 H 8.7 l 0.66,1.62 H 9.42 L 9.78,14.4 h 0.24 L 9.54,16.38 H 9.24 L 8.58,14.76 8.22,16.38 H 7.92 Z M 12,14.76 c -0.075,-0.291 -0.374,-0.424 -0.72,-0.42 -0.696,-0.004 -1.132,0.569 -1.14,1.2 -0.035,0.573 0.266,0.899 0.84,0.9 0.191,-0.001 0.659,-0.095 0.84,-0.24 L 12,15.36 h -0.9 l -0.061,0.18 h 0.66 l -0.12,0.48 a 0.809,0.809 0 0 1 -0.6,0.18 c -0.42,0.014 -0.602,-0.253 -0.6,-0.66 0.029,-0.465 0.323,-0.98 0.9,-0.96 0.212,-0.02 0.411,0.067 0.48,0.24 z m 2.04,1.44 c -0.187,0.13 -0.381,0.225 -0.6,0.24 -0.324,-0.015 -0.565,-0.209 -0.54,-0.54 -0.002,-0.33 0.299,-0.496 0.54,-0.6 -0.046,-0.152 -0.128,-0.292 -0.12,-0.48 0.007,-0.26 0.225,-0.437 0.54,-0.42 0.208,-0.017 0.428,0.11 0.42,0.36 -0.011,0.29 -0.286,0.45 -0.54,0.6 l 0.3,0.48 a 0.982,0.982 0 0 0 0.24,-0.42 h 0.18 a 0.963,0.963 0 0 1 -0.3,0.6 l 0.24,0.36 H 14.1 Z M 4.38,15.54 H 5.1 L 4.98,14.64 Z M 0.54,14.4 H 0.78 L 0.6,15.24 H 1.62 L 1.86,14.4 H 2.1 l -0.48,1.98 h -0.3 l 0.24,-0.9 H 0.54 L 0.3,16.38 H 0 Z m 2.04,0 H 3.96 L 3.9,14.58 H 2.76 L 2.58,15.24 H 3.66 L 3.6,15.48 H 2.58 L 2.4,16.14 H 3.54 L 3.48,16.38 H 2.04 Z m 2.28,0 h 0.3 l 0.3,1.98 H 5.22 L 5.1,15.78 H 4.26 L 3.9,16.38 H 3.6 Z"
       style="fill:#000000;fill-opacity:1" /></g></svg>
