<?xml version="1.0" encoding="UTF-8" standalone="no"?>
<svg
   width="2149.5049"
   height="1023.729"
   viewBox="0 0 165.73199 78.931963"
   version="1.1"
   id="svg6"
   xmlns="http://www.w3.org/2000/svg"
   xmlns:svg="http://www.w3.org/2000/svg">
  <defs
     id="defs6" />
  <path
     d="m 39.466982,78.931964 c 21.79599,0 39.466982,-17.669992 39.466982,-39.465982 C 78.933964,17.669992 61.263972,0 39.466982,0 17.669992,0 0,17.669992 0,39.465982 0,61.261972 17.669992,78.931964 39.466982,78.931964 Z"
     fill="#a70b52"
     id="path2" />
  <path
     fill="#ffffff"
     d="M 49.076978,53.354976 H 40.903981 V 22.46499 h -3.030998 v 33.937984 h 3.030998 v -0.02 h 8.172997 z"
     id="path3" />
  <path
     d="m 69.476968,40.729981 h -20.35199 v -3.030998 h 23.332989 c 0.031,0.586 0.046,1.172999 0.046,1.766999 0,18.246992 -14.791993,33.037985 -33.037985,33.037985 -18.245992,0 -33.0379849,-14.790993 -33.0379849,-33.037985 0,-18.246992 14.7919929,-33.0379849 33.0389849,-33.0379849 0.481,0 0.961,0.01 1.437999,0.031 l -0.004,3.0079986 a 31.022986,31.022986 0 0 0 -1.433999,-0.033 c -16.585992,0 -30.0329863,13.4459943 -30.0329863,30.0319863 0,16.586992 13.4459943,30.031986 30.0329863,30.031986 16.133993,0 29.295987,-12.721994 30.001986,-28.682987 z"
     fill="#ffffff"
     id="path4" />
  <path
     d="m 27.142988,31.608986 a 4.642498,4.642498 0 1 0 0,-9.284996 4.642498,4.642498 0 0 0 0,9.284996 z"
     fill="#ffffff"
     id="path5" />
  <path
     fill="#808183"
     d="m 89.65458,61.550857 h 31.92534 V 51.909066 H 101.37597 V 17.38337 H 89.65458 Z M 160.15276,20.493151 C 156.49278,17.65733 151.78,16.219608 146.1559,16.219608 c -6.67805,0 -12.25798,2.0513 -16.13756,5.927489 -4.0494,4.051657 -6.19353,10.0199 -6.19353,17.259452 0,7.734262 2.2664,14.260612 6.38145,18.372271 3.23091,3.229778 7.53502,4.933536 12.46062,4.933536 10.81235,0 13.2995,-6.481069 13.2995,-6.481069 v 5.317307 h 9.76404 V 36.604689 h -19.4364 v 7.805583 h 8.94557 c 0,0 0.086,9.82745 -9.14707,9.82745 -2.34566,0 -4.43544,-0.851312 -6.04297,-2.458844 -2.50525,-2.502993 -3.82976,-6.721065 -3.82976,-12.188936 0,-9.056513 3.59994,-14.463252 9.62706,-14.463252 3.76525,0 6.5954,2.311674 7.32106,5.815412 h 12.43458 c -0.64413,-5.09089 -2.04109,-7.744449 -5.44973,-10.448951 z"
     id="path6"
     style="stroke-width:1.13207" />
</svg>
