<?xml version="1.0" encoding="UTF-8" standalone="no"?>
<!-- Generator: Adobe Illustrator 28.0.0, SVG Export Plug-In . SVG Version: 6.00 Build 0)  -->

<svg
   version="1.1"
   id="Layer_1"
   x="0px"
   y="0px"
   viewBox="0 0 288 115.7"
   style="enable-background:new 0 0 288 115.7;"
   xml:space="preserve"
   xmlns="http://www.w3.org/2000/svg"
   xmlns:svg="http://www.w3.org/2000/svg"><defs
   id="defs27">
		
		
		
		
		
		
		
		
		
		
		
		
		
		
		
		
		
		
		
		
		
		
		
		
		
		
		
		
		
		
		
		
		
		
		
		
		
		
		
		
		
		
		
		
	</defs>
<polygon
   points="32.1,83.5 48.2,55.7 16.1,55.7 0,83.5 "
   id="polygon1"
   style="fill:#ee2e00;fill-opacity:1" /><polygon
   points="80.3,55.7 48.2,55.7 64.3,83.5 96.4,83.5 "
   id="polygon2"
   style="fill:#ee2e00;fill-opacity:1" /><polygon
   points="48.2,55.7 64.3,27.8 48.2,0 32.1,27.8 "
   id="polygon3"
   style="fill:#ee2e00;fill-opacity:1" /><polygon
   points="123.7,67 110.8,67 110.8,61.3 125.3,61.3 125.3,56.6 110.8,56.6 105.4,56.6 105.4,61.3 105.4,78.9 105.4,83.5 110.8,83.5 125.7,83.5 125.7,78.9 110.8,78.9 110.8,71.7 123.7,71.7 "
   id="polygon4" /><polygon
   points="116.4,52.1 121.2,52.1 121.4,52.1 127.1,32.1 127.1,52.1 132.2,52.1 132.2,25.2 129.4,25.2 127,25.2 124.4,25.2 118.8,44.1 113.2,25.2 110.5,25.2 108.1,25.2 105.4,25.2 105.4,52.1 110.4,52.1 110.4,32.1 116.2,52.1 "
   id="polygon5" /><rect
   x="228.89999"
   y="25.200001"
   width="5.4000001"
   height="26.9"
   id="rect5" /><rect
   x="233.39999"
   y="56.599998"
   width="5.4000001"
   height="26.9"
   id="rect6" /><rect
   x="282.60001"
   y="25.200001"
   width="5.4000001"
   height="26.9"
   id="rect7" /><rect
   x="134.39999"
   y="25.200001"
   width="5.4000001"
   height="26.9"
   id="rect8" /><polygon
   points="264.2,25.2 258.9,25.2 258.9,52.1 264.2,52.1 264.2,40.4 275,40.4 275,52.1 280.3,52.1 280.3,25.2 275,25.2 275,35.7 264.2,35.7 "
   id="polygon8" /><polygon
   points="153.3,29.9 159.9,29.9 159.9,25.2 153.3,25.2 147.8,25.2 141.2,25.2 141.2,29.9 147.8,29.9 147.8,52.1 153.3,52.1 "
   id="polygon9" /><polygon
   points="202.8,61.3 209.4,61.3 209.4,56.6 202.8,56.6 197.3,56.6 190.7,56.6 190.7,61.3 197.3,61.3 197.3,83.5 202.8,83.5 "
   id="polygon10" /><path
   d="m 193.6,52.9 c 6.9,0 10.7,-3.2 10.7,-9.2 V 25.2 h -5.4 v 19 c 0,2.3 -1.9,4.2 -5.3,4.2 -4.1,0 -5.3,-2.3 -5.3,-4.2 v -19 H 183 v 18.5 c 0,6.5 4,9.2 10.6,9.2"
   id="path10" /><polygon
   points="165.4,67 152.6,67 152.6,61.3 167.1,61.3 167.1,56.6 152.6,56.6 147.1,56.6 147.1,61.3 147.1,78.9 147.1,83.5 152.6,83.5 167.4,83.5 167.4,78.9 152.6,78.9 152.6,71.7 165.4,71.7 "
   id="polygon11" /><path
   d="m 218.4,29.5 c 1.7,0.1 3.1,1.5 3.1,3.2 0,1.8 -1.4,3.4 -3.3,3.4 -0.1,0 -0.1,0 -0.2,0 h -6.5 V 29.5 Z M 218,48.1 h -6.4 v -7.8 h 6.3 c 2.3,0 4.2,1.3 4.2,3.9 0,2.2 -1.8,3.9 -3.9,3.9 -0.1,0 -0.1,0 -0.2,0 m -6.1,4 h 7.8 c 5.1,0 8.1,-3 8.1,-7.3 0,-3.2 -2.1,-6 -5.2,-7 2.6,-0.8 4.4,-3.3 4.3,-6 0,-4 -2.9,-6.6 -8.4,-6.6 h -12.2 v 26.9 z"
   id="path11" /><path
   d="m 216.2,68.6 v -7.3 h 6.6 c 1.9,-0.1 3.6,1.4 3.7,3.4 0,0.1 0,0.2 0,0.3 0,2 -1.6,3.5 -3.5,3.7 z m 10.8,2 c 2.9,-0.8 4.9,-3.5 4.8,-6.5 0,-4.8 -3.2,-7.5 -8.8,-7.5 h -12.3 v 27 h 5.4 V 72.9 h 4.6 c 2.8,0 4.3,1.4 4.8,3.4 0.5,2.1 0.4,5.3 0.9,7.2 h 5.5 c -0.5,-2.3 -0.9,-4.7 -1,-7.1 -0.1,-3.6 -2,-5.1 -3.9,-5.8"
   id="path12" /><polygon
   points="127.4,78.9 127.4,83.5 132.9,83.5 145.6,83.5 145.6,78.9 132.9,78.9 132.9,56.6 127.4,56.6 "
   id="polygon12" /><path
   d="m 169,40.8 c 4.4,0.8 6.9,1.6 6.9,4.2 0,1.8 -1.8,3.4 -5.4,3.4 -3.6,0 -5.5,-2.1 -5.5,-4.5 h -5.2 c 0,4.7 3,9 11,9 7.5,0 10.8,-4 10.8,-8.5 0,-4.2 -2.8,-6.9 -7.8,-7.9 -4.8,-0.9 -8.1,-1.1 -8.1,-4.2 0,-2.1 1.9,-3.3 4.8,-3.3 3.1,0 4.9,1.5 4.9,4.1 h 5.3 c 0,-4.2 -3.2,-8.6 -10.4,-8.6 -4.9,0 -10.1,2.9 -10.1,8.2 0.1,4.4 3.4,7.1 8.8,8.1"
   id="path13" /><path
   d="m 244.9,40.8 c 4.4,0.8 6.9,1.6 6.9,4.2 0,1.8 -1.8,3.4 -5.4,3.4 -3.6,0 -5.5,-2.1 -5.5,-4.5 h -5.2 c 0,4.7 3,9 10.9,9 7.5,0 10.8,-4 10.8,-8.5 0,-4.2 -2.8,-6.9 -7.8,-7.9 -4.8,-0.9 -8,-1.1 -8,-4.2 0,-2.1 1.9,-3.3 4.8,-3.3 3.1,0 4.9,1.5 4.9,4.1 h 5.3 c 0,-4.2 -3.2,-8.6 -10.4,-8.6 -4.9,0 -10.1,2.9 -10.1,8.2 0.1,4.4 3.4,7.1 8.8,8.1"
   id="path14" /><path
   d="m 179.7,79.4 c -4.4,0 -7,-4.3 -7,-9.4 0,-5.1 2.5,-9.4 7,-9.4 3.3,0 5,2.1 5.8,4.6 h 5.6 c -0.9,-5.3 -5,-9.2 -11.6,-9.2 -8.2,0 -12.4,6.3 -12.4,14.1 0,7.8 4.3,14.1 12.4,14.1 6.5,0 10.8,-3.8 11.6,-9.5 h -5.7 c -0.6,2.6 -2.4,4.7 -5.7,4.7"
   id="path15" /><path
   d="m 252.7,79.4 c -4.4,0 -6.9,-4.3 -6.9,-9.4 0,-5.1 2.5,-9.4 6.9,-9.4 3.3,0 5,2.1 5.8,4.6 h 5.6 c -0.9,-5.3 -5,-9.2 -11.6,-9.2 -8.2,0 -12.4,6.3 -12.4,14.1 0,7.8 4.3,14.1 12.4,14.1 6.5,0 10.8,-3.8 11.6,-9.5 h -5.7 c -0.7,2.6 -2.5,4.7 -5.7,4.7"
   id="path16" /><polygon
   points="1.9,109.1 1.9,104.6 0,104.6 0,115.5 1.9,115.5 1.9,110.9 7.2,110.9 7.2,115.5 9.1,115.5 9.1,104.6 7.2,104.6 7.2,109.1 "
   id="polygon16" /><polygon
   points="21.7,115.5 21.7,113.8 15.4,113.8 15.4,110.9 20.9,110.9 20.9,109.1 15.4,109.1 15.4,106.3 21.6,106.3 21.6,104.6 13.5,104.6 13.5,115.5 "
   id="polygon17" /><path
   d="m 30.3,106.8 1.9,4.4 h -3.8 z m -0.9,-2.3 -4.8,11 h 2 l 1.1,-2.7 h 5.2 l 1.1,2.7 h 2 l -4.8,-11 z"
   id="path17" /><polygon
   points="40.8,106.3 40.8,115.5 42.7,115.5 42.7,106.3 46.2,106.3 46.2,104.6 37.3,104.6 37.3,106.3 "
   id="polygon18" /><rect
   x="49.900002"
   y="104.6"
   width="1.9"
   height="11"
   id="rect18" /><polygon
   points="58.1,104.6 56.3,104.6 56.3,115.5 58.2,115.5 58.2,107.7 64.2,115.5 65.8,115.5 65.8,104.6 64,104.6 64,112.1 "
   id="polygon19" /><path
   d="m 69.7,110.1 v 0 c 0,-3.1 2.4,-5.6 5.5,-5.7 0.1,0 0.1,0 0.2,0 1.5,-0.1 3.1,0.5 4.2,1.5 l -1.2,1.5 c -0.8,-0.8 -1.9,-1.2 -3.1,-1.2 -2,0.1 -3.6,1.8 -3.5,3.8 v 0 c -0.2,2 1.3,3.8 3.3,4 0.1,0 0.3,0 0.4,0 0.9,0 1.9,-0.3 2.7,-0.8 v -2 h -2.8 v -1.7 H 80 v 4.5 c -1.3,1.1 -2.9,1.7 -4.6,1.7 -3,0.1 -5.5,-2.2 -5.7,-5.2 0,-0.1 0,-0.3 0,-0.4"
   id="path19" /><path
   d="m 95.3,107.2 v 0 c 0,-0.7 -0.5,-1.2 -1.1,-1.2 h -0.1 c -0.7,0 -1.3,0.5 -1.3,1.2 v 0.1 0 c 0,0.6 0.3,1.2 0.8,1.6 1.1,-0.5 1.7,-1 1.7,-1.7 m 0.1,6 -2.4,-2.5 c -0.8,0.2 -1.4,1 -1.5,1.8 v 0 c 0,0.9 0.8,1.6 1.7,1.6 h 0.1 c 0.9,-0.1 1.6,-0.4 2.1,-0.9 m 1.1,1 c -0.9,0.9 -2.1,1.4 -3.4,1.4 -2,0 -3.6,-1.2 -3.6,-3.1 v 0 c 0,-1.4 1,-2.7 2.3,-3.1 -0.6,-0.6 -0.9,-1.4 -0.9,-2.3 v 0 c 0.1,-1.6 1.4,-2.8 3,-2.8 0.1,0 0.1,0 0.2,0 1.5,-0.1 2.8,1.1 2.8,2.6 v 0 0 c 0,1.4 -1,2.3 -2.4,2.8 l 1.9,1.9 c 0.4,-0.7 0.8,-1.4 1.2,-2.1 l 1.4,0.8 c -0.4,0.9 -0.9,1.8 -1.4,2.6 l 1.7,1.8 -1.4,1 z"
   id="path20" /><path
   d="m 113.8,106.8 1.9,4.4 H 112 Z m -0.8,-2.3 -4.8,11 h 2 l 1.1,-2.7 h 5.2 l 1.1,2.7 h 2 l -4.8,-11 z"
   id="path21" /><rect
   x="123.1"
   y="104.6"
   width="1.9"
   height="11"
   id="rect21" /><path
   d="m 134.3,110 c 1.4,0 2.3,-0.7 2.3,-1.8 v 0 c 0,-1.2 -0.9,-1.8 -2.3,-1.8 h -2.8 v 3.7 z m -4.7,-5.4 h 4.9 c 1.2,-0.1 2.3,0.3 3.2,1.1 0.6,0.6 0.9,1.5 0.9,2.4 v 0 c 0,1.6 -1,3 -2.6,3.3 l 3,4.2 h -2.3 l -2.7,-3.8 h -2.4 v 3.8 h -1.9 z"
   id="path22" /><path
   d="m 148.2,110.1 v 0 c -0.1,-3.1 2.3,-5.6 5.4,-5.7 0.1,0 0.2,0 0.2,0 1.6,-0.1 3.2,0.6 4.3,1.7 l -1.2,1.4 c -0.8,-0.8 -1.9,-1.3 -3.1,-1.3 -2,0 -3.6,1.7 -3.6,3.7 v 0.1 0 c -0.1,2 1.5,3.8 3.5,3.9 h 0.1 c 1.2,0 2.3,-0.5 3.1,-1.4 l 1.2,1.2 c -1.1,1.3 -2.8,2 -4.4,1.9 -3,0 -5.5,-2.4 -5.6,-5.4 0.1,0 0.1,-0.1 0.1,-0.1"
   id="path23" /><path
   d="m 170.5,110.1 v 0 c 0.1,-2.1 -1.5,-3.8 -3.6,-3.9 h -0.1 c -2,0 -3.7,1.6 -3.7,3.7 0,0.1 0,0.1 0,0.2 v 0 c -0.1,2.1 1.5,3.8 3.6,3.9 h 0.1 c 2,0 3.7,-1.7 3.7,-3.7 0,-0.1 0,-0.2 0,-0.2 m -9.4,0 v 0 c 0.1,-3.2 2.8,-5.6 6,-5.5 3,0.1 5.4,2.5 5.5,5.5 v 0 c -0.1,3.2 -2.8,5.6 -6,5.5 -3,-0.2 -5.4,-2.6 -5.5,-5.5"
   id="path24" /><polygon
   points="178.2,104.6 176.4,104.6 176.4,115.5 178.3,115.5 178.3,107.7 184.4,115.5 186,115.5 186,104.6 184.1,104.6 184.1,112.1 "
   id="polygon24" /><path
   d="m 192.3,106.3 v 7.5 h 2.2 c 2,0.1 3.7,-1.4 3.8,-3.3 0,-0.1 0,-0.2 0,-0.4 v 0 c 0.1,-2 -1.5,-3.7 -3.5,-3.7 -0.1,0 -0.2,0 -0.3,0 z m -1.9,-1.7 h 4.1 c 3.4,0 5.8,2.4 5.8,5.4 v 0 c 0,3 -2.4,5.5 -5.5,5.5 -0.1,0 -0.2,0 -0.4,0 h -4.1 z"
   id="path25" /><rect
   x="204.3"
   y="104.6"
   width="1.9"
   height="11"
   id="rect25" /><polygon
   points="213.4,106.3 213.4,115.5 215.3,115.5 215.3,106.3 218.8,106.3 218.8,104.6 209.9,104.6 209.9,106.3 "
   id="polygon25" /><rect
   x="222.5"
   y="104.6"
   width="1.9"
   height="11"
   id="rect26" /><path
   d="m 237.9,110.1 v 0 c 0.1,-2.1 -1.5,-3.8 -3.6,-3.9 h -0.1 c -2,0 -3.7,1.6 -3.7,3.7 0,0.1 0,0.1 0,0.2 v 0 c -0.1,2.1 1.5,3.8 3.6,3.9 h 0.1 c 2,0 3.7,-1.7 3.7,-3.7 0,-0.1 0,-0.2 0,-0.2 m -9.5,0 v 0 c 0.1,-3.2 2.8,-5.6 6,-5.5 3,0.1 5.4,2.5 5.5,5.5 v 0 c 0,3.1 -2.5,5.6 -5.6,5.7 -0.1,0 -0.1,0 -0.2,0 -3.1,0.1 -5.6,-2.3 -5.7,-5.4 0,-0.2 0,-0.2 0,-0.3"
   id="path26" /><polygon
   points="245.6,104.6 243.8,104.6 243.8,115.5 245.7,115.5 245.7,107.7 251.8,115.5 253.4,115.5 253.4,104.6 251.5,104.6 251.5,112.1 "
   id="polygon26" /><rect
   x="257.89999"
   y="104.6"
   width="1.9"
   height="11"
   id="rect27" /><polygon
   points="266.1,104.6 264.3,104.6 264.3,115.5 266.2,115.5 266.2,107.7 272.2,115.5 273.8,115.5 273.8,104.6 271.9,104.6 271.9,112.1 "
   id="polygon27" /><path
   d="m 277.7,110.1 v 0 c 0,-3.1 2.4,-5.6 5.5,-5.7 h 0.1 c 1.5,-0.1 3.1,0.5 4.2,1.5 l -1.2,1.5 c -0.8,-0.8 -1.9,-1.2 -3.1,-1.2 -2,0.1 -3.6,1.8 -3.6,3.8 v 0 0 c -0.1,2 1.4,3.8 3.4,3.9 0.1,0 0.2,0 0.3,0 0.9,0 1.9,-0.3 2.6,-0.8 v -2 h -2.8 v -1.7 h 4.7 v 4.6 c -1.3,1.1 -2.9,1.7 -4.6,1.7 -3,0.1 -5.5,-2.2 -5.7,-5.2 0.2,-0.1 0.2,-0.3 0.2,-0.4"
   id="path27" />
</svg>
