<?xml version="1.0" encoding="UTF-8" standalone="no"?>
<svg
   width="2276.051"
   height="1469.827"
   viewBox="0 0 175.489 113.32719"
   version="1.1"
   id="svg3"
   xmlns="http://www.w3.org/2000/svg"
   xmlns:svg="http://www.w3.org/2000/svg">
  <defs
     id="defs3" />
  <path
     d="M 0.025,31.246098 C 2.258,24.138096 6.869001,15.253094 12.223001,10.186093 18.875002,3.8940908 29.849003,0.12408978 38.974003,0.00408975 52.253005,-0.16391029 65.148006,4.8790911 77.707007,8.6490921 96.941013,14.388094 115.26301,21.016095 135.69902,21.016095 c 14.912,0 25.861,-2.618 39.334,-8.909002 v 19.139005 z"
     id="path3"
     style="clip-rule:evenodd;fill-rule:evenodd;fill:#d9182b;fill-opacity:1" />
  <path
     id="path14"
     style="clip-rule:evenodd;fill-rule:evenodd;fill:#231f20;fill-opacity:1"
     d="M 0 36.913075 L 0 76.99006 L 13.976015 76.99006 L 13.976015 60.205078 L 15.921947 60.205078 C 16.882542 60.205078 17.8662 60.468928 18.658028 60.948544 L 18.658028 60.949146 C 19.018028 61.189146 19.354947 61.453098 19.618947 61.791098 C 20.507947 62.677098 21.923945 64.984154 23.340945 68.154155 L 27.231002 76.99006 L 41.016068 76.99006 L 35.013073 63.734169 C 34.292073 62.342168 33.595988 60.926169 32.874988 60.037169 C 32.178988 59.172168 31.289929 58.283122 30.233929 57.947122 A 11.770001 11.770003 0 0 0 35.013073 54.250122 C 36.069073 52.809122 36.596986 50.888158 36.596986 48.943158 C 36.596986 44.861157 35.013049 41.691138 32.011049 39.746137 C 29.225049 38.017137 24.542931 36.961075 18.658931 36.913075 L 18.658028 36.913075 L 0 36.913075 z M 13.976015 43.972161 L 16.80998 43.972161 C 17.458981 43.972161 18.082931 44.04503 18.658931 44.11703 L 18.658931 44.116277 C 19.955487 44.331322 21.036162 44.740229 21.755978 45.220106 C 22.788978 45.940106 23.340945 47.1651 23.340945 48.750101 C 23.340945 50.335101 22.788978 51.584095 21.755978 52.280096 C 21.035977 52.761096 19.979028 53.097165 18.658028 53.241165 C 18.03431 53.313101 17.36258 53.361035 16.617977 53.361035 L 13.976015 53.361035 L 13.976015 43.972161 z " />
  <path
     d="m 86.929008,36.9131 h 13.446012 v 21.564005 c 0,2.809001 0.674,4.898002 1.705,6.146002 1.01,1.418 3.051,2.113 5.428,2.113 2.39999,0 4.27499,-0.695 5.28299,-1.92 1.201,-1.441 1.873,-3.531001 1.873,-6.340002 V 36.9131 h 13.422 v 21.923005 c 0,6.148002 -1.68,10.902003 -5.09,14.072004 -3.385,3.193001 -8.836,4.779001 -15.65599,4.779001 -6.797,0 -11.910007,-1.586 -15.296007,-4.779001 -3.41,-3.170001 -5.115005,-7.924002 -5.115005,-14.072004 z"
     id="path12"
     style="clip-rule:evenodd;fill-rule:evenodd;fill:#231f20;fill-opacity:1" />
  <path
     d="m 41.856004,36.9131 h 13.471 v 21.564005 c 0,2.809001 0.672001,4.898002 1.705001,6.146002 1.008,1.418 3.049001,2.113 5.451,2.113 2.378001,0 4.25,-0.695 5.259001,-1.92 1.201,-1.441 1.873,-3.531001 1.873,-6.340002 V 36.9131 h 13.448002 v 21.923005 c 0,6.148002 -1.681001,10.902003 -5.115002,14.072004 -3.386,3.193001 -8.837,4.779001 -15.657001,4.779001 -6.796001,0 -11.911001,-1.586 -15.296001,-4.779001 -3.41,-3.170001 -5.139,-7.924002 -5.139,-14.072004 z"
     id="path11"
     style="clip-rule:evenodd;fill-rule:evenodd;fill:#231f20;fill-opacity:1" />
  <path
     id="path10"
     style="clip-rule:evenodd;fill-rule:evenodd;fill:#231f20;fill-opacity:1"
     d="M 132.57697 36.913075 L 132.57697 76.991114 L 152.292 76.991114 C 152.843 76.991114 153.42099 76.96713 153.97199 76.94413 A 36.130003 36.130009 0 0 0 161.60904 75.743169 C 164.08204 75.045169 166.72499 73.46115 168.83799 71.68415 C 170.95099 69.739149 172.87096 67.458035 173.92796 65.153034 C 174.98496 62.872033 175.48898 60.038048 175.48898 57.061047 C 175.48898 54.058046 174.79305 51.224158 173.76005 48.943158 C 172.68005 46.638157 170.95099 44.357044 168.83799 42.412043 C 166.72499 40.635043 164.08304 39.050074 161.44204 38.162074 C 159.37704 37.562074 156.80704 37.105114 153.97304 36.961114 L 153.97304 47.407134 A 9.8490009 9.8490026 0 0 1 158.63307 50.000154 C 160.36207 51.777154 161.27398 54.250046 161.27398 57.061047 C 161.27398 59.846048 160.19305 62.342038 158.46305 64.096039 C 157.19205 65.344039 155.67804 66.161054 153.97304 66.522054 L 153.97199 66.522054 C 153.25099 66.665054 152.53297 66.737097 151.76297 66.737097 L 146.64801 66.737097 L 146.64801 47.167092 L 146.64801 47.166038 L 151.76297 47.166038 A 9.7420008 9.7420025 0 0 1 153.97199 47.407134 L 153.97199 36.961114 C 153.42099 36.937114 152.843 36.913075 152.292 36.913075 L 132.57697 36.913075 z " />
  <path
     id="path4"
     style="clip-rule:evenodd;fill-rule:evenodd;fill:#d9182b;fill-opacity:1"
     d="m 0.025945,82.083184 v 19.138866 c 13.495002,-6.317007 24.421066,-8.933941 39.333067,-8.933941 20.435003,0 38.756936,6.653044 57.990941,12.391051 12.557997,3.77 25.478007,8.78995 38.734017,8.64495 9.125,-0.12 20.12301,-3.89103 26.75001,-10.18203 5.35499,-5.067006 9.96505,-13.951894 12.19905,-21.058896 z m 161.087695,3.506503 c 0.576,0.024 1.17599,0.193004 1.67999,0.409004 a 5.5870005,5.5870015 0 0 1 1.60891,1.10398 c 0.528,0.528 0.93598,1.103987 1.10398,1.704987 0.266,0.6 0.434,1.273046 0.434,1.873046 0,0.672001 -0.16797,1.440878 -0.33597,1.944878 a 5.4160004,5.4160014 0 0 1 -1.20096,1.705138 c -0.504,0.432001 -1.10595,0.840957 -1.68195,1.008957 -0.503,0.216 -1.0561,0.384045 -1.6071,0.432045 v -0.69603 c -3.3e-4,6.6e-5 -5.7e-4,8.5e-5 -9e-4,1.5e-4 v 0.69588 h -0.36007 c -0.672,0 -1.344,-0.168119 -1.85,-0.336119 -0.6,-0.263 -1.19899,-0.671979 -1.70499,-1.10398 -0.504,-0.505 -0.93598,-1.104987 -1.10398,-1.704987 -0.168,-0.6 -0.33597,-1.273027 -0.33597,-1.945028 0,-0.601 0.16797,-1.272896 0.33597,-1.872896 a 4.1030004,4.1030011 0 0 1 1.17596,-1.705137 c 0.433,-0.504001 1.03308,-0.93598 1.53708,-1.10398 0.601,-0.241 1.27288,-0.409004 1.94488,-0.409004 h 0.36112 z m 0,9.04e-4 v 0.671031 c 3.3e-4,3.6e-5 5.7e-4,1.16e-4 9e-4,1.51e-4 v -0.671182 z m 9e-4,0.671182 v 0.0018 h -0.26594 c -0.6,0 -1.19899,0.168118 -1.70499,0.336118 -0.503,0.168 -1.10304,0.600975 -1.43904,0.936975 -0.338,0.432 -0.77003,0.935948 -0.93803,1.439948 -0.168,0.505 -0.33597,1.200968 -0.33597,1.776969 a 5.5300004,5.5300014 0 0 0 0.26398,1.633005 c 0.168,0.504 0.57602,1.008098 1.01002,1.440098 0.336,0.337 0.84006,0.769975 1.36706,0.936975 0.506,0.168 1.17794,0.335968 1.68194,0.335968 0.11868,0 0.2394,8e-6 0.36007,-0.02379 v -0.0012 c 0.455,-0.024 0.93587,-0.09604 1.34387,-0.240042 0.503,-0.169 1.105,-0.599957 1.441,-1.008957 0.431,-0.336 0.86309,-0.865019 1.03109,-1.369019 0.17,-0.504 0.33793,-1.176987 0.33793,-1.704987 0,-0.577001 -0.16793,-1.177044 -0.33793,-1.681044 -0.168,-0.528 -0.60007,-1.103947 -0.93607,-1.439947 -0.431,-0.433 -0.937,-0.865052 -1.441,-1.033052 -0.43068,-0.143894 -0.98318,-0.287712 -1.43799,-0.335818 z m 0,1.441905 c 0.646,0.024 1.2711,0.191894 1.6071,0.431894 0.408,0.24 0.6739,0.673016 0.6739,1.177016 0,0.336 -0.16793,0.768998 -0.33793,1.031998 -0.264,0.24 -0.67209,0.504027 -1.03109,0.504027 l 1.27098,2.641962 h -1.17596 l -1.0079,-2.112937 v 0.0011 l -0.19306,-0.360062 h -1.00805 v 2.474053 h -1.10489 v -5.788101 h 2.3069 z m -1.20201,0.671936 v 1.968972 h 0.83999 c 0.119,0 0.24012,1.1e-4 0.36112,-0.02289 h 9e-4 a 3.8500003,3.850001 0 0 0 0.83999,-0.145019 c 0.168,-0.168 0.33597,-0.432066 0.33597,-0.769066 0,-0.336 -0.16797,-0.600012 -0.33597,-0.768012 -0.193,-0.12 -0.50399,-0.215891 -0.83999,-0.239891 v 9.04e-4 c -0.121,-10e-4 -0.24202,-0.025 -0.36202,-0.025 z" />
</svg>
