<?xml version="1.0" encoding="UTF-8" standalone="no"?>
<svg
   width="2426.698"
   height="359.09399"
   viewBox="0 0 187.09259 27.685285"
   version="1.1"
   id="svg2"
   xmlns="http://www.w3.org/2000/svg"
   xmlns:svg="http://www.w3.org/2000/svg">
  <defs
     id="defs2" />
  <g
     fill-rule="evenodd"
     clip-rule="evenodd"
     id="g2">
    <path
       d="M 20.135,0.69033894 V 8.7093389 H 15.129 V 26.523339 H 5.08 V 8.7083389 H 0 V 0.68933894 h 20.135 z m 19.663,0 V 7.6563389 h -8.852 v 2.3580001 h 8.852 v 7.292 h -8.852 v 2.25 h 8.852 v 6.966 H 20.897 V 0.69033894 Z m 2.721,0 H 55.688 L 58.191,12.845339 60.15,0.69033894 H 73.972 V 26.523339 h -8.524 v -13.787 l -3.374,13.859 h -7.546 l -3.447,-13.823 v 13.751 H 42.519 Z M 86.816,6.3863389 c -0.14,0.035 -0.136,0.008 -0.182,0.146 v 6.3490001 c 0.061,0.122 0.07,0.126 0.182,0.182 h 1.342 l 0.146,-0.182 V 6.5323389 c -0.042,-0.084 -0.066,-0.093 -0.146,-0.146 z m 53.91,-5.69599996 V 9.6523389 h -4.971 V 26.523339 H 124.691 V 9.5803389 H 109.49 v -3.229 h -1.633 v 2.721 l 5.189,1.9590001 2.574,0.979 c 3.203,1.602 4.746,2.852 4.428,7.691 -0.32,4.84 -5.248,8.074 -11.248,7.982 -5.998,-0.093 -11.137,-2.935 -11.463,-9.615 h 10.412 v 3.629 h 1.777 v -3.084 l -2.576,-0.943 c -2.664,-0.992 -6.393,-2.114 -8.199,-4.463 -1.854,3.27 -3.346,5.131 -7.038,5.191 l -5.188,-0.003 v 8.127 H 76.331 V 0.72633894 h 15.237 c 3.909,0.046 5.03,1.10399996 6.784,4.71599996 2.129,-5.22799996 5.127,-5.45299996 10.521,-5.44199996308 C 114.268,0.01133894 118.846,0.72033894 119.973,6.9303389 V 0.68933894 h 20.753 z M 161.769,16.981339 h -12.916 l 1.16,-9.6510001 1.416,9.1440001 8.307,-5.987 -2.83,-9.79600006 h -13.24 L 136.664,26.524339 h 10.848 l 0.797,-3.773 h 3.592 l 0.799,3.773 h 11.898 z m 7.037,0 -3.266,9.542 h 8.236 v -9.542 z m 4.861,-16.29100006 h -9.396 V 5.5163389 l 1.234,0.762 z m 0.906,0 h 4.645 c 4.297,-0.214 7.551,3.07199996 7.836,6.71199996 0.285,3.6400001 -1.018,4.7050001 -3.555,6.1310001 2.232,1.293 3.121,2.951 3.229,5.442 v 7.547 H 175.99 v -9.542 h 3.99 l -5.479,-4.209 h 1.488 V 6.1673389 h -2.213 v 6.2050001 l -2.576,-1.887 z"
       fill="#377bbf"
       id="path2" />
  </g>
</svg>
