<?xml version="1.0" encoding="UTF-8" standalone="no"?>
<svg
   viewBox="0 0 181.95101 62.801999"
   role="img"
   aria-labelledby="logoTitle"
   version="1.1"
   id="svg3"
   width="181.951"
   height="62.801998"
   xmlns="http://www.w3.org/2000/svg"
   xmlns:svg="http://www.w3.org/2000/svg"
   xmlns:rdf="http://www.w3.org/1999/02/22-rdf-syntax-ns#"
   xmlns:cc="http://creativecommons.org/ns#"
   xmlns:dc="http://purl.org/dc/elements/1.1/">
  <defs
     id="defs3" />
  <title
     id="logoTitle">Company Logo</title>
  <path
     fill="#d35d35"
     d="m 24.029,41.262 0.166,-0.498 37.285,-0.496 c 0.332,-0.994 0.497,-1.988 0.829,-2.984 L 25.356,36.788 25.522,36.29 62.476,35.794 c 0.166,-0.994 0.166,-1.988 0.331,-2.982 l -36.125,-0.498 0.166,-0.496 35.959,-0.332 c 0,-1.16 -0.166,-2.154 -0.166,-3.148 L 28.007,27.84 28.173,27.343 62.475,27.012 c -0.166,-1.16 -0.332,-2.154 -0.663,-3.148 L 29.499,23.367 29.665,22.869 61.481,22.537 60.487,19.555 30.659,19.223 30.825,18.725 59.99,18.394 C 55.016,7.623 44.08,0 31.32,0 16.241,0 3.481,10.771 0.664,25.022 L 45.737,24.525 45.24,26.182 0.498,25.685 C 0.332,27.011 0.166,28.17 0,29.496 L 44.411,28.999 43.914,30.656 0,30.159 v 1.326 c 0,0.828 0,1.656 0.166,2.486 L 43.085,33.473 42.588,35.131 0.166,34.633 c 0.166,1.326 0.332,2.486 0.663,3.811 l 40.93,-0.496 -0.497,1.656 -40.267,-0.496 c 0.332,1.326 0.663,2.484 1.16,3.645 l 38.113,-0.33 -0.497,1.656 -37.285,-0.496 c 0.498,1.324 1.16,2.484 1.823,3.645 l 34.633,-0.33 -0.497,1.656 -33.639,-0.499 c 0.829,1.326 1.657,2.486 2.651,3.646 l 30.16,-0.332 -0.498,1.658 -28.833,-0.332 c 5.634,6.131 13.92,10.107 23.034,10.107 13.754,0 25.52,-8.781 29.662,-21.045 z"
     id="path1" />
  <path
     id="path2"
     d="m 69.712803,19.053 -2.395953,7.92644 h 7.187861 L 69.343527,43.749 h 9.399176 L 83.719248,26.97944 H 89.98609 L 92.382048,19.053 Z m 23.959534,0 -7.372496,24.696 h 9.029903 l 2.765221,-9.399207 h 0.184643 L 101.59658,43.749 h 4.60727 5.15901 4.42481 l 2.02667,-4.422646 h 6.26684 l 0.18464,4.422646 h 8.66062 7.18786 l 2.94987,-11.058787 h 0.18247 L 146.01187,43.749 h 8.84744 l 7.37032,-24.696 h -9.21454 l -2.76306,10.689508 h -0.18464 L 147.30217,19.053 H 138.4569 L 132.4681,38.624726 130.71513,19.053 h -10.68948 l -11.04788,19.741159 -2.40465,-4.996111 c 3.50224,-1.106618 5.15917,-2.765709 6.26467,-6.082224 0.55386,-1.842878 1.8438,-8.662824 -9.39917,-8.662824 z m 70.586143,0 -7.3725,24.696 h 17.87733 l 2.02668,-6.633968 h -8.84743 l 0.73855,-2.580602 h 8.29351 l 2.02669,-6.264688 h -8.29352 l 0.73638,-2.395962 h 8.47815 l 2.02885,-6.82078 z m -63.58292,6.633968 h 1.29029 c 1.65714,0 3.13231,0.184831 2.76307,1.659579 -0.36924,1.659369 -1.47526,1.474937 -3.68626,1.474937 h -1.290289 z m 22.66707,1.292472 h 0.36928 l 0.18463,6.633968 h -3.68625 z"
     style="fill:#d35d35;fill-opacity:1;stroke-width:1.11217" />
  <metadata
     id="metadata3">
    <rdf:RDF>
      <cc:Work
         rdf:about="">
        <dc:title>Company Logo</dc:title>
      </cc:Work>
    </rdf:RDF>
  </metadata>
</svg>
