<svg xmlns="http://www.w3.org/2000/svg"
     viewBox="0 0 1308 455"
     role="img"
     aria-labelledby="yorkTitle">

  <title id="yorkTitle">York</title>

  <!-- BLACK WORDMARK -->
  <g fill="#231f20">

    <path d="m517.4 158.6c0-93.7 64-132.8 125.9-132.8 61.5 0 125.5 39.1 125.5 132.8 0 93.7-64 132.8-125.5 132.8-61.9 0-125.9-39.1-125.9-132.8zm182.2 0c0-47-20.4-75.7-56.3-75.7-36.3 0-56.8 28.7-56.8 75.7 0 47 20.5 77.5 56.8 77.5 35.9 0 56.3-30.5 56.3-77.5z"/>

    <path d="m787.7 285.5v-255.8h99.9c65.7 0 105.8 21.7 105.8 83.3 0 40.1-16.9 63.3-50.5 74.7l59 97.8h-73.3l-54.2-88.8h-19v88.8zm67.8-141.4h29.7c28.4 0 40.9-7.9 40.9-29.4 0-21.4-12.5-29-40.9-29h-29.7z"/>

    <path d="m1018.4 285.5v-255.8h69.2v89.2l70.5-89.2h80.3l-86.1 100.9 93.7 154.9h-78.2l-60.5-102.3-19.7 24.7v77.6z"/>

    <path d="m544.6 29.7h-78.6l-45.3 78.8-45-78.8h-78.9l89.2 149v106.8h69.5v-106.8l89.2-149z"/>

    <path d="m1250.1 48.9c0-13.6 10.5-24.1 24.1-24.1 13.4 0 23.8 10.4 23.8 23.9 0 13.6-10.5 24.1-24.1 24.1-13.5 0-23.8-10.4-23.8-23.9z"/>
    <path d="m1264.5 35.2h10.2c6.3 0 10.1 2.8 10.1 8.6 0 4.1-1.8 6.3-4.7 7.6l5.2 10h-6.6l-4.7-9.2h-3.1v9.2h-6.4z"/>

  </g>

  <!-- BLUE EMBLEM -->
  <g fill="#00539d">

    <path d="m50.9 98.2c2.1-3.9 4.8-7.5 7.8-10.6l-25.3-34.9 14.8-10.7 25.3 34.8c3.9-1.9 8.1-3.3 12.5-4.1v-43.1h-75.9v55.3z"/>

    <path d="m44.8 122.2c0-2.2 0.2-4.4 0.5-6.6l-35.1-11.4v35.9l35.1-11.3c-0.3-2.2-0.5-4.4-0.5-6.6z"/>

    <path d="m104.4 29.6v19.4l20.5-11.8 7.2 12.6-27.7 16v40.5l35.1-20.3v-32h14.5v23.6l16.7-9.6 9.2 15.9-16.7 9.6 20.5 11.9-7.3 12.6-27.7-16.1-35.2 20.3 35.2 20.3 27.8-16.1 7.3 12.6-20.6 11.9 16.7 9.6-9.2 15.9-16.6-9.6v23.6h-14.6v-32l-35.1-20.3v40.5l27.9 16.1-7.3 12.6-20.6-11.9v19.3h-18.4v-43c-4.4-0.8-8.6-2.2-12.5-4.1l-25.3 34.9-14.8-10.8 25.3-34.8c-3.1-3.2-5.7-6.8-7.8-10.7l-40.8 13.3v126h255.9v-255.9z"/>

    <path d="m86 152.9v-61.4c-13.2 4-22.9 16.2-22.9 30.7 0 14.5 9.7 26.8 22.9 30.7z"/>

  </g>

</svg>