<?xml version="1.0" encoding="UTF-8" standalone="no"?>
<svg
   viewBox="0 0 1235.9 265.60001"
   role="img"
   aria-labelledby="yorkTitle"
   version="1.1"
   id="svg10"
   width="1235.9"
   height="265.60001"
   xmlns="http://www.w3.org/2000/svg"
   xmlns:svg="http://www.w3.org/2000/svg"
   xmlns:rdf="http://www.w3.org/1999/02/22-rdf-syntax-ns#"
   xmlns:cc="http://creativecommons.org/ns#"
   xmlns:dc="http://purl.org/dc/elements/1.1/">
  <defs
     id="defs10" />
  <title
     id="yorkTitle">York</title>
  <!-- BLACK WORDMARK -->
  <g
     fill="#231f20"
     id="g6"
     transform="translate(-10.1,-25.8)">
    <path
       d="m 517.4,158.6 c 0,-93.7 64,-132.8 125.9,-132.8 61.5,0 125.5,39.1 125.5,132.8 0,93.7 -64,132.8 -125.5,132.8 -61.9,0 -125.9,-39.1 -125.9,-132.8 z m 182.2,0 c 0,-47 -20.4,-75.7 -56.3,-75.7 -36.3,0 -56.8,28.7 -56.8,75.7 0,47 20.5,77.5 56.8,77.5 35.9,0 56.3,-30.5 56.3,-77.5 z"
       id="path1" />
    <path
       d="M 787.7,285.5 V 29.7 h 99.9 c 65.7,0 105.8,21.7 105.8,83.3 0,40.1 -16.9,63.3 -50.5,74.7 l 59,97.8 h -73.3 l -54.2,-88.8 h -19 v 88.8 z m 67.8,-141.4 h 29.7 c 28.4,0 40.9,-7.9 40.9,-29.4 0,-21.4 -12.5,-29 -40.9,-29 h -29.7 z"
       id="path2" />
    <path
       d="M 1018.4,285.5 V 29.7 h 69.2 v 89.2 l 70.5,-89.2 h 80.3 l -86.1,100.9 93.7,154.9 h -78.2 l -60.5,-102.3 -19.7,24.7 v 77.6 z"
       id="path3" />
    <path
       d="M 544.6,29.7 H 466 l -45.3,78.8 -45,-78.8 h -78.9 l 89.2,149 v 106.8 h 69.5 V 178.7 l 89.2,-149 z"
       id="path4" />
  </g>
  <!-- BLUE EMBLEM -->
  <g
     fill="#00539d"
     id="g10"
     transform="translate(-10.1,-25.8)">
    <path
       d="M 50.9,98.2 C 53,94.3 55.7,90.7 58.7,87.6 L 33.4,52.7 48.2,42 73.5,76.8 C 77.4,74.9 81.6,73.5 86,72.7 V 29.6 H 10.1 v 55.3 z"
       id="path7" />
    <path
       d="m 44.8,122.2 c 0,-2.2 0.2,-4.4 0.5,-6.6 L 10.2,104.2 v 35.9 l 35.1,-11.3 c -0.3,-2.2 -0.5,-4.4 -0.5,-6.6 z"
       id="path8" />
    <path
       d="M 104.4,29.6 V 49 l 20.5,-11.8 7.2,12.6 -27.7,16 v 40.5 L 139.5,86 V 54 H 154 v 23.6 l 16.7,-9.6 9.2,15.9 -16.7,9.6 20.5,11.9 -7.3,12.6 -27.7,-16.1 -35.2,20.3 35.2,20.3 27.8,-16.1 7.3,12.6 -20.6,11.9 16.7,9.6 -9.2,15.9 -16.6,-9.6 v 23.6 h -14.6 v -32 l -35.1,-20.3 v 40.5 l 27.9,16.1 -7.3,12.6 -20.6,-11.9 v 19.3 H 86 v -43 c -4.4,-0.8 -8.6,-2.2 -12.5,-4.1 L 48.2,202.5 33.4,191.7 58.7,156.9 c -3.1,-3.2 -5.7,-6.8 -7.8,-10.7 l -40.8,13.3 v 126 H 266 V 29.6 Z"
       id="path9" />
    <path
       d="M 86,152.9 V 91.5 c -13.2,4 -22.9,16.2 -22.9,30.7 0,14.5 9.7,26.8 22.9,30.7 z"
       id="path10" />
  </g>
  <metadata
     id="metadata10">
    <rdf:RDF>
      <cc:Work
         rdf:about="">
        <dc:title>York</dc:title>
      </cc:Work>
    </rdf:RDF>
  </metadata>
</svg>
